{
.appVersion = "3098";
.formatVersion = 3;
DisplayStrings = (
"TUESDAYG ALT
THURSDAY
SATURDAY
SUNDAY",
"ABCDEFGHIJKLMN
OPQRSTUVWXYZ/O.ss01 
HOONLH MORNING
WEDNESDAY
WHO KNOWS
gLOVE THOU
WOW QUEN",
"ABCDEFGHIJKLM
NOPQRSTUVWXYZ/O.ss01 
cabcdefghijklm
nopqrstnuvwxyz
adhesion hendai
que jajajaja yay
Thx",

glyphs = (
{
color = 4;
glyphname = A;
kernLeft = LAT_UC_A;
kernRight = LAT_UC_A;
lastChange = "2021-09-01 17:48:57 +0000";
layers = (
{
anchors = (
{
name = bottom;
pos = (268,0);
},
{
name = ogonek;
pos = (506,10);
},
{
name = top;
pos = (298,730);
}
);
layerId = m004;
shapes = (
{
closed = 1;
nodes = (
(195,-7,o),
(218,38,o),
(245,126,cs),
(255,177,o),
(265,241,o),
(264,307,c),
(166,241,l),
(226,219,o),
(309,218,o),
(353,234,c),
(280,309,l),
(275,249,o),
(274,183,o),
(280,123,cs),
(289,29,o),
(328,-7,o),
(394,-7,cs),
(474,-7,o),
(520,45,o),
(520,163,cs),
(520,312,o),
(488,473,o),
(450,575,cs),
(405,694,o),
(354,739,o),
(286,739,cs),
(220,739,o),
(171,700,o),
(114,570,cs),
(56,438,o),
(15,245,o),
(15,147,cs),
(15,31,o),
(51,-7,o),
(117,-7,cs)
);
},
{
closed = 1;
nodes = (
(249,359,o),
(229,387,o),
(229,440,cs),
(229,502,o),
(250,557,o),
(282,557,cs),
(314,557,o),
(333,505,o),
(333,447,cs),
(333,389,o),
(313,359,o),
(280,359,cs)
);
}
);
width = 535;
},
{
anchors = (
{
name = bottom;
pos = (323,0);
},
{
name = ogonek;
pos = (561,10);
},
{
name = top;
pos = (353,730);
}
);
layerId = "4BA625B0-8927-4B2E-B2D8-0167ED5E0445";
shapes = (
{
closed = 1;
nodes = (
(219,-7,o),
(263,38,o),
(275,126,cs),
(285,177,o),
(295,241,o),
(294,307,c),
(206,241,l),
(275,219,o),
(372,218,o),
(423,234,c),
(360,309,l),
(355,249,o),
(354,183,o),
(360,123,cs),
(369,29,o),
(414,-7,o),
(489,-7,cs),
(578,-7,o),
(630,45,o),
(630,163,cs),
(630,312,o),
(592,471,o),
(550,575,cs),
(501,697,o),
(427,739,o),
(341,739,cs),
(257,739,o),
(185,704,o),
(124,570,cs),
(63,436,o),
(15,245,o),
(15,147,cs),
(15,31,o),
(56,-7,o),
(132,-7,cs)
);
},
{
closed = 1;
nodes = (
(283,379,o),
(249,407,o),
(249,444,cs),
(249,487,o),
(284,537,o),
(337,537,cs),
(390,537,o),
(423,490,o),
(423,452,cs),
(423,409,o),
(389,379,o),
(335,379,cs)
);
}
);
width = 645;
},
{
anchors = (
{
name = bottom;
pos = (246,0);
},
{
name = ogonek;
pos = (484,10);
},
{
name = top;
pos = (276,730);
}
);
layerId = "D96CDDDD-AAEE-4FD8-A377-74226937908C";
shapes = (
{
closed = 1;
nodes = (
(142,-7,o),
(159,37,o),
(178,119,cs),
(188,172,o),
(198,238,o),
(197,307,c),
(144,239,l),
(208,209,o),
(298,208,o),
(346,232,c),
(318,309,l),
(313,247,o),
(312,178,o),
(318,116,cs),
(326,28,o),
(350,-7,o),
(394,-7,cs),
(440,-7,o),
(468,29,o),
(468,111,cs),
(468,256,o),
(444,449,o),
(405,575,cs),
(368,693,o),
(320,739,o),
(265,739,cs),
(213,739,o),
(167,697,o),
(120,570,cs),
(66,424,o),
(30,205,o),
(30,95,cs),
(30,18,o),
(50,-7,o),
(87,-7,cs)
);
},
{
closed = 1;
nodes = (
(210,329,o),
(188,351,o),
(188,395,cs),
(188,469,o),
(222,617,o),
(260,617,cs),
(298,617,o),
(329,471,o),
(329,402,cs),
(329,353,o),
(307,329,o),
(258,329,cs)
);
}
);
width = 497.5;
},
{
anchors = (
{
name = bottom;
pos = (314,0);
},
{
name = ogonek;
pos = (552,10);
},
{
name = top;
pos = (344,730);
}
);
layerId = "1C59D977-65E2-41C6-912A-276E7E987498";
shapes = (
{
closed = 1;
nodes = (
(148,-7,o),
(169,41,o),
(185,130,cs),
(195,180,o),
(205,243,o),
(204,307,c),
(151,239,l),
(248,209,o),
(382,208,o),
(453,232,c),
(436,309,l),
(431,251,o),
(430,186,o),
(436,127,cs),
(446,31,o),
(470,-7,o),
(517,-7,cs),
(565,-7,o),
(594,29,o),
(594,111,cs),
(594,256,o),
(552,442,o),
(498,575,cs),
(449,692,o),
(396,739,o),
(332,739,cs),
(267,739,o),
(216,699,o),
(156,570,cs),
(84,417,o),
(30,205,o),
(30,95,cs),
(30,18,o),
(52,-7,o),
(91,-7,cs)
);
},
{
closed = 1;
nodes = (
(254,334,o),
(219,356,o),
(219,396,cs),
(219,465,o),
(270,612,o),
(328,612,cs),
(388,612,o),
(437,468,o),
(437,403,cs),
(437,358,o),
(403,334,o),
(326,334,cs)
);
}
);
width = 624;
}
);
metricRight = "=|";
unicode = 65;
},
{
color = 4;
glyphname = B;
kernLeft = LAT_UC_Stem;
kernRight = LAT_UC_B;
lastChange = "2021-09-08 16:33:45 +0000";
layers = (
{
anchors = (
{
name = bottom;
pos = (242,0);
},
{
name = center;
pos = (242,365);
},
{
name = top;
pos = (242,730);
}
);
background = {
shapes = (
{
closed = 1;
nodes = (
(336,-5,o),
(464,99,o),
(464,245,cs),
(464,356,o),
(404,407,o),
(305,407,c),
(233,384,l),
(361,409,o),
(459,464,o),
(459,583,cs),
(459,672,o),
(407,739,o),
(272,739,cs),
(168,739,o),
(117,703,o),
(83,652,cs),
(47,597,o),
(25,503,o),
(25,285,cs),
(25,197,o),
(32,130,o),
(52,83,cs),
(77,22,o),
(129,-5,o),
(211,-5,cs)
);
},
{
closed = 1;
nodes = (
(223,143,o),
(213,168,o),
(213,215,cs),
(213,283,o),
(237,320,o),
(265,320,cs),
(291,320,o),
(303,288,o),
(303,246,cs),
(303,184,o),
(279,143,o),
(245,143,cs)
);
},
{
closed = 1;
nodes = (
(231,443,o),
(220,466,o),
(220,511,cs),
(220,573,o),
(239,607,o),
(268,607,cs),
(289,607,o),
(300,581,o),
(300,544,cs),
(300,482,o),
(279,443,o),
(251,443,cs)
);
}
);
};
layerId = m004;
shapes = (
{
closed = 1;
nodes = (
(341,-5,o),
(474,99,o),
(474,245,cs),
(474,349,o),
(421,400,o),
(333,406,c),
(333,410,l),
(414,441,o),
(469,494,o),
(469,583,cs),
(469,672,o),
(414,739,o),
(272,739,cs),
(168,739,o),
(117,703,o),
(83,652,cs),
(47,597,o),
(25,503,o),
(25,285,cs),
(25,197,o),
(32,130,o),
(52,83,cs),
(77,22,o),
(129,-5,o),
(211,-5,cs)
);
},
{
closed = 1;
nodes = (
(224,143,o),
(213,168,o),
(213,215,cs),
(213,283,o),
(240,320,o),
(271,320,cs),
(300,320,o),
(313,288,o),
(313,246,cs),
(313,184,o),
(286,143,o),
(249,143,cs)
);
},
{
closed = 1;
nodes = (
(232,443,o),
(220,466,o),
(220,511,cs),
(220,573,o),
(241,607,o),
(274,607,cs),
(298,607,o),
(310,581,o),
(310,544,cs),
(310,482,o),
(286,443,o),
(255,443,cs)
);
}
);
width = 493;
},
{
anchors = (
{
name = bottom;
pos = (317,0);
},
{
name = center;
pos = (317,365);
},
{
name = top;
pos = (317,730);
}
);
background = {
shapes = (
{
closed = 1;
nodes = (
(426,-5,o),
(614,99,o),
(614,245,cs),
(614,356,o),
(542,407,o),
(425,407,c),
(353,384,l),
(498,409,o),
(609,464,o),
(609,583,cs),
(609,672,o),
(545,739,o),
(377,739,cs),
(215,739,o),
(122,711,o),
(83,652,cs),
(47,597,o),
(25,503,o),
(25,285,cs),
(25,197,o),
(32,130,o),
(52,83,cs),
(77,21,o),
(144,-5,o),
(241,-5,cs)
);
},
{
closed = 1;
nodes = (
(266,173,o),
(241,192,o),
(241,233,cs),
(241,279,o),
(280,305,o),
(329,305,cs),
(392,305,o),
(421,278,o),
(421,244,cs),
(421,201,o),
(378,173,o),
(318,173,cs)
);
},
{
closed = 1;
nodes = (
(275,458,o),
(248,476,o),
(248,514,cs),
(248,555,o),
(283,577,o),
(332,577,cs),
(387,577,o),
(418,556,o),
(418,525,cs),
(418,484,o),
(377,458,o),
(318,458,cs)
);
}
);
};
layerId = "4BA625B0-8927-4B2E-B2D8-0167ED5E0445";
shapes = (
{
closed = 1;
nodes = (
(436,-5,o),
(624,99,o),
(624,245,cs),
(624,345,o),
(565,397,o),
(467,406,c),
(467,410,l),
(558,442,o),
(619,495,o),
(619,583,cs),
(619,672,o),
(549,739,o),
(367,739,cs),
(211,739,o),
(132,702,o),
(93,644,cs),
(49,578,o),
(25,473,o),
(25,285,cs),
(25,201,o),
(33,138,o),
(52,93,cs),
(81,24,o),
(144,-5,o),
(251,-5,cs)
);
},
{
closed = 1;
nodes = (
(266,173,o),
(241,192,o),
(241,233,cs),
(241,279,o),
(280,305,o),
(329,305,cs),
(392,305,o),
(421,278,o),
(421,244,cs),
(421,201,o),
(378,173,o),
(318,173,cs)
);
},
{
closed = 1;
nodes = (
(275,458,o),
(248,476,o),
(248,514,cs),
(248,555,o),
(283,577,o),
(332,577,cs),
(387,577,o),
(418,556,o),
(418,525,cs),
(418,484,o),
(377,458,o),
(318,458,cs)
);
}
);
width = 643;
},
{
anchors = (
{
name = bottom;
pos = (250,0);
},
{
name = center;
pos = (250,365);
},
{
name = top;
pos = (250,730);
}
);
layerId = "D96CDDDD-AAEE-4FD8-A377-74226937908C";
shapes = (
{
closed = 1;
nodes = (
(321,-5,o),
(442,99,o),
(442,245,cs),
(442,342,o),
(396,390,o),
(321,398,c),
(321,402,l),
(390,437,o),
(437,493,o),
(437,583,cs),
(437,668,o),
(391,739,o),
(272,739,cs),
(192,739,o),
(149,714,o),
(113,660,cs),
(76,604,o),
(55,508,o),
(55,285,cs),
(55,190,o),
(61,118,o),
(82,68,cs),
(103,18,o),
(141,-5,o),
(204,-5,cs)
);
},
{
closed = 1;
nodes = (
(189,108,o),
(172,137,o),
(172,214,cs),
(172,297,o),
(200,330,o),
(242,330,cs),
(297,330,o),
(322,290,o),
(322,237,cs),
(322,162,o),
(281,108,o),
(223,108,cs)
);
},
{
closed = 1;
nodes = (
(198,428,o),
(179,450,o),
(179,515,cs),
(179,597,o),
(209,630,o),
(252,630,cs),
(296,630,o),
(319,596,o),
(319,547,cs),
(319,477,o),
(281,428,o),
(229,428,cs)
);
}
);
width = 483;
},
{
anchors = (
{
name = bottom;
pos = (313,0);
},
{
name = center;
pos = (313,365);
},
{
name = top;
pos = (313,730);
}
);
layerId = "1C59D977-65E2-41C6-912A-276E7E987498";
shapes = (
{
closed = 1;
nodes = (
(417,-5,o),
(580,99,o),
(580,245,cs),
(580,337,o),
(524,386,o),
(430,397,c),
(430,401,l),
(517,436,o),
(575,492,o),
(575,583,cs),
(575,668,o),
(520,739,o),
(377,739,cs),
(233,739,o),
(160,702,o),
(124,648,cs),
(89,594,o),
(66,501,o),
(66,285,cs),
(66,201,o),
(74,136,o),
(93,91,cs),
(120,26,o),
(173,-5,o),
(256,-5,cs)
);
},
{
closed = 1;
nodes = (
(222,115,o),
(190,143,o),
(190,218,cs),
(190,296,o),
(234,326,o),
(303,326,cs),
(406,326,o),
(453,287,o),
(453,237,cs),
(453,167,o),
(383,115,o),
(287,115,cs)
);
},
{
closed = 1;
nodes = (
(234,432,o),
(197,453,o),
(197,516,cs),
(197,593,o),
(255,622,o),
(336,622,cs),
(410,622,o),
(450,590,o),
(450,542,cs),
(450,477,o),
(382,432,o),
(291,432,cs)
);
}
);
width = 630;
}
);
metricLeft = H;
metricRight = "=H*0.75";
unicode = 66;
},
{
color = 4;
glyphname = C;
kernLeft = LAT_UC_Round;
kernRight = LAT_UC_C;
lastChange = "2021-09-01 14:35:27 +0000";
layers = (
{
anchors = (
{
name = bottom;
pos = (249,0);
},
{
name = top;
pos = (259,730);
}
);
layerId = m004;
shapes = (
{
closed = 1;
nodes = (
(405,-11,o),
(457,45,o),
(457,133,cs),
(457,211,o),
(412,251,o),
(341,251,cs),
(330,251,o),
(309,247,o),
(297,247,cs),
(252,247,o),
(223,275,o),
(223,349,cs),
(223,430,o),
(258,458,o),
(299,458,cs),
(323,458,o),
(336,453,o),
(361,453,cs),
(434,453,o),
(473,496,o),
(473,566,cs),
(473,656,o),
(414,710,o),
(306,710,cs),
(122,710,o),
(15,559,o),
(15,331,cs),
(15,124,o),
(104,-11,o),
(291,-11,cs)
);
}
);
width = 478;
},
{
anchors = (
{
name = bottom;
pos = (324,0);
},
{
name = top;
pos = (319,730);
}
);
layerId = "4BA625B0-8927-4B2E-B2D8-0167ED5E0445";
shapes = (
{
closed = 1;
nodes = (
(561,-11,o),
(637,54,o),
(637,157,cs),
(637,235,o),
(592,275,o),
(521,275,cs),
(479,275,o),
(404,262,o),
(357,262,cs),
(294,262,o),
(253,286,o),
(253,349,cs),
(253,420,o),
(302,443,o),
(359,443,cs),
(425,443,o),
(458,408,o),
(526,408,cs),
(608,408,o),
(653,457,o),
(653,536,cs),
(653,644,o),
(567,710,o),
(411,710,cs),
(161,710,o),
(15,559,o),
(15,331,cs),
(15,124,o),
(139,-11,o),
(396,-11,cs)
);
}
);
width = 658;
},
{
anchors = (
{
name = bottom;
pos = (249,0);
},
{
name = top;
pos = (252,730);
}
);
layerId = "D96CDDDD-AAEE-4FD8-A377-74226937908C";
shapes = (
{
closed = 1;
nodes = (
(374,-11,o),
(420,27,o),
(420,78,cs),
(420,121,o),
(395,143,o),
(356,143,cs),
(343,143,o),
(312,135,o),
(290,135,cs),
(217,135,o),
(171,193,o),
(171,349,cs),
(171,504,o),
(226,556,o),
(292,556,cs),
(326,556,o),
(345,543,o),
(369,543,cs),
(412,543,o),
(436,569,o),
(436,611,cs),
(436,668,o),
(385,710,o),
(306,710,cs),
(136,710,o),
(38,559,o),
(38,331,cs),
(38,124,o),
(120,-11,o),
(291,-11,cs)
);
}
);
width = 455.5;
},
{
anchors = (
{
name = bottom;
pos = (324,0);
},
{
name = top;
pos = (323,730);
}
);
layerId = "1C59D977-65E2-41C6-912A-276E7E987498";
shapes = (
{
closed = 1;
nodes = (
(534,-11,o),
(613,34,o),
(613,95,cs),
(613,138,o),
(584,160,o),
(539,160,cs),
(505,160,o),
(430,138,o),
(373,138,cs),
(262,138,o),
(189,195,o),
(189,349,cs),
(189,501,o),
(275,552,o),
(375,552,cs),
(452,552,o),
(495,509,o),
(547,509,cs),
(600,509,o),
(629,537,o),
(629,581,cs),
(629,655,o),
(540,710,o),
(401,710,cs),
(178,710,o),
(49,559,o),
(49,331,cs),
(49,124,o),
(159,-11,o),
(386,-11,cs)
);
}
);
width = 649;
}
);
metricLeft = O;
unicode = 67;
},
{
color = 4;
glyphname = D;
kernLeft = LAT_UC_D;
kernRight = LAT_UC_Round;
lastChange = "2021-09-01 18:00:35 +0000";
layers = (
{
anchors = (
{
name = bottom;
pos = (291,0);
},
{
name = center;
pos = (291,365);
},
{
name = top;
pos = (291,730);
}
);
layerId = m004;
shapes = (
{
closed = 1;
nodes = (
(375,-23,o),
(526,151,o),
(526,390,cs),
(526,595,o),
(408,735,o),
(190,735,cs),
(67,735,o),
(10,690,o),
(10,616,cs),
(10,558,o),
(38,525,o),
(101,525,cs),
(145,525,o),
(192,535,o),
(220,547,c),
(96,567,l),
(73,458,o),
(70,238,o),
(92,122,c),
(130,163,l),
(50,153,o),
(25,114,o),
(26,59,cs),
(27,10,o),
(51,-23,o),
(147,-23,cs)
);
},
{
closed = 1;
nodes = (
(242,206,o),
(235,260,o),
(235,385,cs),
(235,505,o),
(240,536,o),
(257,536,cs),
(287,536,o),
(315,465,o),
(315,363,cs),
(315,267,o),
(293,206,o),
(268,206,cs)
);
}
);
width = 541;
},
{
anchors = (
{
name = bottom;
pos = (336,0);
},
{
name = center;
pos = (336,365);
},
{
name = top;
pos = (336,730);
}
);
layerId = "4BA625B0-8927-4B2E-B2D8-0167ED5E0445";
shapes = (
{
closed = 1;
nodes = (
(499,-23,o),
(696,151,o),
(696,390,cs),
(696,595,o),
(537,735,o),
(245,735,cs),
(85,735,o),
(10,684,o),
(10,601,cs),
(10,543,o),
(52,510,o),
(146,510,cs),
(190,510,o),
(237,520,o),
(265,532,c),
(141,537,l),
(118,443,o),
(115,253,o),
(137,152,c),
(175,193,l),
(61,182,o),
(25,137,o),
(26,74,cs),
(27,16,o),
(62,-23,o),
(202,-23,cs)
);
},
{
closed = 1;
nodes = (
(320,236,o),
(310,281,o),
(310,385,cs),
(310,481,o),
(318,506,o),
(347,506,cs),
(405,506,o),
(455,447,o),
(455,363,cs),
(455,285,o),
(411,236,o),
(358,236,cs)
);
}
);
width = 711;
},
{
anchors = (
{
name = bottom;
pos = (272,0);
},
{
name = center;
pos = (272,365);
},
{
name = top;
pos = (272,730);
}
);
layerId = "D96CDDDD-AAEE-4FD8-A377-74226937908C";
shapes = (
{
closed = 1;
nodes = (
(343,-23,o),
(485,151,o),
(485,390,cs),
(485,595,o),
(374,735,o),
(171,735,cs),
(69,735,o),
(21,701,o),
(21,646,cs),
(21,612,o),
(43,593,o),
(90,593,cs),
(131,593,o),
(175,603,o),
(201,615,c),
(115,612,l),
(84,484,o),
(81,223,o),
(111,85,c),
(126,103,l),
(58,97,o),
(37,71,o),
(37,37,cs),
(38,1,o),
(56,-23,o),
(128,-23,cs)
);
},
{
closed = 1;
nodes = (
(214,124,o),
(205,211,o),
(205,373,cs),
(205,531,o),
(214,611,o),
(244,611,cs),
(286,611,o),
(349,531,o),
(349,372,cs),
(349,209,o),
(289,124,o),
(248,124,cs)
);
}
);
width = 523;
},
{
anchors = (
{
name = bottom;
pos = (345,0);
},
{
name = center;
pos = (345,365);
},
{
name = top;
pos = (345,730);
}
);
layerId = "1C59D977-65E2-41C6-912A-276E7E987498";
shapes = (
{
closed = 1;
nodes = (
(472,-23,o),
(651,151,o),
(651,390,cs),
(651,595,o),
(507,735,o),
(244,735,cs),
(96,735,o),
(26,700,o),
(26,642,cs),
(26,608,o),
(65,589,o),
(151,589,cs),
(197,589,o),
(245,599,o),
(274,611,c),
(187,605,l),
(157,480,o),
(154,227,o),
(183,92,c),
(199,111,l),
(79,104,o),
(42,77,o),
(42,40,cs),
(43,3,o),
(75,-23,o),
(201,-23,cs)
);
},
{
closed = 1;
nodes = (
(297,131,o),
(285,216,o),
(285,373,cs),
(285,525,o),
(297,604,o),
(339,604,cs),
(408,604,o),
(508,527,o),
(508,372,cs),
(508,214,o),
(411,131,o),
(343,131,cs)
);
}
);
width = 700;
}
);
metricLeft = "=|E";
metricRight = O;
unicode = 68;
},
{
color = 4;
glyphname = E;
kernLeft = LAT_UC_Stem;
kernRight = LAT_UC_E;
lastChange = "2021-09-01 15:22:47 +0000";
layers = (
{
anchors = (
{
name = bottom;
pos = (244,0);
},
{
name = ogonek;
pos = (455,10);
},
{
name = top;
pos = (244,730);
},
{
name = topleft;
pos = (0,730);
}
);
layerId = m004;
shapes = (
{
closed = 1;
nodes = (
(210,736,o),
(127,707,o),
(82,645,cs),
(48,599,o),
(25,514,o),
(25,323,cs),
(25,188,o),
(36,118,o),
(64,70,cs),
(92,21,o),
(149,-6,o),
(239,-6,cs),
(281,-6,o),
(328,5,o),
(356,19,cs),
(397,39,o),
(416,74,o),
(416,117,cs),
(416,189,o),
(385,219,o),
(320,219,cs),
(278,219,o),
(223,209,o),
(188,194,c),
(203,169,l),
(225,208,o),
(225,274,o),
(208,313,c),
(192,301,l),
(230,291,o),
(268,286,o),
(299,286,cs),
(368,286,o),
(393,325,o),
(393,374,cs),
(393,419,o),
(373,454,o),
(316,454,cs),
(278,454,o),
(224,444,o),
(195,433,c),
(211,426,l),
(222,466,o),
(222,513,o),
(209,551,c),
(189,528,l),
(223,523,o),
(256,521,o),
(281,521,cs),
(375,521,o),
(418,559,o),
(418,636,cs),
(418,701,o),
(389,736,o),
(308,736,cs)
);
}
);
width = 428;
},
{
anchors = (
{
name = bottom;
pos = (274,0);
},
{
name = ogonek;
pos = (485,10);
},
{
name = top;
pos = (274,730);
},
{
name = topleft;
pos = (30,730);
}
);
layerId = "4BA625B0-8927-4B2E-B2D8-0167ED5E0445";
shapes = (
{
closed = 1;
nodes = (
(261,736,o),
(133,715,o),
(82,645,cs),
(48,599,o),
(25,514,o),
(25,323,cs),
(25,188,o),
(36,118,o),
(64,70,cs),
(94,20,o),
(164,-6,o),
(269,-6,cs),
(355,-6,o),
(453,8,o),
(506,34,cs),
(550,56,o),
(566,85,o),
(566,132,cs),
(566,204,o),
(520,234,o),
(425,234,cs),
(364,234,o),
(285,224,o),
(233,209,c),
(233,199,l),
(255,231,o),
(255,282,o),
(238,313,c),
(222,301,l),
(281,291,o),
(340,286,o),
(389,286,cs),
(502,286,o),
(543,325,o),
(543,374,cs),
(543,419,o),
(507,454,o),
(406,454,cs),
(349,454,o),
(269,444,o),
(225,433,c),
(241,426,l),
(252,457,o),
(252,492,o),
(239,521,c),
(234,513,l),
(291,508,o),
(345,506,o),
(386,506,cs),
(510,506,o),
(568,544,o),
(568,621,cs),
(568,695,o),
(523,736,o),
(398,736,cs)
);
}
);
width = 578;
},
{
anchors = (
{
name = bottom;
pos = (244,0);
},
{
name = ogonek;
pos = (455,10);
},
{
name = top;
pos = (244,730);
},
{
name = topleft;
pos = (0,730);
}
);
layerId = "D96CDDDD-AAEE-4FD8-A377-74226937908C";
shapes = (
{
closed = 1;
nodes = (
(227,736,o),
(154,706,o),
(110,646,cs),
(78,599,o),
(55,514,o),
(55,323,cs),
(55,184,o),
(68,111,o),
(94,62,cs),
(118,17,o),
(172,-6,o),
(254,-6,cs),
(289,-6,o),
(325,1,o),
(349,12,cs),
(381,26,o),
(394,51,o),
(394,80,cs),
(394,125,o),
(372,144,o),
(328,144,cs),
(274,144,o),
(204,128,o),
(158,104,c),
(173,94,l),
(188,160,o),
(182,270,o),
(159,336,c),
(147,324,l),
(190,314,o),
(237,309,o),
(284,309,cs),
(347,309,o),
(371,338,o),
(371,374,cs),
(371,406,o),
(352,432,o),
(301,432,cs),
(256,432,o),
(193,422,o),
(158,411,c),
(162,404,l),
(186,471,o),
(191,548,o),
(179,611,c),
(159,596,l),
(204,591,o),
(248,589,o),
(281,589,cs),
(359,589,o),
(396,615,o),
(396,666,cs),
(396,712,o),
(367,736,o),
(316,736,cs)
);
}
);
width = 416.75;
},
{
anchors = (
{
name = bottom;
pos = (263,0);
},
{
name = ogonek;
pos = (474,10);
},
{
name = top;
pos = (263,730);
},
{
name = topleft;
pos = (19,730);
}
);
layerId = "1C59D977-65E2-41C6-912A-276E7E987498";
shapes = (
{
closed = 1;
nodes = (
(278,736,o),
(171,713,o),
(121,646,cs),
(89,599,o),
(66,514,o),
(66,323,cs),
(66,184,o),
(80,111,o),
(105,62,cs),
(130,16,o),
(187,-6,o),
(273,-6,cs),
(347,-6,o),
(428,9,o),
(476,26,cs),
(525,44,o),
(544,65,o),
(544,95,cs),
(544,133,o),
(507,148,o),
(433,148,cs),
(355,148,o),
(252,132,o),
(186,108,c),
(197,102,l),
(212,166,o),
(205,272,o),
(183,336,c),
(171,324,l),
(237,314,o),
(311,309,o),
(385,309,cs),
(484,309,o),
(521,338,o),
(521,374,cs),
(521,406,o),
(489,432,o),
(402,432,cs),
(333,432,o),
(236,422,o),
(181,411,c),
(186,404,l),
(210,468,o),
(215,543,o),
(203,604,c),
(187,592,l),
(260,587,o),
(331,585,o),
(386,585,cs),
(496,585,o),
(546,611,o),
(546,662,cs),
(546,710,o),
(509,736,o),
(394,736,cs)
);
}
);
width = 572.375;
}
);
metricLeft = H;
unicode = 69;
},
{
color = 4;
glyphname = F;
kernLeft = LAT_UC_Stem;
kernRight = LAT_UC_F;
lastChange = "2021-09-01 15:54:12 +0000";
layers = (
{
anchors = (
{
name = bottom;
pos = (222,0);
},
{
name = top;
pos = (222,730);
}
);
background = {
shapes = (
{
closed = 1;
nodes = (
(208,736,o),
(110,711,o),
(62,645,cs),
(28,599,o),
(5,514,o),
(5,323,cs),
(5,177,o),
(18,102,o),
(44,50,cs),
(66,7,o),
(98,-6,o),
(139,-6,cs),
(205,-6,o),
(246,21,o),
(246,107,cs),
(246,164,o),
(228,226,o),
(211,253,c),
(172,251,l),
(224,241,o),
(276,236,o),
(319,236,cs),
(417,236,o),
(453,279,o),
(453,334,cs),
(453,385,o),
(422,424,o),
(336,424,cs),
(291,424,o),
(229,414,o),
(195,403,c),
(211,396,l),
(218,446,o),
(218,496,o),
(209,531,c),
(199,508,l),
(241,503,o),
(280,501,o),
(311,501,cs),
(425,501,o),
(478,539,o),
(478,624,cs),
(478,693,o),
(446,736,o),
(328,736,cs)
);
}
);
};
layerId = m004;
shapes = (
{
closed = 1;
nodes = (
(212,716,o),
(126,685,o),
(82,625,cs),
(48,579,o),
(25,475,o),
(25,293,cs),
(25,157,o),
(34,79,o),
(51,39,cs),
(68,-4,o),
(102,-26,o),
(149,-26,cs),
(215,-26,o),
(256,16,o),
(256,107,cs),
(256,175,o),
(238,251,o),
(221,283,c),
(192,291,l),
(231,248,o),
(270,226,o),
(309,226,cs),
(366,226,o),
(393,264,o),
(393,314,cs),
(393,394,o),
(344,424,o),
(195,433,c),
(211,426,l),
(218,458,o),
(218,489,o),
(209,511,c),
(199,505,l),
(218,502,o),
(237,501,o),
(251,501,cs),
(358,501,o),
(408,536,o),
(408,614,cs),
(408,677,o),
(374,716,o),
(288,716,cs)
);
}
);
width = 413;
},
{
anchors = (
{
name = bottom;
pos = (252,0);
},
{
name = top;
pos = (252,730);
}
);
layerId = "4BA625B0-8927-4B2E-B2D8-0167ED5E0445";
shapes = (
{
closed = 1;
nodes = (
(263,716,o),
(132,693,o),
(82,625,cs),
(48,579,o),
(25,475,o),
(25,293,cs),
(25,157,o),
(34,79,o),
(51,39,cs),
(68,-6,o),
(110,-26,o),
(164,-26,cs),
(239,-26,o),
(286,16,o),
(286,107,cs),
(286,175,o),
(268,251,o),
(251,283,c),
(202,281,l),
(270,238,o),
(337,216,o),
(404,216,cs),
(481,216,o),
(518,254,o),
(518,304,cs),
(518,395,o),
(449,428,o),
(235,438,c),
(241,426,l),
(248,458,o),
(248,489,o),
(239,511,c),
(239,475,l),
(268,472,o),
(295,471,o),
(316,471,cs),
(464,471,o),
(533,511,o),
(533,599,cs),
(533,671,o),
(487,716,o),
(368,716,cs)
);
}
);
width = 538;
},
{
anchors = (
{
name = bottom;
pos = (230,0);
},
{
name = top;
pos = (230,730);
}
);
layerId = "D96CDDDD-AAEE-4FD8-A377-74226937908C";
shapes = (
{
closed = 1;
nodes = (
(217,716,o),
(147,688,o),
(112,640,cs),
(77,593,o),
(55,483,o),
(55,293,cs),
(55,164,o),
(66,69,o),
(81,24,cs),
(93,-9,o),
(112,-26,o),
(142,-26,cs),
(184,-26,o),
(211,6,o),
(211,77,cs),
(211,159,o),
(192,275,o),
(174,328,c),
(160,329,l),
(212,280,o),
(264,256,o),
(302,256,cs),
(343,256,o),
(363,281,o),
(363,314,cs),
(363,366,o),
(315,404,o),
(165,418,c),
(175,404,l),
(187,465,o),
(188,539,o),
(179,586,c),
(169,575,l),
(202,570,o),
(234,569,o),
(259,569,cs),
(339,569,o),
(378,592,o),
(378,644,cs),
(378,688,o),
(353,716,o),
(288,716,cs)
);
}
);
width = 394;
},
{
anchors = (
{
name = bottom;
pos = (248,0);
},
{
name = top;
pos = (248,730);
}
);
layerId = "1C59D977-65E2-41C6-912A-276E7E987498";
shapes = (
{
closed = 1;
nodes = (
(278,716,o),
(164,696,o),
(123,640,cs),
(89,593,o),
(66,483,o),
(66,293,cs),
(66,164,o),
(77,69,o),
(92,24,cs),
(104,-9,o),
(125,-26,o),
(157,-26,cs),
(202,-26,o),
(230,6,o),
(230,77,cs),
(230,159,o),
(210,275,o),
(193,328,c),
(171,326,l),
(264,264,o),
(355,231,o),
(422,231,cs),
(468,231,o),
(491,256,o),
(491,289,cs),
(491,352,o),
(415,402,o),
(184,419,c),
(194,404,l),
(206,465,o),
(207,539,o),
(198,586,c),
(188,567,l),
(247,563,o),
(305,561,o),
(349,561,cs),
(455,561,o),
(506,585,o),
(506,640,cs),
(506,687,o),
(471,716,o),
(382,716,cs)
);
}
);
width = 528;
}
);
metricLeft = H;
metricRight = T;
unicode = 70;
},
{
color = 4;
glyphname = G;
kernLeft = LAT_UC_Round;
kernRight = LAT_UC_G;
lastChange = "2021-09-01 15:22:14 +0000";
layers = (
{
anchors = (
{
name = bottom;
pos = (284,0);
},
{
name = top;
pos = (284,730);
}
);
background = {
shapes = (
{
closed = 1;
nodes = (
(431,280,l),
(491,289,o),
(516,318,o),
(516,359,cs),
(516,392,o),
(497,418,o),
(458,428,cs),
(438,433,o),
(414,437,o),
(385,437,cs),
(340,437,o),
(306,426,o),
(280,413,cs),
(246,397,o),
(231,367,o),
(231,336,cs),
(231,291,o),
(250,268,o),
(314,268,cs),
(325,268,o),
(339,268,o),
(353,270,c)
);
},
{
closed = 1;
nodes = (
(319,284,l),
(321,272,o),
(322,261,o),
(322,249,cs),
(322,187,o),
(315,157,o),
(282,157,cs),
(235,157,o),
(203,208,o),
(203,329,cs),
(203,460,o),
(256,508,o),
(319,508,cs),
(341,508,o),
(368,503,o),
(391,503,cs),
(457,503,o),
(493,538,o),
(493,596,cs),
(493,684,o),
(437,730,o),
(336,730,cs),
(141,730,o),
(15,565,o),
(15,331,cs),
(15,124,o),
(101,-11,o),
(281,-11,cs),
(426,-11,o),
(487,87,o),
(487,185,cs),
(487,233,o),
(471,269,o),
(431,294,c)
);
}
);
};
layerId = m004;
shapes = (
{
closed = 1;
nodes = (
(431,280,l),
(491,289,o),
(516,318,o),
(516,359,cs),
(516,419,o),
(464,437,o),
(395,437,cs),
(356,437,o),
(312,428,o),
(280,413,cs),
(246,397,o),
(231,367,o),
(231,336,cs),
(231,291,o),
(250,268,o),
(314,268,cs),
(325,268,o),
(339,268,o),
(353,270,c)
);
},
{
closed = 1;
nodes = (
(319,284,l),
(321,272,o),
(322,261,o),
(322,249,cs),
(322,187,o),
(315,157,o),
(282,157,cs),
(235,157,o),
(203,208,o),
(203,329,cs),
(203,460,o),
(256,508,o),
(319,508,cs),
(341,508,o),
(368,503,o),
(391,503,cs),
(457,503,o),
(493,538,o),
(493,596,cs),
(493,684,o),
(437,730,o),
(336,730,cs),
(141,730,o),
(15,565,o),
(15,331,cs),
(15,124,o),
(101,-11,o),
(281,-11,cs),
(426,-11,o),
(487,87,o),
(487,185,cs),
(487,233,o),
(471,269,o),
(431,294,c)
);
}
);
width = 518;
},
{
anchors = (
{
name = bottom;
pos = (344,0);
},
{
name = top;
pos = (344,730);
}
);
layerId = "4BA625B0-8927-4B2E-B2D8-0167ED5E0445";
shapes = (
{
closed = 1;
nodes = (
(611,265,l),
(682,274,o),
(711,303,o),
(711,344,cs),
(711,391,o),
(659,422,o),
(545,422,cs),
(466,422,o),
(408,410,o),
(370,391,cs),
(329,370,o),
(306,345,o),
(306,314,cs),
(306,269,o),
(339,253,o),
(449,253,cs),
(474,253,o),
(501,253,o),
(533,255,c)
);
},
{
closed = 1;
nodes = (
(499,329,l),
(501,317,o),
(502,306,o),
(502,294,cs),
(502,222,o),
(483,187,o),
(387,187,cs),
(297,187,o),
(233,229,o),
(233,329,cs),
(233,438,o),
(307,478,o),
(394,478,cs),
(434,478,o),
(484,473,o),
(526,473,cs),
(612,473,o),
(658,514,o),
(658,581,cs),
(658,680,o),
(581,730,o),
(441,730,cs),
(183,730,o),
(15,565,o),
(15,331,cs),
(15,124,o),
(130,-11,o),
(371,-11,cs),
(590,-11,o),
(682,87,o),
(682,185,cs),
(682,227,o),
(666,257,o),
(626,279,c)
);
}
);
width = 713;
},
{
anchors = (
{
name = bottom;
pos = (217,0);
},
{
name = top;
pos = (217,730);
}
);
layerId = "D96CDDDD-AAEE-4FD8-A377-74226937908C";
shapes = (
{
closed = 1;
nodes = (
(409,288,l),
(458,295,o),
(479,317,o),
(479,350,cs),
(479,392,o),
(445,406,o),
(385,406,cs),
(341,406,o),
(293,397,o),
(258,380,cs),
(230,367,o),
(216,347,o),
(216,325,cs),
(216,292,o),
(231,276,o),
(269,276,cs),
(289,276,o),
(312,277,o),
(338,282,c)
);
},
{
closed = 1;
nodes = (
(321,292,l),
(333,259,o),
(339,223,o),
(339,200,cs),
(339,141,o),
(324,112,o),
(282,112,cs),
(209,112,o),
(158,177,o),
(158,329,cs),
(158,520,o),
(225,591,o),
(304,591,cs),
(336,591,o),
(356,586,o),
(376,586,cs),
(418,586,o),
(441,606,o),
(441,641,cs),
(441,689,o),
(398,730,o),
(321,730,cs),
(149,730,o),
(38,565,o),
(38,331,cs),
(38,124,o),
(114,-11,o),
(274,-11,cs),
(403,-11,o),
(457,80,o),
(457,170,cs),
(457,208,o),
(443,257,o),
(409,302,c)
);
}
);
width = 495.5;
},
{
anchors = (
{
name = bottom;
pos = (378,0);
},
{
name = top;
pos = (378,730);
}
);
layerId = "1C59D977-65E2-41C6-912A-276E7E987498";
shapes = (
{
closed = 1;
nodes = (
(601,284,l),
(662,291,o),
(687,315,o),
(687,349,cs),
(687,391,o),
(633,404,o),
(540,404,cs),
(468,404,o),
(393,389,o),
(359,374,cs),
(329,360,o),
(314,341,o),
(314,319,cs),
(314,284,o),
(338,272,o),
(427,272,cs),
(458,272,o),
(491,273,o),
(531,278,c)
);
},
{
closed = 1;
nodes = (
(514,303,l),
(526,270,o),
(532,234,o),
(532,211,cs),
(532,149,o),
(501,120,o),
(410,120,cs),
(273,120,o),
(177,185,o),
(177,339,cs),
(177,518,o),
(286,583,o),
(414,583,cs),
(484,583,o),
(528,556,o),
(570,556,cs),
(617,556,o),
(642,578,o),
(642,615,cs),
(642,676,o),
(570,730,o),
(439,730,cs),
(202,730,o),
(49,569,o),
(49,341,cs),
(49,128,o),
(162,-11,o),
(397,-11,cs),
(578,-11,o),
(653,80,o),
(653,170,cs),
(653,206,o),
(640,254,o),
(605,298,c)
);
}
);
width = 704;
}
);
metricLeft = O;
unicode = 71;
},
{
color = 4;
glyphname = H;
kernLeft = LAT_UC_Stem;
kernRight = LAT_UC_Stem;
lastChange = "2021-09-01 14:34:40 +0000";
layers = (
{
anchors = (
{
name = bottom;
pos = (282,0);
},
{
name = center;
pos = (282,365);
},
{
name = top;
pos = (282,730);
},
{
name = topleft;
pos = (20,730);
}
);
layerId = m004;
shapes = (
{
closed = 1;
nodes = (
(102,735,o),
(69,689,o),
(52,614,cs),
(35,541,o),
(25,435,o),
(25,327,cs),
(25,239,o),
(30,155,o),
(40,102,cs),
(56,20,o),
(90,-8,o),
(149,-8,cs),
(214,-8,o),
(256,32,o),
(256,122,cs),
(256,193,o),
(237,264,o),
(208,331,c),
(191,305,l),
(248,285,o),
(310,284,o),
(365,305,c),
(329,328,l),
(311,263,o),
(300,195,o),
(300,134,cs),
(300,36,o),
(328,-5,o),
(399,-5,cs),
(473,-5,o),
(504,34,o),
(519,123,cs),
(532,201,o),
(538,295,o),
(538,383,cs),
(538,471,o),
(530,565,o),
(517,625,cs),
(501,702,o),
(469,741,o),
(403,741,cs),
(341,741,o),
(309,701,o),
(309,624,cs),
(309,573,o),
(315,503,o),
(328,436,c),
(361,438,l),
(310,463,o),
(243,465,o),
(184,442,c),
(215,429,l),
(240,492,o),
(254,567,o),
(254,622,cs),
(254,697,o),
(223,735,o),
(168,735,cs)
);
}
);
width = 563;
},
{
anchors = (
{
name = bottom;
pos = (344,0);
},
{
name = center;
pos = (344,365);
},
{
name = top;
pos = (344,730);
},
{
name = topleft;
pos = (20,730);
}
);
layerId = "4BA625B0-8927-4B2E-B2D8-0167ED5E0445";
shapes = (
{
closed = 1;
nodes = (
(108,735,o),
(69,689,o),
(52,614,cs),
(35,541,o),
(25,435,o),
(25,327,cs),
(25,239,o),
(30,155,o),
(40,102,cs),
(56,20,o),
(98,-8,o),
(164,-8,cs),
(244,-8,o),
(295,32,o),
(295,122,cs),
(295,193,o),
(273,264,o),
(238,331,c),
(221,305,l),
(300,285,o),
(386,284,o),
(460,305,c),
(424,328,l),
(400,263,o),
(386,195,o),
(386,134,cs),
(386,36,o),
(422,-5,o),
(509,-5,cs),
(592,-5,o),
(629,34,o),
(644,123,cs),
(657,201,o),
(663,295,o),
(663,383,cs),
(663,471,o),
(655,565,o),
(642,625,cs),
(626,702,o),
(588,741,o),
(513,741,cs),
(435,741,o),
(395,701,o),
(395,624,cs),
(395,573,o),
(404,503,o),
(423,436,c),
(456,438,l),
(386,463,o),
(295,465,o),
(214,442,c),
(245,429,l),
(276,492,o),
(293,567,o),
(293,622,cs),
(293,697,o),
(253,735,o),
(183,735,cs)
);
}
);
width = 688;
},
{
anchors = (
{
name = bottom;
pos = (265,0);
},
{
name = center;
pos = (265,365);
},
{
name = top;
pos = (265,730);
},
{
name = topleft;
pos = (20,730);
}
);
layerId = "D96CDDDD-AAEE-4FD8-A377-74226937908C";
shapes = (
{
closed = 1;
nodes = (
(119,735,o),
(97,707,o),
(84,644,cs),
(67,564,o),
(55,446,o),
(55,327,cs),
(55,227,o),
(62,132,o),
(72,72,cs),
(84,11,o),
(104,-8,o),
(143,-8,cs),
(186,-8,o),
(210,19,o),
(210,92,cs),
(210,184,o),
(182,277,o),
(157,364,c),
(155,330,l),
(226,310,o),
(302,309,o),
(370,330,c),
(349,361,l),
(328,275,o),
(316,185,o),
(316,104,cs),
(316,20,o),
(333,-5,o),
(376,-5,cs),
(421,-5,o),
(445,23,o),
(457,93,cs),
(472,180,o),
(476,285,o),
(476,383,cs),
(476,482,o),
(466,581,o),
(452,648,cs),
(438,712,o),
(417,741,o),
(378,741,cs),
(341,741,o),
(325,716,o),
(325,654,cs),
(325,586,o),
(332,493,o),
(348,404,c),
(366,413,l),
(302,438,o),
(222,440,o),
(148,417,c),
(164,397,l),
(195,480,o),
(212,579,o),
(212,652,cs),
(212,710,o),
(193,735,o),
(159,735,cs)
);
}
);
width = 530.5;
},
{
anchors = (
{
name = bottom;
pos = (336,0);
},
{
name = center;
pos = (336,365);
},
{
name = top;
pos = (336,730);
},
{
name = topleft;
pos = (20,730);
}
);
layerId = "1C59D977-65E2-41C6-912A-276E7E987498";
shapes = (
{
closed = 1;
nodes = (
(132,735,o),
(108,707,o),
(95,644,cs),
(78,564,o),
(66,446,o),
(66,327,cs),
(66,227,o),
(73,132,o),
(84,72,cs),
(95,11,o),
(118,-8,o),
(158,-8,cs),
(205,-8,o),
(231,19,o),
(231,92,cs),
(231,184,o),
(202,277,o),
(176,364,c),
(174,330,l),
(278,310,o),
(391,309,o),
(493,330,c),
(472,361,l),
(449,275,o),
(436,185,o),
(436,104,cs),
(436,20,o),
(455,-5,o),
(503,-5,cs),
(550,-5,o),
(575,23,o),
(587,93,cs),
(602,180,o),
(606,285,o),
(606,383,cs),
(606,482,o),
(596,581,o),
(582,648,cs),
(568,712,o),
(546,741,o),
(504,741,cs),
(463,741,o),
(445,716,o),
(445,654,cs),
(445,586,o),
(453,493,o),
(471,404,c),
(489,413,l),
(395,438,o),
(274,440,o),
(167,417,c),
(183,397,l),
(215,480,o),
(233,579,o),
(233,652,cs),
(233,710,o),
(212,735,o),
(174,735,cs)
);
}
);
width = 672;
}
);
metricRight = "=|";
unicode = 72;
},
{
color = 4;
glyphname = I;
kernLeft = LAT_UC_Stem;
kernRight = LAT_UC_Stem;
lastChange = "2021-09-01 14:34:40 +0000";
layers = (
{
anchors = (
{
name = bottom;
pos = (149,0);
},
{
name = ogonek;
pos = (276,10);
},
{
name = top;
pos = (149,716);
},
{
name = topleft;
pos = (10,730);
}
);
layerId = m004;
shapes = (
{
closed = 1;
nodes = (
(97,725,o),
(64,689,o),
(46,600,cs),
(33,537,o),
(25,435,o),
(25,327,cs),
(25,247,o),
(30,174,o),
(36,136,cs),
(52,44,o),
(90,12,o),
(144,12,cs),
(202,12,o),
(240,53,o),
(258,161,cs),
(268,223,o),
(273,296,o),
(273,377,cs),
(273,465,o),
(267,555,o),
(258,605,cs),
(241,695,o),
(208,725,o),
(153,725,cs)
);
}
);
width = 298;
},
{
anchors = (
{
name = bottom;
pos = (164,0);
},
{
name = ogonek;
pos = (291,10);
},
{
name = top;
pos = (164,716);
},
{
name = topleft;
pos = (25,730);
}
);
layerId = "4BA625B0-8927-4B2E-B2D8-0167ED5E0445";
shapes = (
{
closed = 1;
nodes = (
(105,725,o),
(64,689,o),
(46,600,cs),
(33,537,o),
(25,435,o),
(25,327,cs),
(25,247,o),
(30,174,o),
(36,136,cs),
(52,44,o),
(98,12,o),
(159,12,cs),
(225,12,o),
(270,53,o),
(288,161,cs),
(298,223,o),
(303,296,o),
(303,377,cs),
(303,465,o),
(297,555,o),
(288,605,cs),
(271,695,o),
(231,725,o),
(168,725,cs)
);
}
);
width = 328;
},
{
anchors = (
{
name = bottom;
pos = (134,0);
},
{
name = ogonek;
pos = (261,10);
},
{
name = top;
pos = (134,716);
},
{
name = topleft;
pos = (-5,730);
}
);
layerId = "D96CDDDD-AAEE-4FD8-A377-74226937908C";
shapes = (
{
closed = 1;
nodes = (
(104,725,o),
(89,698,o),
(77,638,cs),
(63,567,o),
(55,458,o),
(55,327,cs),
(55,232,o),
(60,143,o),
(68,91,cs),
(76,34,o),
(92,12,o),
(129,12,cs),
(165,12,o),
(185,38,o),
(197,116,cs),
(207,192,o),
(213,281,o),
(213,377,cs),
(213,488,o),
(207,586,o),
(197,643,cs),
(187,699,o),
(171,725,o),
(138,725,cs)
);
}
);
width = 268;
},
{
anchors = (
{
name = bottom;
pos = (149,0);
},
{
name = ogonek;
pos = (276,10);
},
{
name = top;
pos = (149,716);
},
{
name = topleft;
pos = (10,730);
}
);
layerId = "1C59D977-65E2-41C6-912A-276E7E987498";
shapes = (
{
closed = 1;
nodes = (
(117,725,o),
(100,698,o),
(88,638,cs),
(74,567,o),
(66,458,o),
(66,327,cs),
(66,232,o),
(71,143,o),
(79,91,cs),
(87,34,o),
(106,12,o),
(144,12,cs),
(182,12,o),
(204,38,o),
(215,116,cs),
(226,192,o),
(232,281,o),
(232,377,cs),
(232,488,o),
(226,586,o),
(216,643,cs),
(206,699,o),
(188,725,o),
(153,725,cs)
);
}
);
width = 298;
}
);
metricLeft = H;
metricRight = "=|H";
unicode = 73;
},
{
color = 4;
glyphname = J;
kernLeft = LAT_UC_J;
kernRight = LAT_UC_J;
lastChange = "2021-09-01 17:49:30 +0000";
layers = (
{
anchors = (
{
name = bottom;
pos = (206,0);
},
{
name = top;
pos = (206,730);
}
);
layerId = m004;
shapes = (
{
closed = 1;
nodes = (
(350,543,l),
(361,542,o),
(371,541,o),
(380,541,cs),
(447,541,o),
(476,572,o),
(476,623,cs),
(476,663,o),
(457,690,o),
(421,710,cs),
(391,727,o),
(347,737,o),
(290,737,cs),
(219,737,o),
(163,720,o),
(122,697,cs),
(78,672,o),
(55,633,o),
(55,591,cs),
(55,539,o),
(85,513,o),
(138,513,cs),
(165,513,o),
(199,519,o),
(236,531,c)
);
},
{
closed = 1;
nodes = (
(221,530,l),
(249,447,o),
(261,369,o),
(261,286,cs),
(261,224,o),
(252,187,o),
(230,187,cs),
(217,187,o),
(209,204,o),
(209,243,cs),
(209,267,o),
(215,297,o),
(215,321,cs),
(215,375,o),
(187,411,o),
(136,411,cs),
(65,411,o),
(5,344,o),
(5,221,cs),
(5,72,o),
(77,-11,o),
(221,-11,cs),
(377,-11,o),
(447,115,o),
(447,255,cs),
(447,372,o),
(415,487,o),
(361,569,c)
);
}
);
width = 481;
},
{
anchors = (
{
name = bottom;
pos = (346,0);
},
{
name = top;
pos = (346,730);
}
);
layerId = "4BA625B0-8927-4B2E-B2D8-0167ED5E0445";
shapes = (
{
closed = 1;
nodes = (
(490,513,l),
(501,512,o),
(511,511,o),
(520,511,cs),
(598,511,o),
(631,548,o),
(631,608,cs),
(631,650,o),
(614,684,o),
(576,706,cs),
(543,727,o),
(493,737,o),
(430,737,cs),
(340,737,o),
(267,720,o),
(217,693,cs),
(164,662,o),
(135,620,o),
(135,576,cs),
(135,514,o),
(176,483,o),
(248,483,cs),
(280,483,o),
(318,489,o),
(361,501,c)
);
},
{
closed = 1;
nodes = (
(331,515,l),
(359,447,o),
(371,384,o),
(371,316,cs),
(371,236,o),
(351,187,o),
(295,187,cs),
(260,187,o),
(239,209,o),
(239,258,cs),
(239,278,o),
(245,302,o),
(245,321,cs),
(245,375,o),
(213,411,o),
(151,411,cs),
(73,411,o),
(5,344,o),
(5,221,cs),
(5,72,o),
(95,-11,o),
(276,-11,cs),
(490,-11,o),
(587,129,o),
(587,285,cs),
(587,386,o),
(555,484,o),
(501,554,c)
);
}
);
width = 636;
},
{
anchors = (
{
name = bottom;
pos = (180,0);
},
{
name = top;
pos = (180,730);
}
);
layerId = "D96CDDDD-AAEE-4FD8-A377-74226937908C";
shapes = (
{
closed = 1;
nodes = (
(286,614,l),
(303,611,o),
(319,610,o),
(333,610,cs),
(383,610,o),
(405,631,o),
(405,664,cs),
(405,689,o),
(391,708,o),
(360,721,cs),
(336,732,o),
(305,737,o),
(264,737,cs),
(198,737,o),
(149,725,o),
(116,708,cs),
(76,688,o),
(59,661,o),
(59,632,cs),
(59,601,o),
(81,584,o),
(119,584,cs),
(145,584,o),
(175,590,o),
(210,602,c)
);
},
{
closed = 1;
nodes = (
(195,613,l),
(239,498,o),
(257,393,o),
(257,279,cs),
(257,180,o),
(240,120,o),
(196,120,cs),
(165,120,o),
(151,147,o),
(151,211,cs),
(151,257,o),
(166,309,o),
(166,352,cs),
(166,389,o),
(149,411,o),
(117,411,cs),
(63,411,o),
(16,339,o),
(16,214,cs),
(16,74,o),
(76,-11,o),
(195,-11,cs),
(331,-11,o),
(383,109,o),
(383,270,cs),
(383,413,o),
(343,552,o),
(275,652,c)
);
}
);
width = 421;
},
{
anchors = (
{
name = bottom;
pos = (320,0);
},
{
name = top;
pos = (320,730);
}
);
layerId = "1C59D977-65E2-41C6-912A-276E7E987498";
shapes = (
{
closed = 1;
nodes = (
(426,606,l),
(463,599,o),
(497,595,o),
(529,595,cs),
(582,595,o),
(605,618,o),
(605,652,cs),
(605,679,o),
(591,699,o),
(553,715,cs),
(523,727,o),
(472,737,o),
(404,737,cs),
(302,737,o),
(226,719,o),
(177,695,cs),
(135,673,o),
(116,646,o),
(116,617,cs),
(116,582,o),
(141,565,o),
(184,565,cs),
(230,565,o),
(283,575,o),
(346,594,c)
);
},
{
closed = 1;
nodes = (
(327,609,l),
(371,514,o),
(390,426,o),
(390,331,cs),
(390,200,o),
(356,120,o),
(264,120,cs),
(194,120,o),
(165,159,o),
(165,248,cs),
(165,283,o),
(180,321,o),
(180,352,cs),
(180,389,o),
(161,411,o),
(127,411,cs),
(71,411,o),
(22,347,o),
(22,236,cs),
(22,83,o),
(101,-11,o),
(258,-11,cs),
(449,-11,o),
(523,131,o),
(523,323,cs),
(523,445,o),
(483,563,o),
(415,648,c)
);
}
);
width = 627;
}
);
metricLeft = T;
metricRight = T;
unicode = 74;
},
{
color = 4;
glyphname = K;
kernLeft = LAT_UC_Stem;
kernRight = LAT_UC_K;
lastChange = "2021-09-01 14:37:03 +0000";
layers = (
{
anchors = (
{
name = bottom;
pos = (269,0);
},
{
name = top;
pos = (269,730);
}
);
background = {
shapes = (
{
closed = 1;
nodes = (
(84,718,o),
(60,683,o),
(46,608,cs),
(30,525,o),
(25,411,o),
(25,297,cs),
(25,190,o),
(34,90,o),
(46,50,cs),
(58,10,o),
(78,-10,o),
(117,-10,cs),
(171,-10,o),
(199,23,o),
(212,77,cs),
(221,114,o),
(230,209,o),
(212,291,c),
(205,294,l),
(262,71,o),
(314,1,o),
(386,1,cs),
(441,1,o),
(474,38,o),
(474,94,cs),
(474,198,o),
(411,288,o),
(287,395,c),
(279,369,l),
(426,465,o),
(494,542,o),
(494,636,cs),
(494,690,o),
(464,732,o),
(411,732,cs),
(351,732,o),
(288,672,o),
(213,453,c),
(223,464,l),
(253,655,o),
(219,718,o),
(140,718,cs)
);
}
);
};
layerId = m004;
shapes = (
{
closed = 1;
nodes = (
(171,-10,o),
(199,23,o),
(212,77,cs),
(217,98,o),
(222,138,o),
(222,184,cs),
(222,203,o),
(221,223,o),
(220,244,c),
(223,244,l),
(266,61,o),
(322,1,o),
(386,1,cs),
(441,1,o),
(474,38,o),
(474,94,cs),
(474,198,o),
(411,288,o),
(287,395,c),
(279,369,l),
(426,465,o),
(494,542,o),
(494,636,cs),
(494,690,o),
(464,732,o),
(411,732,cs),
(356,732,o),
(289,677,o),
(232,485,c),
(229,485,l),
(232,521,o),
(234,553,o),
(234,581,cs),
(234,682,o),
(200,718,o),
(140,718,cs),
(84,718,o),
(60,683,o),
(46,608,cs),
(30,525,o),
(25,411,o),
(25,297,cs),
(25,190,o),
(34,90,o),
(46,50,cs),
(58,10,o),
(78,-10,o),
(117,-10,cs)
);
}
);
width = 499;
},
{
anchors = (
{
name = bottom;
pos = (299,0);
},
{
name = top;
pos = (299,730);
}
);
background = {
shapes = (
{
closed = 1;
nodes = (
(90,718,o),
(60,683,o),
(46,608,cs),
(30,525,o),
(25,411,o),
(25,297,cs),
(25,190,o),
(34,90,o),
(46,50,cs),
(58,10,o),
(86,-10,o),
(132,-10,cs),
(195,-10,o),
(229,23,o),
(242,77,cs),
(251,114,o),
(260,209,o),
(257,291,c),
(250,294,l),
(325,71,o),
(395,1,o),
(491,1,cs),
(566,1,o),
(609,44,o),
(609,109,cs),
(609,209,o),
(542,294,o),
(392,395,c),
(384,369,l),
(557,459,o),
(629,533,o),
(629,621,cs),
(629,684,o),
(593,732,o),
(531,732,cs),
(449,732,o),
(363,672,o),
(243,453,c),
(268,479,l),
(283,655,o),
(245,718,o),
(155,718,cs)
);
}
);
};
layerId = "4BA625B0-8927-4B2E-B2D8-0167ED5E0445";
shapes = (
{
closed = 1;
nodes = (
(195,-10,o),
(229,23,o),
(242,77,cs),
(249,106,o),
(258,181,o),
(258,238,cs),
(259,255,o),
(258,273,o),
(257,291,c),
(261,291,l),
(317,77,o),
(395,1,o),
(491,1,cs),
(566,1,o),
(609,44,o),
(609,109,cs),
(609,209,o),
(542,294,o),
(392,395,c),
(384,369,l),
(557,459,o),
(629,533,o),
(629,621,cs),
(629,684,o),
(593,732,o),
(531,732,cs),
(455,732,o),
(362,676,o),
(272,479,c),
(268,479,l),
(270,504,o),
(271,527,o),
(271,547,cs),
(271,672,o),
(232,718,o),
(155,718,cs),
(90,718,o),
(60,683,o),
(46,608,cs),
(30,525,o),
(25,411,o),
(25,297,cs),
(25,190,o),
(34,90,o),
(46,50,cs),
(58,10,o),
(86,-10,o),
(132,-10,cs)
);
}
);
width = 634;
},
{
anchors = (
{
name = bottom;
pos = (277,0);
},
{
name = top;
pos = (277,730);
}
);
background = {
shapes = (
{
closed = 1;
nodes = (
(104,718,o),
(87,690,o),
(77,631,cs),
(62,542,o),
(55,419,o),
(55,297,cs),
(55,183,o),
(63,85,o),
(74,43,cs),
(83,6,o),
(95,-10,o),
(117,-10,cs),
(150,-10,o),
(166,12,o),
(175,47,cs),
(187,101,o),
(193,214,o),
(178,317,c),
(173,318,l),
(258,77,o),
(313,1,o),
(364,1,cs),
(401,1,o),
(422,23,o),
(422,57,cs),
(422,136,o),
(356,238,o),
(232,372,c),
(224,353,l),
(375,498,o),
(442,599,o),
(442,674,cs),
(442,707,o),
(423,732,o),
(389,732,cs),
(341,732,o),
(277,648,o),
(176,408,c),
(182,397,l),
(216,663,o),
(187,718,o),
(140,718,cs)
);
}
);
};
layerId = "D96CDDDD-AAEE-4FD8-A377-74226937908C";
shapes = (
{
closed = 1;
nodes = (
(150,-10,o),
(166,12,o),
(175,47,cs),
(182,77,o),
(187,126,o),
(187,182,cs),
(187,215,o),
(185,250,o),
(181,285,c),
(185,285,l),
(263,70,o),
(315,1,o),
(364,1,cs),
(401,1,o),
(422,23,o),
(422,57,cs),
(422,136,o),
(356,238,o),
(232,372,c),
(224,353,l),
(375,498,o),
(442,599,o),
(442,674,cs),
(442,707,o),
(423,732,o),
(389,732,cs),
(344,732,o),
(284,658,o),
(191,442,c),
(187,442,l),
(194,502,o),
(197,549,o),
(197,586,cs),
(197,692,o),
(173,718,o),
(140,718,cs),
(104,718,o),
(87,690,o),
(77,631,cs),
(62,542,o),
(55,419,o),
(55,297,cs),
(55,183,o),
(63,85,o),
(74,43,cs),
(83,6,o),
(95,-10,o),
(117,-10,cs)
);
}
);
width = 465.25;
},
{
anchors = (
{
name = bottom;
pos = (295,0);
},
{
name = top;
pos = (295,730);
}
);
background = {
shapes = (
{
closed = 1;
nodes = (
(117,718,o),
(98,690,o),
(88,631,cs),
(73,542,o),
(66,419,o),
(66,297,cs),
(66,183,o),
(75,85,o),
(85,43,cs),
(94,6,o),
(108,-10,o),
(132,-10,cs),
(167,-10,o),
(185,12,o),
(193,47,cs),
(206,101,o),
(211,214,o),
(201,317,c),
(195,318,l),
(339,77,o),
(432,1,o),
(514,1,cs),
(556,1,o),
(579,25,o),
(579,60,cs),
(579,139,o),
(469,239,o),
(259,372,c),
(251,353,l),
(495,497,o),
(599,597,o),
(599,670,cs),
(599,705,o),
(579,732,o),
(542,732,cs),
(469,732,o),
(365,648,o),
(194,408,c),
(204,400,l),
(234,663,o),
(205,718,o),
(155,718,cs)
);
}
);
};
layerId = "1C59D977-65E2-41C6-912A-276E7E987498";
shapes = (
{
closed = 1;
nodes = (
(167,-10,o),
(185,12,o),
(193,47,cs),
(201,81,o),
(206,139,o),
(206,204,cs),
(206,236,o),
(205,269,o),
(202,300,c),
(206,300,l),
(344,73,o),
(434,1,o),
(514,1,cs),
(556,1,o),
(579,25,o),
(579,60,cs),
(579,139,o),
(469,239,o),
(259,372,c),
(251,353,l),
(495,497,o),
(599,597,o),
(599,670,cs),
(599,705,o),
(579,732,o),
(542,732,cs),
(471,732,o),
(372,653,o),
(212,433,c),
(208,433,l),
(213,490,o),
(216,537,o),
(216,575,cs),
(216,689,o),
(191,718,o),
(155,718,cs),
(117,718,o),
(98,690,o),
(88,631,cs),
(73,542,o),
(66,419,o),
(66,297,cs),
(66,183,o),
(75,85,o),
(85,43,cs),
(94,6,o),
(108,-10,o),
(132,-10,cs)
);
}
);
width = 622.75;
}
);
metricLeft = H;
unicode = 75;
},
{
color = 4;
glyphname = L;
kernLeft = LAT_UC_Stem;
kernRight = LAT_UC_L;
lastChange = "2021-09-01 14:37:07 +0000";
layers = (
{
anchors = (
{
name = bottom;
pos = (231,0);
},
{
name = center;
pos = (231,365);
},
{
name = top;
pos = (231,730);
},
{
name = topright;
pos = (461,730);
}
);
background = {
shapes = (
{
closed = 1;
nodes = (
(214,736,o),
(111,712,o),
(62,645,cs),
(28,599,o),
(5,514,o),
(5,323,cs),
(5,188,o),
(16,118,o),
(44,70,cs),
(73,20,o),
(119,-6,o),
(219,-6,cs),
(290,-6,o),
(371,7,o),
(416,29,cs),
(459,50,o),
(476,84,o),
(476,132,cs),
(476,208,o),
(435,239,o),
(350,239,cs),
(295,239,o),
(224,229,o),
(178,214,c),
(183,199,l),
(205,233,o),
(205,289,o),
(188,323,c),
(172,293,l),
(224,285,o),
(276,283,o),
(329,286,cs),
(417,291,o),
(453,324,o),
(453,376,cs),
(453,424,o),
(422,461,o),
(336,461,cs),
(285,461,o),
(214,454,o),
(175,445,c),
(191,436,l),
(198,475,o),
(198,514,o),
(189,541,c),
(179,508,l),
(228,503,o),
(275,501,o),
(311,501,cs),
(425,501,o),
(478,541,o),
(478,629,cs),
(478,695,o),
(448,736,o),
(338,736,cs)
);
}
);
};
layerId = m004;
shapes = (
{
closed = 1;
nodes = (
(253,-6,o),
(294,5,o),
(323,20,cs),
(376,48,o),
(406,93,o),
(406,154,cs),
(406,218,o),
(372,255,o),
(312,255,cs),
(270,255,o),
(226,231,o),
(198,184,c),
(205,189,l),
(242,288,o),
(268,412,o),
(268,527,cs),
(268,636,o),
(240,725,o),
(153,725,cs),
(97,725,o),
(64,689,o),
(46,600,cs),
(35,544,o),
(25,434,o),
(25,323,cs),
(25,188,o),
(36,118,o),
(64,70,cs),
(92,21,o),
(134,-6,o),
(214,-6,cs)
);
}
);
width = 411;
},
{
anchors = (
{
name = bottom;
pos = (261,0);
},
{
name = center;
pos = (261,365);
},
{
name = top;
pos = (261,730);
},
{
name = topright;
pos = (491,730);
}
);
layerId = "4BA625B0-8927-4B2E-B2D8-0167ED5E0445";
shapes = (
{
closed = 1;
nodes = (
(319,-6,o),
(401,10,o),
(453,38,cs),
(517,71,o),
(561,131,o),
(561,199,cs),
(561,272,o),
(517,315,o),
(437,315,cs),
(355,315,o),
(269,281,o),
(213,214,c),
(235,219,l),
(272,305,o),
(298,412,o),
(298,512,cs),
(298,629,o),
(267,725,o),
(168,725,cs),
(105,725,o),
(64,689,o),
(46,600,cs),
(35,544,o),
(25,434,o),
(25,323,cs),
(25,188,o),
(36,118,o),
(64,70,cs),
(94,18,o),
(148,-6,o),
(244,-6,cs)
);
}
);
width = 566;
},
{
anchors = (
{
name = bottom;
pos = (239,0);
},
{
name = center;
pos = (239,365);
},
{
name = top;
pos = (239,730);
},
{
name = topright;
pos = (469,730);
}
);
layerId = "D96CDDDD-AAEE-4FD8-A377-74226937908C";
shapes = (
{
closed = 1;
nodes = (
(237,-6,o),
(285,7,o),
(316,22,cs),
(361,43,o),
(384,74,o),
(384,109,cs),
(384,147,o),
(364,169,o),
(325,169,cs),
(278,169,o),
(204,140,o),
(148,94,c),
(162,77,l),
(186,220,o),
(201,398,o),
(201,565,cs),
(201,653,o),
(185,725,o),
(138,725,cs),
(102,725,o),
(80,698,o),
(69,630,cs),
(59,576,o),
(55,469,o),
(55,361,cs),
(55,206,o),
(66,122,o),
(88,69,cs),
(109,17,o),
(139,-6,o),
(199,-6,cs)
);
}
);
width = 399.75;
},
{
anchors = (
{
name = bottom;
pos = (257,0);
},
{
name = center;
pos = (257,365);
},
{
name = top;
pos = (257,730);
},
{
name = topright;
pos = (487,730);
}
);
layerId = "1C59D977-65E2-41C6-912A-276E7E987498";
shapes = (
{
closed = 1;
nodes = (
(303,-6,o),
(386,13,o),
(436,37,cs),
(496,65,o),
(530,105,o),
(530,143,cs),
(530,180,o),
(507,201,o),
(458,201,cs),
(383,201,o),
(264,163,o),
(174,102,c),
(187,84,l),
(207,224,o),
(219,398,o),
(219,561,cs),
(219,651,o),
(203,725,o),
(153,725,cs),
(115,725,o),
(91,698,o),
(80,630,cs),
(70,576,o),
(66,469,o),
(66,361,cs),
(66,206,o),
(80,111,o),
(99,68,cs),
(125,12,o),
(158,-6,o),
(240,-6,cs)
);
}
);
width = 551.625;
}
);
metricLeft = H;
unicode = 76;
},
{
color = 4;
glyphname = M;
kernLeft = LAT_UC_StemSlant;
kernRight = LAT_UC_StemSlant;
lastChange = "2021-09-01 15:28:42 +0000";
layers = (
{
anchors = (
{
name = bottom;
pos = (308,0);
},
{
name = top;
pos = (308,730);
}
);
background = {
shapes = (
{
closed = 1;
nodes = (
(25,66,o),
(60,19,o),
(135,19,cs),
(219,19,o),
(244,92,o),
(244,184,cs),
(244,259,o),
(218,386,o),
(209,479,c),
(211,479,l),
(240,304,o),
(265,265,o),
(301,265,cs),
(341,265,o),
(374,322,o),
(401,467,c),
(403,467,l),
(387,363,o),
(361,243,o),
(361,148,cs),
(361,25,o),
(402,-8,o),
(466,-8,cs),
(542,-8,o),
(591,42,o),
(591,179,cs),
(591,310,o),
(575,485,o),
(549,595,cs),
(528,686,o),
(501,738,o),
(442,738,cs),
(383,738,o),
(342,658,o),
(300,441,c),
(313,446,l),
(267,655,o),
(223,719,o),
(162,719,cs),
(105,719,o),
(76,676,o),
(57,564,cs),
(40,464,o),
(25,284,o),
(25,185,cs)
);
}
);
};
layerId = m004;
shapes = (
{
closed = 1;
nodes = (
(542,-8,o),
(591,42,o),
(591,179,cs),
(591,310,o),
(575,485,o),
(549,595,cs),
(528,686,o),
(501,738,o),
(442,738,cs),
(387,738,o),
(338,668,o),
(309,433,c),
(305,433,l),
(272,663,o),
(219,719,o),
(162,719,cs),
(105,719,o),
(76,676,o),
(57,564,cs),
(40,464,o),
(25,284,o),
(25,185,cs),
(25,66,o),
(60,19,o),
(135,19,cs),
(219,19,o),
(244,92,o),
(244,184,cs),
(244,259,o),
(218,386,o),
(207,479,c),
(211,479,l),
(240,304,o),
(265,265,o),
(301,265,cs),
(341,265,o),
(374,322,o),
(401,467,c),
(405,467,l),
(389,363,o),
(361,243,o),
(361,148,cs),
(361,25,o),
(402,-8,o),
(466,-8,cs)
);
}
);
width = 616;
},
{
anchors = (
{
name = bottom;
pos = (378,0);
},
{
name = top;
pos = (378,730);
}
);
background = {
shapes = (
{
closed = 1;
nodes = (
(35,66,o),
(75,19,o),
(160,19,cs),
(256,19,o),
(284,92,o),
(284,184,cs),
(284,269,o),
(257,413,o),
(239,519,c),
(243,519,l),
(286,311,o),
(319,265,o),
(371,265,cs),
(427,265,o),
(471,333,o),
(509,507,c),
(513,507,l),
(490,390,o),
(461,255,o),
(461,148,cs),
(461,25,o),
(508,-8,o),
(581,-8,cs),
(666,-8,o),
(721,42,o),
(721,179,cs),
(721,310,o),
(705,485,o),
(679,595,cs),
(658,686,o),
(624,738,o),
(557,738,cs),
(498,738,o),
(426,675,o),
(370,501,c),
(383,506,l),
(324,669,o),
(266,719,o),
(187,719,cs),
(123,719,o),
(86,676,o),
(67,564,cs),
(50,464,o),
(35,284,o),
(35,185,cs)
);
}
);
};
layerId = "4BA625B0-8927-4B2E-B2D8-0167ED5E0445";
shapes = (
{
closed = 1;
nodes = (
(676,-8,o),
(731,42,o),
(731,179,cs),
(731,310,o),
(715,485,o),
(689,595,cs),
(668,686,o),
(624,738,o),
(547,738,cs),
(474,738,o),
(411,681,o),
(379,477,c),
(375,477,l),
(341,673,o),
(268,719,o),
(197,719,cs),
(123,719,o),
(76,676,o),
(57,564,cs),
(40,464,o),
(25,284,o),
(25,185,cs),
(25,66,o),
(65,19,o),
(150,19,cs),
(246,19,o),
(274,92,o),
(274,184,cs),
(274,269,o),
(247,413,o),
(229,519,c),
(233,519,l),
(279,311,o),
(315,265,o),
(371,265,cs),
(431,265,o),
(478,333,o),
(519,507,c),
(523,507,l),
(500,390,o),
(471,255,o),
(471,148,cs),
(471,25,o),
(518,-8,o),
(591,-8,cs)
);
}
);
width = 756;
},
{
anchors = (
{
name = bottom;
pos = (303,0);
},
{
name = top;
pos = (303,730);
}
);
background = {
shapes = (
{
closed = 1;
nodes = (
(50,58,o),
(73,19,o),
(123,19,cs),
(178,19,o),
(194,79,o),
(194,154,cs),
(194,266,o),
(186,454,o),
(179,592,c),
(181,592,l),
(215,375,o),
(248,303,o),
(296,303,cs),
(348,303,o),
(391,400,o),
(419,587,c),
(421,587,l),
(411,434,o),
(401,257,o),
(401,118,cs),
(401,19,o),
(428,-8,o),
(469,-8,cs),
(522,-8,o),
(556,34,o),
(556,149,cs),
(556,299,o),
(543,500,o),
(514,625,cs),
(498,697,o),
(480,738,o),
(437,738,cs),
(390,738,o),
(353,646,o),
(295,396,c),
(308,401,l),
(246,644,o),
(208,719,o),
(157,719,cs),
(117,719,o),
(97,684,o),
(82,594,cs),
(63,479,o),
(50,270,o),
(50,155,cs)
);
}
);
};
layerId = "D96CDDDD-AAEE-4FD8-A377-74226937908C";
shapes = (
{
closed = 1;
nodes = (
(517,-8,o),
(551,34,o),
(551,149,cs),
(551,299,o),
(538,500,o),
(509,625,cs),
(493,697,o),
(475,738,o),
(432,738,cs),
(389,738,o),
(355,655,o),
(304,432,c),
(300,432,l),
(245,650,o),
(209,719,o),
(162,719,cs),
(122,719,o),
(102,684,o),
(87,594,cs),
(68,479,o),
(55,270,o),
(55,155,cs),
(55,58,o),
(78,19,o),
(128,19,cs),
(183,19,o),
(199,79,o),
(199,154,cs),
(199,266,o),
(191,454,o),
(182,592,c),
(186,592,l),
(219,375,o),
(250,303,o),
(296,303,cs),
(346,303,o),
(387,400,o),
(414,587,c),
(418,587,l),
(406,434,o),
(396,257,o),
(396,118,cs),
(396,19,o),
(423,-8,o),
(464,-8,cs)
);
}
);
width = 606;
},
{
anchors = (
{
name = bottom;
pos = (368,0);
},
{
name = top;
pos = (368,730);
}
);
background = {
shapes = (
{
closed = 1;
nodes = (
(66,58,o),
(91,19,o),
(143,19,cs),
(201,19,o),
(218,79,o),
(218,154,cs),
(218,268,o),
(210,461,o),
(201,602,c),
(205,602,l),
(260,376,o),
(300,303,o),
(361,303,cs),
(426,303,o),
(478,403,o),
(525,597,c),
(529,597,l),
(518,441,o),
(507,260,o),
(507,118,cs),
(507,19,o),
(536,-8,o),
(579,-8,cs),
(634,-8,o),
(670,34,o),
(670,149,cs),
(670,299,o),
(657,500,o),
(628,625,cs),
(611,697,o),
(592,738,o),
(547,738,cs),
(493,738,o),
(430,650,o),
(360,411,c),
(373,416,l),
(299,647,o),
(239,719,o),
(177,719,cs),
(135,719,o),
(114,684,o),
(98,594,cs),
(79,479,o),
(66,270,o),
(66,155,cs)
);
}
);
};
layerId = "1C59D977-65E2-41C6-912A-276E7E987498";
shapes = (
{
closed = 1;
nodes = (
(634,-8,o),
(670,34,o),
(670,149,cs),
(670,299,o),
(657,500,o),
(628,625,cs),
(611,697,o),
(588,738,o),
(537,738,cs),
(488,738,o),
(432,657,o),
(369,441,c),
(365,441,l),
(298,652,o),
(244,719,o),
(187,719,cs),
(140,719,o),
(114,684,o),
(98,594,cs),
(79,479,o),
(66,270,o),
(66,155,cs),
(66,58,o),
(91,19,o),
(143,19,cs),
(201,19,o),
(218,79,o),
(218,154,cs),
(218,268,o),
(210,461,o),
(201,602,c),
(205,602,l),
(260,376,o),
(300,303,o),
(361,303,cs),
(426,303,o),
(478,403,o),
(525,597,c),
(529,597,l),
(518,441,o),
(507,260,o),
(507,118,cs),
(507,19,o),
(536,-8,o),
(579,-8,cs)
);
}
);
width = 736;
}
);
metricLeft = H;
metricRight = H;
unicode = 77;
},
{
color = 4;
glyphname = N;
kernLeft = LAT_UC_StemSlant;
kernRight = LAT_UC_Stem;
lastChange = "2021-09-01 15:00:26 +0000";
layers = (
{
anchors = (
{
name = bottom;
pos = (306,0);
},
{
name = top;
pos = (306,730);
}
);
layerId = m004;
shapes = (
{
closed = 1;
nodes = (
(85,711,o),
(62,642,o),
(46,512,cs),
(32,397,o),
(25,256,o),
(25,163,cs),
(25,47,o),
(56,-7,o),
(138,-7,cs),
(214,-7,o),
(250,41,o),
(250,168,cs),
(250,271,o),
(235,409,o),
(217,508,c),
(221,508,l),
(333,70,o),
(375,10,o),
(480,10,cs),
(566,10,o),
(586,103,o),
(586,313,cs),
(586,471,o),
(575,597,o),
(543,668,cs),
(523,712,o),
(500,738,o),
(456,738,cs),
(396,738,o),
(363,693,o),
(363,590,cs),
(363,515,o),
(377,373,o),
(393,261,c),
(389,261,l),
(299,621,o),
(243,711,o),
(152,711,cs)
);
}
);
width = 611;
},
{
anchors = (
{
name = bottom;
pos = (336,0);
},
{
name = top;
pos = (336,730);
}
);
layerId = "4BA625B0-8927-4B2E-B2D8-0167ED5E0445";
shapes = (
{
closed = 1;
nodes = (
(96,711,o),
(62,642,o),
(46,512,cs),
(32,402,o),
(25,267,o),
(25,178,cs),
(25,52,o),
(61,-7,o),
(153,-7,cs),
(240,-7,o),
(280,46,o),
(280,183,cs),
(280,264,o),
(265,384,o),
(247,448,c),
(251,448,l),
(382,63,o),
(432,10,o),
(555,10,cs),
(653,10,o),
(676,103,o),
(676,313,cs),
(676,471,o),
(665,597,o),
(633,668,cs),
(613,714,o),
(583,738,o),
(531,738,cs),
(462,738,o),
(423,689,o),
(423,575,cs),
(423,517,o),
(437,396,o),
(453,321,c),
(449,321,l),
(348,633,o),
(285,711,o),
(182,711,cs)
);
}
);
width = 701;
},
{
anchors = (
{
name = bottom;
pos = (291,0);
},
{
name = top;
pos = (291,730);
}
);
layerId = "D96CDDDD-AAEE-4FD8-A377-74226937908C";
shapes = (
{
closed = 1;
nodes = (
(107,711,o),
(91,665,o),
(78,557,cs),
(61,425,o),
(55,262,o),
(55,156,cs),
(55,45,o),
(76,-7,o),
(131,-7,cs),
(177,-7,o),
(198,39,o),
(198,161,cs),
(198,289,o),
(188,470,o),
(176,583,c),
(180,583,l),
(269,198,o),
(351,10,o),
(428,10,cs),
(508,10,o),
(526,118,o),
(526,313,cs),
(526,481,o),
(514,616,o),
(483,691,cs),
(470,722,o),
(455,738,o),
(426,738,cs),
(389,738,o),
(371,697,o),
(371,590,cs),
(371,490,o),
(387,294,o),
(404,156,c),
(400,156,l),
(304,522,o),
(226,711,o),
(160,711,cs)
);
}
);
width = 581;
},
{
anchors = (
{
name = bottom;
pos = (344,0);
},
{
name = top;
pos = (344,730);
}
);
layerId = "1C59D977-65E2-41C6-912A-276E7E987498";
shapes = (
{
closed = 1;
nodes = (
(121,711,o),
(102,665,o),
(89,557,cs),
(73,426,o),
(66,265,o),
(66,159,cs),
(66,46,o),
(88,-7,o),
(146,-7,cs),
(198,-7,o),
(222,40,o),
(222,164,cs),
(222,287,o),
(213,464,o),
(199,568,c),
(203,568,l),
(330,197,o),
(423,10,o),
(518,10,cs),
(601,10,o),
(620,118,o),
(620,313,cs),
(620,481,o),
(607,616,o),
(577,691,cs),
(564,722,o),
(547,738,o),
(516,738,cs),
(472,738,o),
(452,696,o),
(452,586,cs),
(452,491,o),
(468,299,o),
(486,171,c),
(482,171,l),
(346,525,o),
(261,711,o),
(178,711,cs)
);
}
);
width = 686;
}
);
metricLeft = H;
metricRight = H;
unicode = 78;
},
{
color = 4;
glyphname = O;
kernLeft = LAT_UC_Round;
kernRight = LAT_UC_Round;
lastChange = "2021-09-01 18:00:44 +0000";
layers = (
{
anchors = (
{
name = bottom;
pos = (281,0);
},
{
name = center;
pos = (281,365);
},
{
name = ogonek;
pos = (561,10);
},
{
name = top;
pos = (281,689);
},
{
name = topleft;
pos = (-50,730);
},
{
name = topright;
pos = (611,730);
}
);
layerId = m004;
shapes = (
{
closed = 1;
nodes = (
(436,7,o),
(546,134,o),
(546,340,cs),
(546,553,o),
(437,698,o),
(271,698,cs),
(115,698,o),
(15,549,o),
(15,329,cs),
(15,130,o),
(113,7,o),
(266,7,cs)
);
},
{
closed = 1;
nodes = (
(256,251,o),
(238,280,o),
(238,386,cs),
(238,492,o),
(256,521,o),
(284,521,cs),
(312,521,o),
(330,492,o),
(330,386,cs),
(330,280,o),
(312,251,o),
(284,251,cs)
);
}
);
width = 561;
},
{
anchors = (
{
name = bottom;
pos = (386,0);
},
{
name = center;
pos = (386,365);
},
{
name = ogonek;
pos = (666,10);
},
{
name = top;
pos = (386,689);
},
{
name = topleft;
pos = (55,730);
},
{
name = topright;
pos = (716,730);
}
);
layerId = "4BA625B0-8927-4B2E-B2D8-0167ED5E0445";
shapes = (
{
closed = 1;
nodes = (
(606,7,o),
(756,134,o),
(756,340,cs),
(756,553,o),
(607,698,o),
(376,698,cs),
(157,698,o),
(15,549,o),
(15,329,cs),
(15,130,o),
(155,7,o),
(373,7,cs)
);
},
{
closed = 1;
nodes = (
(316,281,o),
(268,326,o),
(268,386,cs),
(268,446,o),
(316,491,o),
(389,491,cs),
(462,491,o),
(510,446,o),
(510,386,cs),
(510,326,o),
(462,281,o),
(389,281,cs)
);
}
);
width = 771;
},
{
anchors = (
{
name = bottom;
pos = (259,0);
},
{
name = center;
pos = (259,365);
},
{
name = ogonek;
pos = (539,10);
},
{
name = top;
pos = (259,689);
},
{
name = topleft;
pos = (-73,730);
},
{
name = topright;
pos = (589,730);
}
);
layerId = "D96CDDDD-AAEE-4FD8-A377-74226937908C";
shapes = (
{
closed = 1;
nodes = (
(392,7,o),
(479,134,o),
(479,340,cs),
(479,553,o),
(392,698,o),
(250,698,cs),
(117,698,o),
(38,549,o),
(38,329,cs),
(38,130,o),
(115,7,o),
(246,7,cs)
);
},
{
closed = 1;
nodes = (
(206,146,o),
(177,225,o),
(177,364,cs),
(177,502,o),
(206,581,o),
(260,581,cs),
(314,581,o),
(344,502,o),
(344,364,cs),
(344,225,o),
(314,146,o),
(260,146,cs)
);
}
);
width = 517;
},
{
anchors = (
{
name = bottom;
pos = (375,0);
},
{
name = center;
pos = (375,365);
},
{
name = ogonek;
pos = (655,10);
},
{
name = top;
pos = (375,689);
},
{
name = topleft;
pos = (44,730);
},
{
name = topright;
pos = (705,730);
}
);
layerId = "1C59D977-65E2-41C6-912A-276E7E987498";
shapes = (
{
closed = 1;
nodes = (
(566,7,o),
(700,134,o),
(700,340,cs),
(700,553,o),
(567,698,o),
(366,698,cs),
(176,698,o),
(49,549,o),
(49,329,cs),
(49,130,o),
(174,7,o),
(363,7,cs)
);
},
{
closed = 1;
nodes = (
(270,154,o),
(195,237,o),
(195,364,cs),
(195,490,o),
(270,574,o),
(376,574,cs),
(484,574,o),
(557,490,o),
(557,364,cs),
(557,237,o),
(484,154,o),
(376,154,cs)
);
}
);
width = 748.5;
}
);
metricRight = "=|";
unicode = 79;
},
{
color = 4;
glyphname = P;
kernLeft = LAT_UC_StemSlant;
kernRight = LAT_UC_P;
lastChange = "2021-09-01 15:53:54 +0000";
layers = (
{
anchors = (
{
name = bottom;
pos = (278,0);
},
{
name = top;
pos = (278,730);
}
);
layerId = m004;
shapes = (
{
closed = 1;
nodes = (
(176,719,o),
(121,669,o),
(85,604,cs),
(46,533,o),
(25,415,o),
(25,247,cs),
(25,60,o),
(50,-7,o),
(141,-7,cs),
(219,-7,o),
(260,44,o),
(260,137,cs),
(260,195,o),
(249,277,o),
(234,322,c),
(210,294,l),
(232,280,o),
(253,275,o),
(272,275,cs),
(375,275,o),
(455,362,o),
(455,498,cs),
(455,630,o),
(396,719,o),
(268,719,cs)
);
},
{
closed = 1;
nodes = (
(230,404,o),
(218,430,o),
(218,466,cs),
(218,531,o),
(245,592,o),
(284,592,cs),
(310,592,o),
(319,564,o),
(319,527,cs),
(319,452,o),
(291,404,o),
(254,404,cs)
);
}
);
width = 465;
},
{
anchors = (
{
name = bottom;
pos = (278,0);
},
{
name = top;
pos = (278,730);
}
);
layerId = "4BA625B0-8927-4B2E-B2D8-0167ED5E0445";
shapes = (
{
closed = 1;
nodes = (
(214,719,o),
(124,675,o),
(85,604,cs),
(46,533,o),
(25,415,o),
(25,247,cs),
(25,60,o),
(53,-7,o),
(156,-7,cs),
(245,-7,o),
(290,44,o),
(290,137,cs),
(290,195,o),
(279,277,o),
(264,322,c),
(255,294,l),
(294,280,o),
(330,275,o),
(362,275,cs),
(497,275,o),
(600,362,o),
(600,498,cs),
(600,630,o),
(519,719,o),
(343,719,cs)
);
},
{
closed = 1;
nodes = (
(264,419,o),
(238,445,o),
(238,481,cs),
(238,531,o),
(284,577,o),
(351,577,cs),
(408,577,o),
(429,549,o),
(429,512,cs),
(429,455,o),
(380,419,o),
(315,419,cs)
);
}
);
width = 610;
},
{
anchors = (
{
name = bottom;
pos = (248,0);
},
{
name = top;
pos = (248,730);
}
);
layerId = "D96CDDDD-AAEE-4FD8-A377-74226937908C";
shapes = (
{
closed = 1;
nodes = (
(191,719,o),
(146,675,o),
(115,619,cs),
(71,539,o),
(55,399,o),
(55,202,cs),
(55,48,o),
(72,-7,o),
(134,-7,cs),
(182,-7,o),
(208,36,o),
(208,115,cs),
(208,179,o),
(197,272,o),
(182,322,c),
(173,309,l),
(203,282,o),
(231,275,o),
(257,275,cs),
(354,275,o),
(430,362,o),
(430,498,cs),
(430,630,o),
(379,719,o),
(268,719,cs)
);
},
{
closed = 1;
nodes = (
(214,389,o),
(199,411,o),
(199,463,cs),
(199,551,o),
(227,615,o),
(271,615,cs),
(304,615,o),
(320,575,o),
(320,522,cs),
(320,436,o),
(290,389,o),
(246,389,cs)
);
}
);
width = 455;
},
{
anchors = (
{
name = bottom;
pos = (293,0);
},
{
name = top;
pos = (293,730);
}
);
layerId = "1C59D977-65E2-41C6-912A-276E7E987498";
shapes = (
{
closed = 1;
nodes = (
(234,719,o),
(160,680,o),
(126,619,cs),
(82,539,o),
(66,399,o),
(66,202,cs),
(66,48,o),
(84,-7,o),
(149,-7,cs),
(200,-7,o),
(226,36,o),
(226,115,cs),
(226,179,o),
(215,272,o),
(200,322,c),
(195,309,l),
(245,282,o),
(293,275,o),
(336,275,cs),
(472,275,o),
(575,362,o),
(575,498,cs),
(575,630,o),
(502,719,o),
(343,719,cs)
);
},
{
closed = 1;
nodes = (
(251,393,o),
(218,415,o),
(218,467,cs),
(218,551,o),
(267,611,o),
(350,611,cs),
(425,611,o),
(459,571,o),
(459,518,cs),
(459,437,o),
(404,393,o),
(324,393,cs)
);
}
);
width = 600;
}
);
metricLeft = H;
unicode = 80;
},
{
color = 4;
glyphname = Q;
kernLeft = LAT_UC_Round;
kernRight = LAT_UC_Q;
lastChange = "2021-09-01 17:49:35 +0000";
layers = (
{
anchors = (
{
name = bottom;
pos = (276,0);
},
{
name = top;
pos = (276,730);
}
);
background = {
shapes = (
{
closed = 1;
nodes = (
(469,7,o),
(606,134,o),
(606,340,cs),
(606,553,o),
(470,698,o),
(261,698,cs),
(63,698,o),
(-65,549,o),
(-65,329,cs),
(-65,130,o),
(61,7,o),
(257,7,cs)
);
},
{
closed = 1;
nodes = (
(216,271,o),
(178,316,o),
(178,386,cs),
(178,456,o),
(216,501,o),
(274,501,cs),
(332,501,o),
(370,456,o),
(370,386,cs),
(370,316,o),
(332,271,o),
(274,271,cs)
);
}
);
};
layerId = m004;
shapes = (
{
closed = 1;
nodes = (
(337,7,o),
(398,33,o),
(425,86,c),
(474,142,l),
(513,195,o),
(536,281,o),
(536,380,cs),
(536,579,o),
(436,726,o),
(281,726,cs),
(120,726,o),
(15,579,o),
(15,337,cs),
(15,123,o),
(112,7,o),
(271,7,cs)
);
},
{
closed = 1;
nodes = (
(545,-18,o),
(574,19,o),
(574,60,cs),
(574,116,o),
(538,149,o),
(477,168,c),
(390,83,l),
(416,18,o),
(456,-18,o),
(493,-18,cs)
);
},
{
closed = 1;
nodes = (
(342,256,l),
(319,320,o),
(301,336,o),
(284,336,cs),
(270,336,o),
(259,326,o),
(259,308,cs),
(259,285,o),
(275,252,o),
(309,213,c)
);
},
{
closed = 1;
nodes = (
(247,231,o),
(218,296,o),
(218,396,cs),
(218,494,o),
(239,541,o),
(271,541,cs),
(309,541,o),
(334,476,o),
(334,376,cs),
(334,333,o),
(330,296,o),
(324,268,c),
(321,240,l),
(313,234,o),
(302,231,o),
(291,231,cs)
);
}
);
width = 551;
},
{
anchors = (
{
name = bottom;
pos = (401,0);
},
{
name = top;
pos = (401,730);
}
);
layerId = "4BA625B0-8927-4B2E-B2D8-0167ED5E0445";
shapes = (
{
closed = 1;
nodes = (
(449,7,o),
(543,33,o),
(595,86,c),
(674,157,l),
(733,207,o),
(766,287,o),
(766,380,cs),
(766,564,o),
(620,726,o),
(396,726,cs),
(165,726,o),
(15,564,o),
(15,337,cs),
(15,138,o),
(145,7,o),
(356,7,cs)
);
},
{
closed = 1;
nodes = (
(769,-18,o),
(804,27,o),
(804,75,cs),
(804,131,o),
(756,164,o),
(677,183,c),
(575,83,l),
(609,18,o),
(661,-18,o),
(708,-18,cs)
);
},
{
closed = 1;
nodes = (
(542,316,l),
(513,388,o),
(477,426,o),
(427,426,cs),
(389,426,o),
(362,403,o),
(362,362,cs),
(362,318,o),
(396,284,o),
(472,252,c)
);
},
{
closed = 1;
nodes = (
(307,261,o),
(248,310,o),
(248,386,cs),
(248,457,o),
(303,511,o),
(386,511,cs),
(475,511,o),
(534,462,o),
(534,386,cs),
(534,361,o),
(528,339,o),
(519,323,c),
(461,270,l),
(442,264,o),
(421,261,o),
(396,261,cs)
);
}
);
width = 781;
},
{
anchors = (
{
name = bottom;
pos = (261,0);
},
{
name = top;
pos = (261,730);
}
);
layerId = "D96CDDDD-AAEE-4FD8-A377-74226937908C";
shapes = (
{
closed = 1;
nodes = (
(309,7,o),
(358,33,o),
(388,79,c),
(422,127,l),
(461,183,o),
(484,275,o),
(484,380,cs),
(484,572,o),
(398,726,o),
(266,726,cs),
(128,726,o),
(38,572,o),
(38,337,cs),
(38,131,o),
(118,7,o),
(249,7,cs)
);
},
{
closed = 1;
nodes = (
(503,-18,o),
(522,5,o),
(522,30,cs),
(522,76,o),
(480,123,o),
(410,161,c),
(353,106,l),
(394,26,o),
(434,-18,o),
(471,-18,cs)
);
},
{
closed = 1;
nodes = (
(357,196,l),
(327,274,o),
(294,314,o),
(265,314,cs),
(248,314,o),
(233,301,o),
(233,279,cs),
(233,245,o),
(264,201,o),
(320,150,c)
);
},
{
closed = 1;
nodes = (
(216,141,o),
(181,229,o),
(181,366,cs),
(181,511,o),
(214,601,o),
(264,601,cs),
(320,601,o),
(357,511,o),
(357,354,cs),
(357,293,o),
(347,241,o),
(332,201,c),
(324,179,l),
(309,152,o),
(290,141,o),
(269,141,cs)
);
}
);
width = 513.5;
},
{
anchors = (
{
name = bottom;
pos = (389,0);
},
{
name = top;
pos = (389,730);
}
);
layerId = "1C59D977-65E2-41C6-912A-276E7E987498";
shapes = (
{
closed = 1;
nodes = (
(471,7,o),
(555,41,o),
(605,101,c),
(658,153,l),
(702,204,o),
(727,286,o),
(727,380,cs),
(727,568,o),
(597,726,o),
(394,726,cs),
(184,726,o),
(49,568,o),
(49,337,cs),
(49,134,o),
(170,7,o),
(369,7,cs)
);
},
{
closed = 1;
nodes = (
(768,-18,o),
(788,7,o),
(788,34,cs),
(788,79,o),
(735,127,o),
(646,164,c),
(585,106,l),
(638,26,o),
(688,-18,o),
(733,-18,cs)
);
},
{
closed = 1;
nodes = (
(582,222,l),
(546,302,o),
(507,347,o),
(460,347,cs),
(432,347,o),
(411,330,o),
(411,298,cs),
(411,260,o),
(458,207,o),
(536,171,c)
);
},
{
closed = 1;
nodes = (
(278,149,o),
(199,234,o),
(199,366,cs),
(199,503,o),
(276,594,o),
(391,594,cs),
(512,594,o),
(593,507,o),
(593,354,cs),
(593,302,o),
(583,257,o),
(568,223,c),
(538,198,l),
(498,164,o),
(451,149,o),
(396,149,cs)
);
}
);
width = 779.75;
}
);
metricLeft = O;
unicode = 81;
},
{
color = 4;
glyphname = R;
kernLeft = LAT_UC_StemSlant;
kernRight = LAT_UC_R;
lastChange = "2021-09-08 16:34:08 +0000";
layers = (
{
anchors = (
{
name = bottom;
pos = (290,0);
},
{
name = top;
pos = (290,730);
}
);
background = {
shapes = (
{
closed = 1;
nodes = (
(218,-7,o),
(250,43,o),
(250,137,cs),
(250,186,o),
(242,254,o),
(233,292,c),
(235,292,l),
(313,70,o),
(367,5,o),
(456,5,cs),
(530,5,o),
(575,49,o),
(575,118,cs),
(575,204,o),
(507,274,o),
(335,329,c),
(291,316,l),
(438,301,o),
(580,364,o),
(580,528,cs),
(580,654,o),
(502,739,o),
(333,739,cs),
(230,739,o),
(138,708,o),
(80,624,cs),
(30,552,o),
(5,430,o),
(5,257,cs),
(5,63,o),
(32,-7,o),
(131,-7,cs)
);
},
{
closed = 1;
nodes = (
(260,434,o),
(235,463,o),
(235,504,cs),
(235,550,o),
(267,592,o),
(316,592,cs),
(359,592,o),
(378,560,o),
(378,518,cs),
(378,466,o),
(347,434,o),
(302,434,cs)
);
}
);
};
layerId = m004;
shapes = (
{
closed = 1;
nodes = (
(203,-7,o),
(230,43,o),
(230,137,cs),
(230,186,o),
(222,254,o),
(213,292,c),
(215,292,l),
(275,70,o),
(318,5,o),
(387,5,cs),
(443,5,o),
(475,45,o),
(475,108,cs),
(475,189,o),
(435,258,o),
(326,315,c),
(326,317,l),
(415,352,o),
(480,418,o),
(480,548,cs),
(480,662,o),
(418,739,o),
(283,739,cs),
(208,739,o),
(149,715,o),
(100,644,cs),
(49,571,o),
(25,445,o),
(25,257,cs),
(25,63,o),
(48,-7,o),
(131,-7,cs)
);
},
{
closed = 1;
nodes = (
(231,414,o),
(220,439,o),
(220,474,cs),
(220,541,o),
(245,602,o),
(283,602,cs),
(303,602,o),
(313,575,o),
(313,538,cs),
(313,461,o),
(287,414,o),
(250,414,cs)
);
}
);
width = 493;
},
{
anchors = (
{
name = bottom;
pos = (320,0);
},
{
name = top;
pos = (320,730);
}
);
layerId = "4BA625B0-8927-4B2E-B2D8-0167ED5E0445";
shapes = (
{
closed = 1;
nodes = (
(256,-7,o),
(290,43,o),
(290,137,cs),
(290,186,o),
(282,254,o),
(273,292,c),
(277,292,l),
(362,70,o),
(422,5,o),
(521,5,cs),
(604,5,o),
(655,51,o),
(655,123,cs),
(655,198,o),
(594,263,o),
(431,313,c),
(431,317,l),
(564,321,o),
(660,391,o),
(660,518,cs),
(660,650,o),
(574,739,o),
(388,739,cs),
(271,739,o),
(163,705,o),
(100,614,cs),
(51,543,o),
(25,423,o),
(25,257,cs),
(25,63,o),
(54,-7,o),
(161,-7,cs)
);
},
{
closed = 1;
nodes = (
(305,444,o),
(273,475,o),
(273,519,cs),
(273,555,o),
(308,587,o),
(363,587,cs),
(417,587,o),
(441,553,o),
(441,508,cs),
(441,469,o),
(407,444,o),
(358,444,cs)
);
}
);
width = 673;
},
{
anchors = (
{
name = bottom;
pos = (271,0);
},
{
name = top;
pos = (271,730);
}
);
layerId = "D96CDDDD-AAEE-4FD8-A377-74226937908C";
shapes = (
{
closed = 1;
nodes = (
(178,-7,o),
(196,33,o),
(196,107,cs),
(196,166,o),
(188,247,o),
(179,292,c),
(181,292,l),
(271,78,o),
(338,5,o),
(388,5,cs),
(425,5,o),
(446,28,o),
(446,63,cs),
(446,125,o),
(393,215,o),
(262,314,c),
(262,316,l),
(366,314,o),
(451,387,o),
(451,541,cs),
(451,659,o),
(400,739,o),
(287,739,cs),
(222,739,o),
(173,714,o),
(130,652,cs),
(73,570,o),
(55,417,o),
(55,205,cs),
(55,49,o),
(71,-7,o),
(131,-7,cs)
);
},
{
closed = 1;
nodes = (
(212,399,o),
(198,435,o),
(198,485,cs),
(198,562,o),
(224,632,o),
(273,632,cs),
(310,632,o),
(329,592,o),
(329,533,cs),
(329,450,o),
(291,399,o),
(243,399,cs)
);
}
);
width = 479;
},
{
anchors = (
{
name = bottom;
pos = (319,0);
},
{
name = top;
pos = (319,730);
}
);
layerId = "1C59D977-65E2-41C6-912A-276E7E987498";
shapes = (
{
closed = 1;
nodes = (
(199,-7,o),
(218,33,o),
(218,107,cs),
(218,166,o),
(210,247,o),
(201,292,c),
(205,292,l),
(350,78,o),
(459,5,o),
(539,5,cs),
(583,5,o),
(609,29,o),
(609,67,cs),
(609,128,o),
(518,216,o),
(294,312,c),
(294,316,l),
(472,295,o),
(614,369,o),
(614,533,cs),
(614,656,o),
(539,739,o),
(376,739,cs),
(280,739,o),
(194,710,o),
(141,633,cs),
(86,553,o),
(66,406,o),
(66,205,cs),
(66,49,o),
(84,-7,o),
(150,-7,cs)
);
},
{
closed = 1;
nodes = (
(251,407,o),
(217,444,o),
(217,496,cs),
(217,566,o),
(264,628,o),
(351,628,cs),
(436,628,o),
(479,587,o),
(479,525,cs),
(479,452,o),
(410,407,o),
(324,407,cs)
);
}
);
width = 647;
}
);
metricLeft = H;
metricRight = "=H*0.5";
unicode = 82;
},
{
color = 4;
glyphname = S;
kernLeft = LAT_UC_S;
kernRight = LAT_UC_S;
lastChange = "2021-09-08 13:42:58 +0000";
layers = (
{
anchors = (
{
name = bottom;
pos = (224,0);
},
{
name = top;
pos = (224,730);
}
);
layerId = m004;
shapes = (
{
closed = 1;
nodes = (
(322,-3,o),
(415,87,o),
(415,221,cs),
(415,311,o),
(379,376,o),
(257,423,cs),
(203,444,o),
(187,456,o),
(187,474,cs),
(187,488,o),
(196,495,o),
(214,495,cs),
(233,495,o),
(275,486,o),
(302,486,cs),
(394,486,o),
(437,534,o),
(437,603,cs),
(437,691,o),
(379,736,o),
(287,736,cs),
(182,736,o),
(29,675,o),
(29,489,cs),
(29,396,o),
(66,353,o),
(164,308,cs),
(211,286,o),
(227,267,o),
(227,247,cs),
(227,225,o),
(215,214,o),
(191,214,cs),
(180,214,o),
(147,217,o),
(124,217,cs),
(44,217,o),
(10,181,o),
(10,122,cs),
(10,35,o),
(101,-3,o),
(188,-3,cs)
);
}
);
width = 447;
},
{
anchors = (
{
name = bottom;
pos = (284,0);
},
{
name = top;
pos = (284,730);
}
);
layerId = "4BA625B0-8927-4B2E-B2D8-0167ED5E0445";
shapes = (
{
closed = 1;
nodes = (
(434,-3,o),
(555,87,o),
(555,221,cs),
(555,321,o),
(497,387,o),
(327,428,cs),
(259,444,o),
(242,456,o),
(242,473,cs),
(242,488,o),
(257,495,o),
(289,495,cs),
(321,495,o),
(395,486,o),
(442,486,cs),
(534,486,o),
(577,534,o),
(577,603,cs),
(577,691,o),
(497,736,o),
(372,736,cs),
(233,736,o),
(29,675,o),
(29,489,cs),
(29,386,o),
(83,335,o),
(224,309,cs),
(287,297,o),
(312,291,o),
(312,270,cs),
(312,255,o),
(297,244,o),
(266,244,cs),
(232,244,o),
(171,256,o),
(124,256,cs),
(44,256,o),
(10,222,o),
(10,152,cs),
(10,32,o),
(141,-3,o),
(258,-3,cs)
);
}
);
width = 587;
},
{
anchors = (
{
name = bottom;
pos = (217,0);
},
{
name = top;
pos = (217,730);
}
);
layerId = "D96CDDDD-AAEE-4FD8-A377-74226937908C";
shapes = (
{
closed = 1;
nodes = (
(301,-3,o),
(385,81,o),
(385,206,cs),
(385,296,o),
(350,351,o),
(250,403,cs),
(182,439,o),
(165,466,o),
(165,505,cs),
(165,561,o),
(189,585,o),
(232,585,cs),
(271,585,o),
(303,576,o),
(325,576,cs),
(381,576,o),
(407,605,o),
(407,648,cs),
(407,702,o),
(354,736,o),
(280,736,cs),
(181,736,o),
(44,678,o),
(44,504,cs),
(44,407,o),
(83,362,o),
(172,316,cs),
(237,281,o),
(257,252,o),
(257,211,cs),
(257,169,o),
(235,144,o),
(189,144,cs),
(156,144,o),
(121,157,o),
(94,157,cs),
(46,157,o),
(25,133,o),
(25,90,cs),
(25,21,o),
(113,-3,o),
(181,-3,cs)
);
}
);
width = 432;
},
{
anchors = (
{
name = bottom;
pos = (288,0);
},
{
name = top;
pos = (288,730);
}
);
layerId = "1C59D977-65E2-41C6-912A-276E7E987498";
shapes = (
{
closed = 1;
nodes = (
(420,-3,o),
(528,81,o),
(528,206,cs),
(528,296,o),
(479,356,o),
(321,404,cs),
(192,446,o),
(176,468,o),
(176,505,cs),
(176,561,o),
(222,585,o),
(303,585,cs),
(374,585,o),
(430,565,o),
(467,565,cs),
(523,565,o),
(550,594,o),
(550,637,cs),
(550,697,o),
(469,736,o),
(355,736,cs),
(226,736,o),
(44,676,o),
(44,493,cs),
(44,402,o),
(101,353,o),
(243,316,cs),
(367,280,o),
(388,257,o),
(388,219,cs),
(388,177,o),
(352,152,o),
(275,152,cs),
(223,152,o),
(162,170,o),
(117,170,cs),
(52,170,o),
(25,147,o),
(25,102,cs),
(25,14,o),
(176,-3,o),
(263,-3,cs)
);
}
);
width = 575;
}
);
metricRight = "=|";
unicode = 83;
},
{
color = 4;
glyphname = T;
kernLeft = LAT_UC_T;
kernRight = LAT_UC_T;
lastChange = "2021-09-01 18:00:07 +0000";
layers = (
{
anchors = (
{
name = bottom;
pos = (229,0);
},
{
name = center;
pos = (229,365);
},
{
name = top;
pos = (229,730);
}
);
layerId = m004;
shapes = (
{
closed = 1;
nodes = (
(179,735,o),
(118,722,o),
(80,703,cs),
(26,676,o),
(5,633,o),
(5,576,cs),
(5,512,o),
(31,475,o),
(101,475,cs),
(127,475,o),
(170,482,o),
(195,492,c),
(191,517,l),
(140,420,o),
(92,246,o),
(92,144,cs),
(92,43,o),
(135,-7,o),
(219,-7,cs),
(313,-7,o),
(351,52,o),
(351,156,cs),
(351,240,o),
(321,411,o),
(268,520,c),
(268,492,l),
(300,482,o),
(330,479,o),
(357,479,cs),
(421,479,o),
(453,527,o),
(453,597,cs),
(453,650,o),
(439,690,o),
(383,713,cs),
(351,726,o),
(301,735,o),
(241,735,cs)
);
}
);
width = 458;
},
{
anchors = (
{
name = bottom;
pos = (304,0);
},
{
name = center;
pos = (304,365);
},
{
name = top;
pos = (304,730);
}
);
layerId = "4BA625B0-8927-4B2E-B2D8-0167ED5E0445";
shapes = (
{
closed = 1;
nodes = (
(212,735,o),
(144,724,o),
(95,699,cs),
(32,667,o),
(5,617,o),
(5,554,cs),
(5,481,o),
(39,438,o),
(131,438,cs),
(166,438,o),
(223,449,o),
(255,462,c),
(251,487,l),
(200,398,o),
(152,239,o),
(152,144,cs),
(152,43,o),
(200,-7,o),
(294,-7,cs),
(399,-7,o),
(441,52,o),
(441,156,cs),
(441,233,o),
(411,390,o),
(358,490,c),
(358,462,l),
(401,449,o),
(441,442,o),
(477,442,cs),
(561,442,o),
(603,496,o),
(603,575,cs),
(603,634,o),
(585,681,o),
(518,709,cs),
(474,726,o),
(412,735,o),
(316,735,cs)
);
}
);
width = 608;
},
{
anchors = (
{
name = bottom;
pos = (218,0);
},
{
name = center;
pos = (218,365);
},
{
name = top;
pos = (218,730);
}
);
layerId = "D96CDDDD-AAEE-4FD8-A377-74226937908C";
shapes = (
{
closed = 1;
nodes = (
(160,735,o),
(104,725,o),
(66,708,cs),
(31,693,o),
(16,669,o),
(16,636,cs),
(16,600,o),
(36,579,o),
(90,579,cs),
(122,579,o),
(173,590,o),
(203,603,c),
(185,615,l),
(158,491,o),
(130,268,o),
(130,137,cs),
(130,39,o),
(154,-7,o),
(208,-7,cs),
(268,-7,o),
(290,45,o),
(290,149,cs),
(290,257,o),
(275,477,o),
(252,618,c),
(238,603,l),
(274,589,o),
(308,583,o),
(338,583,cs),
(392,583,o),
(419,610,o),
(419,650,cs),
(419,680,o),
(410,702,o),
(376,715,cs),
(347,727,o),
(298,735,o),
(230,735,cs)
);
}
);
width = 435;
},
{
anchors = (
{
name = bottom;
pos = (299,0);
},
{
name = center;
pos = (299,365);
},
{
name = top;
pos = (299,730);
}
);
layerId = "1C59D977-65E2-41C6-912A-276E7E987498";
shapes = (
{
closed = 1;
nodes = (
(211,735,o),
(137,723,o),
(87,702,cs),
(43,683,o),
(22,660,o),
(22,625,cs),
(22,587,o),
(47,564,o),
(115,564,cs),
(161,564,o),
(236,579,o),
(280,596,c),
(262,607,l),
(235,486,o),
(208,266,o),
(208,137,cs),
(208,39,o),
(232,-7,o),
(289,-7,cs),
(352,-7,o),
(375,45,o),
(375,149,cs),
(375,255,o),
(360,472,o),
(336,610,c),
(323,596,l),
(377,577,o),
(430,568,o),
(476,568,cs),
(542,568,o),
(575,597,o),
(575,640,cs),
(575,669,o),
(561,692,o),
(517,709,cs),
(476,724,o),
(409,735,o),
(311,735,cs)
);
}
);
width = 596.75;
}
);
metricLeft = "=|L";
metricRight = L;
unicode = 84;
},
{
color = 4;
glyphname = U;
kernLeft = LAT_UC_U;
kernRight = LAT_UC_U;
lastChange = "2021-09-07 20:22:27 +0000";
layers = (
{
anchors = (
{
name = bottom;
pos = (284,0);
},
{
name = ogonek;
pos = (526,10);
},
{
name = top;
pos = (284,720);
},
{
name = topright;
pos = (567,730);
}
);
background = {
shapes = (
{
closed = 0;
nodes = (
(-5,314,ls),
(-5,115,o),
(121,-8,o),
(317,-8,cs),
(529,-8,o),
(666,119,o),
(666,325,cs)
);
},
{
closed = 0;
nodes = (
(430,361,ls),
(430,291,o),
(392,246,o),
(334,246,cs),
(276,246,o),
(238,291,o),
(238,361,cs)
);
},
{
closed = 0;
nodes = (
(205,419,l),
(234,485,o),
(250,564,o),
(250,622,cs),
(250,697,o),
(213,735,o),
(148,735,cs),
(76,735,o),
(39,689,o),
(22,614,cs),
(5,541,o),
(-5,435,o),
(-5,327,cs)
);
},
{
closed = 0;
nodes = (
(558,383,ls),
(558,471,o),
(550,565,o),
(537,625,cs),
(521,702,o),
(485,741,o),
(413,741,cs),
(340,741,o),
(303,701,o),
(303,624,cs),
(303,570,o),
(311,497,o),
(328,426,c)
);
}
);
};
layerId = m004;
shapes = (
{
closed = 1;
nodes = (
(444,-8,o),
(522,89,o),
(522,325,cs),
(522,420,o),
(514,544,o),
(500,615,cs),
(485,692,o),
(455,731,o),
(392,731,cs),
(332,731,o),
(302,691,o),
(302,614,cs),
(302,558,o),
(323,374,o),
(323,300,cs),
(323,249,o),
(307,226,o),
(276,226,cs),
(244,226,o),
(225,247,o),
(225,300,cs),
(225,379,o),
(250,552,o),
(250,612,cs),
(250,680,o),
(219,715,o),
(163,715,cs),
(100,715,o),
(69,669,o),
(52,594,cs),
(35,518,o),
(25,397,o),
(25,294,cs),
(25,79,o),
(93,-8,o),
(260,-8,cs)
);
}
);
width = 547;
},
{
anchors = (
{
name = bottom;
pos = (324,0);
},
{
name = ogonek;
pos = (566,10);
},
{
name = top;
pos = (324,720);
},
{
name = topright;
pos = (607,730);
}
);
layerId = "4BA625B0-8927-4B2E-B2D8-0167ED5E0445";
shapes = (
{
closed = 1;
nodes = (
(538,-8,o),
(632,89,o),
(632,325,cs),
(632,420,o),
(624,544,o),
(610,615,cs),
(595,692,o),
(559,731,o),
(487,731,cs),
(414,731,o),
(377,691,o),
(377,614,cs),
(377,564,o),
(403,397,o),
(403,330,cs),
(403,279,o),
(380,256,o),
(331,256,cs),
(284,256,o),
(255,277,o),
(255,330,cs),
(255,402,o),
(300,558,o),
(300,612,cs),
(300,680,o),
(259,715,o),
(188,715,cs),
(110,715,o),
(69,669,o),
(52,594,cs),
(35,518,o),
(25,397,o),
(25,294,cs),
(25,79,o),
(110,-8,o),
(315,-8,cs)
);
}
);
width = 657;
},
{
anchors = (
{
name = bottom;
pos = (262,0);
},
{
name = ogonek;
pos = (504,10);
},
{
name = top;
pos = (262,720);
},
{
name = topright;
pos = (545,730);
}
);
layerId = "D96CDDDD-AAEE-4FD8-A377-74226937908C";
shapes = (
{
closed = 1;
nodes = (
(398,-8,o),
(462,85,o),
(462,310,cs),
(462,420,o),
(455,563,o),
(440,645,cs),
(431,702,o),
(411,731,o),
(370,731,cs),
(331,731,o),
(312,702,o),
(312,644,cs),
(312,581,o),
(338,376,o),
(338,293,cs),
(338,185,o),
(312,136,o),
(261,136,cs),
(205,136,o),
(176,177,o),
(176,293,cs),
(176,405,o),
(221,575,o),
(221,642,cs),
(221,691,o),
(199,715,o),
(161,715,cs),
(115,715,o),
(94,680,o),
(82,624,cs),
(64,537,o),
(55,398,o),
(55,279,cs),
(55,75,o),
(110,-8,o),
(245,-8,cs)
);
}
);
width = 517;
},
{
anchors = (
{
name = bottom;
pos = (320,0);
},
{
name = ogonek;
pos = (562,10);
},
{
name = top;
pos = (320,720);
},
{
name = topright;
pos = (603,730);
}
);
layerId = "1C59D977-65E2-41C6-912A-276E7E987498";
shapes = (
{
closed = 1;
nodes = (
(496,-8,o),
(575,91,o),
(575,333,cs),
(575,435,o),
(567,569,o),
(553,645,cs),
(543,702,o),
(520,731,o),
(473,731,cs),
(432,731,o),
(412,702,o),
(412,644,cs),
(412,587,o),
(438,399,o),
(438,323,cs),
(438,199,o),
(400,144,o),
(323,144,cs),
(243,144,o),
(200,190,o),
(200,323,cs),
(200,426,o),
(245,581,o),
(245,642,cs),
(245,691,o),
(222,715,o),
(182,715,cs),
(130,715,o),
(107,680,o),
(95,624,cs),
(77,543,o),
(66,413,o),
(66,302,cs),
(66,81,o),
(136,-8,o),
(307,-8,cs)
);
}
);
width = 640.75;
}
);
metricLeft = H;
metricRight = H;
unicode = 85;
},
{
color = 4;
glyphname = V;
kernLeft = LAT_UC_V;
kernRight = LAT_UC_V;
lastChange = "2021-09-01 16:53:05 +0000";
layers = (
{
anchors = (
{
name = bottom;
pos = (268,0);
},
{
name = top;
pos = (268,730);
}
);
layerId = m004;
shapes = (
{
closed = 1;
nodes = (
(370,739,o),
(337,694,o),
(320,596,cs),
(304,506,o),
(285,320,o),
(274,183,c),
(270,183,l),
(264,324,o),
(253,488,o),
(245,569,cs),
(235,677,o),
(203,719,o),
(131,719,cs),
(58,719,o),
(15,670,o),
(15,559,cs),
(15,434,o),
(39,279,o),
(77,177,cs),
(124,52,o),
(163,-7,o),
(239,-7,cs),
(309,-7,o),
(366,53,o),
(425,182,cs),
(488,320,o),
(520,482,o),
(520,585,cs),
(520,688,o),
(497,739,o),
(438,739,cs)
);
}
);
width = 535;
},
{
anchors = (
{
name = bottom;
pos = (323,0);
},
{
name = top;
pos = (323,730);
}
);
layerId = "4BA625B0-8927-4B2E-B2D8-0167ED5E0445";
shapes = (
{
closed = 1;
nodes = (
(450,739,o),
(422,694,o),
(400,596,cs),
(378,498,o),
(345,351,o),
(321,213,c),
(317,213,l),
(305,352,o),
(285,490,o),
(275,569,cs),
(261,677,o),
(233,719,o),
(161,719,cs),
(69,719,o),
(15,666,o),
(15,544,cs),
(15,424,o),
(47,278,o),
(91,177,cs),
(147,49,o),
(197,-7,o),
(294,-7,cs),
(382,-7,o),
(450,49,o),
(519,182,cs),
(587,313,o),
(630,460,o),
(630,555,cs),
(630,678,o),
(598,739,o),
(518,739,cs)
);
}
);
width = 645;
},
{
anchors = (
{
name = bottom;
pos = (261,0);
},
{
name = top;
pos = (261,730);
}
);
layerId = "D96CDDDD-AAEE-4FD8-A377-74226937908C";
shapes = (
{
closed = 1;
nodes = (
(380,739,o),
(363,693,o),
(347,596,cs),
(324,452,o),
(293,256,o),
(251,108,c),
(247,108,l),
(212,261,o),
(196,420,o),
(182,569,cs),
(172,677,o),
(151,719,o),
(101,719,cs),
(54,719,o),
(30,677,o),
(30,582,cs),
(30,469,o),
(58,279,o),
(100,161,cs),
(141,50,o),
(174,-7,o),
(237,-7,cs),
(296,-7,o),
(338,50,o),
(388,166,cs),
(451,313,o),
(490,502,o),
(490,623,cs),
(490,700,o),
(473,739,o),
(431,739,cs)
);
}
);
width = 520;
},
{
anchors = (
{
name = bottom;
pos = (317,0);
},
{
name = top;
pos = (317,730);
}
);
layerId = "1C59D977-65E2-41C6-912A-276E7E987498";
shapes = (
{
closed = 1;
nodes = (
(485,739,o),
(469,693,o),
(452,596,cs),
(429,454,o),
(373,266,o),
(306,123,c),
(302,123,l),
(242,271,o),
(203,422,o),
(186,569,cs),
(174,677,o),
(155,719,o),
(105,719,cs),
(53,719,o),
(30,676,o),
(30,578,cs),
(30,467,o),
(68,280,o),
(113,173,cs),
(161,58,o),
(211,-7,o),
(293,-7,cs),
(370,-7,o),
(429,57,o),
(487,177,cs),
(555,313,o),
(603,497,o),
(603,615,cs),
(603,698,o),
(583,739,o),
(536,739,cs)
);
}
);
width = 632.5;
}
);
metricLeft = A;
metricRight = A;
unicode = 86;
},
{
color = 4;
glyphname = W;
kernLeft = LAT_UC_W;
kernRight = LAT_UC_W;
lastChange = "2021-09-01 16:53:14 +0000";
layers = (
{
anchors = (
{
name = bottom;
pos = (338,0);
},
{
name = top;
pos = (338,730);
}
);
layerId = m004;
shapes = (
{
closed = 1;
nodes = (
(25,424,o),
(39,258,o),
(57,166,cs),
(79,54,o),
(110,11,o),
(172,11,cs),
(240,11,o),
(293,72,o),
(334,319,c),
(338,319,l),
(378,68,o),
(423,-8,o),
(492,-8,cs),
(551,-8,o),
(586,44,o),
(609,135,cs),
(637,245,o),
(651,390,o),
(651,521,cs),
(651,663,o),
(605,738,o),
(526,738,cs),
(468,738,o),
(431,701,o),
(431,562,cs),
(431,488,o),
(437,394,o),
(445,313,c),
(441,313,l),
(401,526,o),
(375,595,o),
(331,595,cs),
(291,595,o),
(263,528,o),
(228,301,c),
(224,301,l),
(234,377,o),
(243,483,o),
(243,546,cs),
(243,638,o),
(221,711,o),
(145,711,cs),
(63,711,o),
(25,656,o),
(25,515,cs)
);
}
);
width = 676;
},
{
anchors = (
{
name = bottom;
pos = (408,0);
},
{
name = top;
pos = (408,730);
}
);
background = {
shapes = (
{
closed = 1;
nodes = (
(35,424,o),
(49,258,o),
(67,166,cs),
(89,54,o),
(128,11,o),
(197,11,cs),
(285,11,o),
(351,63,o),
(405,274,c),
(407,274,l),
(460,58,o),
(537,-8,o),
(607,-8,cs),
(674,-8,o),
(716,44,o),
(739,135,cs),
(767,245,o),
(781,390,o),
(781,521,cs),
(781,663,o),
(729,738,o),
(641,738,cs),
(574,738,o),
(531,701,o),
(531,562,cs),
(531,502,o),
(536,424,o),
(543,358,c),
(541,358,l),
(491,537,o),
(457,595,o),
(401,595,cs),
(349,595,o),
(314,539,o),
(268,346,c),
(266,346,l),
(276,409,o),
(283,495,o),
(283,546,cs),
(283,638,o),
(258,711,o),
(170,711,cs),
(78,711,o),
(35,656,o),
(35,515,cs)
);
}
);
};
layerId = "4BA625B0-8927-4B2E-B2D8-0167ED5E0445";
shapes = (
{
closed = 1;
nodes = (
(25,424,o),
(39,258,o),
(57,166,cs),
(79,54,o),
(118,11,o),
(187,11,cs),
(279,11,o),
(348,63,o),
(404,334,c),
(408,334,l),
(463,58,o),
(540,-8,o),
(614,-8,cs),
(681,-8,o),
(723,44,o),
(746,135,cs),
(774,245,o),
(791,390,o),
(791,521,cs),
(791,663,o),
(739,738,o),
(651,738,cs),
(584,738,o),
(541,701,o),
(541,562,cs),
(541,487,o),
(546,390,o),
(553,308,c),
(549,308,l),
(497,525,o),
(461,595,o),
(401,595,cs),
(345,595,o),
(307,528,o),
(260,296,c),
(256,296,l),
(265,375,o),
(273,482,o),
(273,546,cs),
(273,638,o),
(248,711,o),
(160,711,cs),
(68,711,o),
(25,656,o),
(25,515,cs)
);
}
);
width = 816;
},
{
anchors = (
{
name = bottom;
pos = (331,0);
},
{
name = top;
pos = (331,730);
}
);
layerId = "D96CDDDD-AAEE-4FD8-A377-74226937908C";
shapes = (
{
closed = 1;
nodes = (
(55,438,o),
(74,245,o),
(95,136,cs),
(112,46,o),
(134,11,o),
(180,11,cs),
(242,11,o),
(289,131,o),
(326,417,c),
(330,417,l),
(366,130,o),
(414,-8,o),
(470,-8,cs),
(514,-8,o),
(539,34,o),
(557,105,cs),
(589,232,o),
(606,400,o),
(606,551,cs),
(606,674,o),
(575,738,o),
(521,738,cs),
(479,738,o),
(454,709,o),
(454,600,cs),
(454,470,o),
(458,305,o),
(464,163,c),
(460,163,l),
(413,448,o),
(371,565,o),
(324,565,cs),
(280,565,o),
(238,454,o),
(198,166,c),
(194,166,l),
(202,296,o),
(209,476,o),
(209,584,cs),
(209,655,o),
(193,711,o),
(139,711,cs),
(81,711,o),
(55,664,o),
(55,545,cs)
);
}
);
width = 661;
},
{
anchors = (
{
name = bottom;
pos = (402,0);
},
{
name = top;
pos = (402,730);
}
);
layerId = "1C59D977-65E2-41C6-912A-276E7E987498";
shapes = (
{
closed = 1;
nodes = (
(66,438,o),
(85,245,o),
(106,136,cs),
(123,46,o),
(147,11,o),
(195,11,cs),
(281,11,o),
(344,162,o),
(398,405,c),
(402,405,l),
(455,162,o),
(525,-8,o),
(597,-8,cs),
(643,-8,o),
(670,34,o),
(688,105,cs),
(720,232,o),
(737,400,o),
(737,551,cs),
(737,674,o),
(705,738,o),
(648,738,cs),
(605,738,o),
(577,709,o),
(577,600,cs),
(577,471,o),
(582,306,o),
(588,164,c),
(584,164,l),
(520,414,o),
(462,565,o),
(395,565,cs),
(333,565,o),
(274,422,o),
(216,167,c),
(212,167,l),
(222,297,o),
(228,477,o),
(228,584,cs),
(228,655,o),
(211,711,o),
(154,711,cs),
(94,711,o),
(66,664,o),
(66,545,cs)
);
}
);
width = 803;
}
);
metricLeft = H;
metricRight = H;
unicode = 87;
},
{
color = 4;
glyphname = X;
kernLeft = LAT_UC_X;
kernRight = LAT_UC_X;
lastChange = "2021-09-01 18:00:14 +0000";
layers = (
{
anchors = (
{
name = bottom;
pos = (277,0);
},
{
name = top;
pos = (277,730);
}
);
layerId = m004;
shapes = (
{
closed = 1;
nodes = (
(167,-7,o),
(240,61,o),
(270,277,c),
(274,277,l),
(285,93,o),
(339,4,o),
(414,4,cs),
(471,4,o),
(533,49,o),
(533,121,cs),
(533,220,o),
(478,313,o),
(357,373,c),
(357,377,l),
(475,425,o),
(543,510,o),
(543,614,cs),
(543,685,o),
(501,738,o),
(443,738,cs),
(379,738,o),
(313,670,o),
(283,454,c),
(279,454,l),
(270,622,o),
(222,701,o),
(152,701,cs),
(102,701,o),
(50,656,o),
(50,584,cs),
(50,496,o),
(97,420,o),
(197,368,c),
(197,364,l),
(75,303,o),
(10,195,o),
(10,97,cs),
(10,37,o),
(46,-7,o),
(103,-7,cs)
);
}
);
width = 553;
},
{
anchors = (
{
name = bottom;
pos = (372,0);
},
{
name = top;
pos = (372,730);
}
);
layerId = "4BA625B0-8927-4B2E-B2D8-0167ED5E0445";
shapes = (
{
closed = 1;
nodes = (
(229,-7,o),
(327,76,o),
(365,277,c),
(369,277,l),
(383,108,o),
(460,4,o),
(564,4,cs),
(641,4,o),
(723,61,o),
(723,151,cs),
(723,238,o),
(658,321,o),
(512,373,c),
(512,377,l),
(652,419,o),
(733,494,o),
(733,584,cs),
(733,672,o),
(674,738,o),
(593,738,cs),
(507,738,o),
(417,655,o),
(378,454,c),
(374,454,l),
(362,607,o),
(294,701,o),
(192,701,cs),
(122,701,o),
(50,644,o),
(50,554,cs),
(50,478,o),
(108,413,o),
(232,368,c),
(232,364,l),
(88,311,o),
(10,215,o),
(10,127,cs),
(10,51,o),
(62,-7,o),
(143,-7,cs)
);
}
);
width = 743;
},
{
anchors = (
{
name = bottom;
pos = (266,0);
},
{
name = top;
pos = (266,730);
}
);
layerId = "D96CDDDD-AAEE-4FD8-A377-74226937908C";
shapes = (
{
closed = 1;
nodes = (
(135,-7,o),
(192,72,o),
(259,315,c),
(263,315,l),
(313,99,o),
(367,4,o),
(425,4,cs),
(461,4,o),
(499,35,o),
(499,84,cs),
(499,158,o),
(442,258,o),
(316,373,c),
(316,377,l),
(438,480,o),
(509,581,o),
(509,659,cs),
(509,704,o),
(483,738,o),
(447,738,cs),
(393,738,o),
(337,662,o),
(272,424,c),
(268,424,l),
(227,619,o),
(173,701,o),
(126,701,cs),
(94,701,o),
(61,673,o),
(61,629,cs),
(61,561,o),
(111,468,o),
(216,368,c),
(216,364,l),
(89,250,o),
(21,133,o),
(21,60,cs),
(21,21,o),
(46,-7,o),
(84,-7,cs)
);
}
);
width = 530;
},
{
anchors = (
{
name = bottom;
pos = (357,0);
},
{
name = top;
pos = (357,730);
}
);
layerId = "1C59D977-65E2-41C6-912A-276E7E987498";
shapes = (
{
closed = 1;
nodes = (
(161,-7,o),
(247,87,o),
(350,315,c),
(354,315,l),
(433,114,o),
(518,4,o),
(605,4,cs),
(639,4,o),
(677,34,o),
(677,81,cs),
(677,155,o),
(597,256,o),
(422,373,c),
(422,377,l),
(590,482,o),
(687,584,o),
(687,662,cs),
(687,705,o),
(661,738,o),
(627,738,cs),
(548,738,o),
(463,647,o),
(363,424,c),
(359,424,l),
(290,604,o),
(203,701,o),
(128,701,cs),
(98,701,o),
(66,674,o),
(66,632,cs),
(66,563,o),
(138,470,o),
(292,368,c),
(292,364,l),
(119,248,o),
(26,130,o),
(26,57,cs),
(26,21,o),
(50,-7,o),
(87,-7,cs)
);
}
);
width = 713;
}
);
metricLeft = "=|E";
metricRight = E;
unicode = 88;
},
{
color = 4;
glyphname = Y;
kernLeft = LAT_UC_Y;
kernRight = LAT_UC_Y;
lastChange = "2021-09-01 18:00:11 +0000";
layers = (
{
anchors = (
{
name = bottom;
pos = (257,0);
},
{
name = top;
pos = (257,724);
},
{
name = topleft;
pos = (-30,730);
}
);
layerId = m004;
shapes = (
{
closed = 1;
nodes = (
(301,-9,o),
(360,42,o),
(360,137,cs),
(360,212,o),
(323,314,o),
(277,382,c),
(268,333,l),
(418,397,o),
(508,507,o),
(508,624,cs),
(508,689,o),
(476,738,o),
(418,738,cs),
(357,738,o),
(278,661,o),
(246,464,c),
(242,464,l),
(230,650,o),
(179,727,o),
(114,727,cs),
(57,727,o),
(5,678,o),
(5,600,cs),
(5,497,o),
(64,403,o),
(193,334,c),
(187,392,l),
(143,337,o),
(101,227,o),
(101,128,cs),
(101,25,o),
(147,-9,o),
(216,-9,cs)
);
}
);
width = 513;
},
{
anchors = (
{
name = bottom;
pos = (332,0);
},
{
name = top;
pos = (332,724);
},
{
name = topleft;
pos = (45,730);
}
);
layerId = "4BA625B0-8927-4B2E-B2D8-0167ED5E0445";
shapes = (
{
closed = 1;
nodes = (
(385,-9,o),
(450,42,o),
(450,137,cs),
(450,212,o),
(413,314,o),
(367,382,c),
(358,363,l),
(546,385,o),
(658,465,o),
(658,579,cs),
(658,670,o),
(608,738,o),
(523,738,cs),
(444,738,o),
(359,667,o),
(321,485,c),
(317,485,l),
(302,631,o),
(248,727,o),
(159,727,cs),
(77,727,o),
(5,660,o),
(5,555,cs),
(5,469,o),
(82,400,o),
(253,364,c),
(247,392,l),
(203,337,o),
(161,227,o),
(161,128,cs),
(161,25,o),
(213,-9,o),
(291,-9,cs)
);
}
);
width = 663;
},
{
anchors = (
{
name = bottom;
pos = (238,0);
},
{
name = top;
pos = (238,724);
},
{
name = topleft;
pos = (-49,730);
}
);
layerId = "D96CDDDD-AAEE-4FD8-A377-74226937908C";
shapes = (
{
closed = 1;
nodes = (
(259,-9,o),
(296,37,o),
(296,122,cs),
(296,194,o),
(277,302,o),
(251,382,c),
(242,356,l),
(378,453,o),
(459,581,o),
(459,669,cs),
(459,710,o),
(439,738,o),
(399,738,cs),
(344,738,o),
(280,653,o),
(219,432,c),
(215,432,l),
(179,645,o),
(133,727,o),
(80,727,cs),
(43,727,o),
(16,703,o),
(16,660,cs),
(16,595,o),
(54,501,o),
(182,357,c),
(176,392,l),
(151,327,o),
(127,211,o),
(127,113,cs),
(127,21,o),
(158,-9,o),
(205,-9,cs)
);
}
);
width = 475;
},
{
anchors = (
{
name = bottom;
pos = (322,0);
},
{
name = top;
pos = (322,724);
},
{
name = topleft;
pos = (35,730);
}
);
layerId = "1C59D977-65E2-41C6-912A-276E7E987498";
shapes = (
{
closed = 1;
nodes = (
(345,-9,o),
(384,37,o),
(384,122,cs),
(384,194,o),
(364,302,o),
(338,382,c),
(329,363,l),
(511,453,o),
(620,578,o),
(620,668,cs),
(620,709,o),
(597,738,o),
(559,738,cs),
(494,738,o),
(392,643,o),
(303,437,c),
(299,437,l),
(227,629,o),
(162,727,o),
(98,727,cs),
(56,727,o),
(22,698,o),
(22,649,cs),
(22,588,o),
(74,500,o),
(262,364,c),
(256,392,l),
(230,327,o),
(207,211,o),
(207,113,cs),
(207,21,o),
(240,-9,o),
(288,-9,cs)
);
}
);
width = 642;
}
);
metricLeft = "=|L";
metricRight = L;
unicode = 89;
},
{
color = 4;
glyphname = Z;
kernLeft = LAT_UC_Z;
kernRight = LAT_UC_Z;
lastChange = "2021-09-01 15:31:23 +0000";
layers = (
{
anchors = (
{
name = bottom;
pos = (211,0);
},
{
name = center;
pos = (211,365);
},
{
name = top;
pos = (211,730);
}
);
layerId = m004;
shapes = (
{
closed = 1;
nodes = (
(10,43,o),
(63,-7,o),
(173,-7,cs),
(209,-7,o),
(258,-1,o),
(305,8,cs),
(387,24,o),
(434,66,o),
(434,139,cs),
(434,208,o),
(401,236,o),
(322,236,cs),
(266,236,o),
(196,218,o),
(154,195,c),
(154,197,l),
(390,402,o),
(442,502,o),
(442,603,cs),
(442,702,o),
(391,737,o),
(275,737,cs),
(188,737,o),
(115,718,o),
(64,688,cs),
(29,668,o),
(11,639,o),
(11,594,cs),
(11,531,o),
(42,496,o),
(114,496,cs),
(148,496,o),
(217,513,o),
(264,533,c),
(264,531,l),
(78,373,o),
(10,254,o),
(10,135,cs)
);
}
);
width = 452;
},
{
anchors = (
{
name = bottom;
pos = (301,0);
},
{
name = center;
pos = (301,365);
},
{
name = top;
pos = (301,730);
}
);
layerId = "4BA625B0-8927-4B2E-B2D8-0167ED5E0445";
shapes = (
{
closed = 1;
nodes = (
(10,48,o),
(72,-7,o),
(203,-7,cs),
(266,-7,o),
(362,-2,o),
(430,8,cs),
(532,22,o),
(589,72,o),
(589,154,cs),
(589,230,o),
(549,261,o),
(452,261,cs),
(367,261,o),
(263,239,o),
(199,210,c),
(199,212,l),
(525,402,o),
(597,495,o),
(597,588,cs),
(597,714,o),
(521,737,o),
(345,737,cs),
(230,737,o),
(128,725,o),
(64,688,cs),
(28,667,o),
(11,632,o),
(11,579,cs),
(11,510,o),
(50,471,o),
(139,471,cs),
(194,471,o),
(300,493,o),
(374,518,c),
(374,516,l),
(107,370,o),
(10,260,o),
(10,150,cs)
);
}
);
width = 607;
},
{
anchors = (
{
name = bottom;
pos = (215,0);
},
{
name = center;
pos = (215,365);
},
{
name = top;
pos = (215,730);
}
);
layerId = "D96CDDDD-AAEE-4FD8-A377-74226937908C";
shapes = (
{
closed = 1;
nodes = (
(21,21,o),
(59,-7,o),
(162,-7,cs),
(200,-7,o),
(252,-3,o),
(301,8,cs),
(369,23,o),
(408,50,o),
(408,99,cs),
(408,143,o),
(384,161,o),
(326,161,cs),
(266,161,o),
(177,136,o),
(120,105,c),
(120,107,l),
(310,355,o),
(416,549,o),
(416,633,cs),
(416,707,o),
(371,737,o),
(271,737,cs),
(190,737,o),
(117,717,o),
(74,697,cs),
(36,679,o),
(22,656,o),
(22,626,cs),
(22,587,o),
(49,566,o),
(110,566,cs),
(155,566,o),
(244,584,o),
(305,608,c),
(305,606,l),
(98,329,o),
(21,169,o),
(21,90,cs)
);
}
);
width = 437;
},
{
anchors = (
{
name = bottom;
pos = (299,0);
},
{
name = center;
pos = (299,365);
},
{
name = top;
pos = (299,730);
}
);
layerId = "1C59D977-65E2-41C6-912A-276E7E987498";
shapes = (
{
closed = 1;
nodes = (
(26,22,o),
(78,-7,o),
(174,-7,cs),
(248,-7,o),
(352,0,o),
(445,19,cs),
(518,33,o),
(559,63,o),
(559,114,cs),
(559,160,o),
(533,179,o),
(471,179,cs),
(374,179,o),
(229,148,o),
(137,109,c),
(137,112,l),
(410,355,o),
(567,548,o),
(567,629,cs),
(567,710,o),
(505,737,o),
(370,737,cs),
(252,737,o),
(138,721,o),
(79,694,cs),
(41,676,o),
(27,652,o),
(27,620,cs),
(27,579,o),
(56,557,o),
(122,557,cs),
(196,557,o),
(343,579,o),
(445,604,c),
(445,601,l),
(139,328,o),
(26,171,o),
(26,94,cs)
);
}
);
width = 593;
}
);
metricLeft = "=|E";
metricRight = E;
unicode = 90;
},
{
color = 4;
glyphname = N.001;
kernLeft = LAT_UC_StemSlant;
kernRight = LAT_UC_Stem;
layers = (
{
anchors = (
{
name = bottom;
pos = (306,0);
},
{
name = top;
pos = (306,730);
}
);
layerId = m004;
shapes = (
{
closed = 1;
nodes = (
(85,711,o),
(62,642,o),
(46,512,cs),
(32,397,o),
(25,256,o),
(25,163,cs),
(25,47,o),
(56,-7,o),
(138,-7,cs),
(214,-7,o),
(250,41,o),
(250,168,cs),
(250,271,o),
(235,409,o),
(217,508,c),
(221,508,l),
(333,70,o),
(375,10,o),
(480,10,cs),
(566,10,o),
(586,103,o),
(586,313,cs),
(586,471,o),
(575,597,o),
(543,668,cs),
(523,712,o),
(500,738,o),
(456,738,cs),
(396,738,o),
(363,693,o),
(363,590,cs),
(363,515,o),
(377,373,o),
(393,261,c),
(389,261,l),
(299,621,o),
(243,711,o),
(152,711,cs)
);
}
);
width = 611;
},
{
anchors = (
{
name = bottom;
pos = (336,0);
},
{
name = top;
pos = (336,730);
}
);
layerId = "4BA625B0-8927-4B2E-B2D8-0167ED5E0445";
shapes = (
{
closed = 1;
nodes = (
(96,711,o),
(62,642,o),
(46,512,cs),
(32,402,o),
(25,267,o),
(25,178,cs),
(25,52,o),
(61,-7,o),
(153,-7,cs),
(240,-7,o),
(280,46,o),
(280,183,cs),
(280,264,o),
(265,384,o),
(247,448,c),
(251,448,l),
(382,63,o),
(432,10,o),
(555,10,cs),
(653,10,o),
(676,103,o),
(676,313,cs),
(676,471,o),
(665,597,o),
(633,668,cs),
(613,714,o),
(583,738,o),
(531,738,cs),
(462,738,o),
(423,689,o),
(423,575,cs),
(423,517,o),
(437,396,o),
(453,321,c),
(449,321,l),
(348,633,o),
(285,711,o),
(182,711,cs)
);
}
);
width = 701;
},
{
anchors = (
{
name = bottom;
pos = (291,0);
},
{
name = top;
pos = (291,730);
}
);
layerId = "D96CDDDD-AAEE-4FD8-A377-74226937908C";
shapes = (
{
closed = 1;
nodes = (
(107,711,o),
(91,665,o),
(78,557,cs),
(61,425,o),
(55,262,o),
(55,156,cs),
(55,45,o),
(76,-7,o),
(131,-7,cs),
(177,-7,o),
(198,39,o),
(198,161,cs),
(198,289,o),
(188,470,o),
(176,583,c),
(180,583,l),
(269,198,o),
(351,10,o),
(428,10,cs),
(508,10,o),
(526,118,o),
(526,313,cs),
(526,481,o),
(514,616,o),
(483,691,cs),
(470,722,o),
(455,738,o),
(426,738,cs),
(389,738,o),
(371,697,o),
(371,590,cs),
(371,490,o),
(387,294,o),
(404,156,c),
(400,156,l),
(304,522,o),
(226,711,o),
(160,711,cs)
);
}
);
width = 581;
},
{
anchors = (
{
name = bottom;
pos = (344,0);
},
{
name = top;
pos = (344,730);
}
);
layerId = "1C59D977-65E2-41C6-912A-276E7E987498";
shapes = (
{
closed = 1;
nodes = (
(121,711,o),
(102,665,o),
(89,557,cs),
(73,426,o),
(66,265,o),
(66,159,cs),
(66,46,o),
(88,-7,o),
(146,-7,cs),
(198,-7,o),
(222,40,o),
(222,164,cs),
(222,287,o),
(213,464,o),
(199,568,c),
(203,568,l),
(330,197,o),
(423,10,o),
(518,10,cs),
(601,10,o),
(620,118,o),
(620,313,cs),
(620,481,o),
(607,616,o),
(577,691,cs),
(564,722,o),
(547,738,o),
(516,738,cs),
(472,738,o),
(452,696,o),
(452,586,cs),
(452,491,o),
(468,299,o),
(486,171,c),
(482,171,l),
(346,525,o),
(261,711,o),
(178,711,cs)
);
}
);
width = 686;
}
);
metricLeft = H;
metricRight = H;
},
{
color = 4;
glyphname = N.002;
kernLeft = LAT_UC_StemSlant;
kernRight = LAT_UC_Stem;
layers = (
{
anchors = (
{
name = bottom;
pos = (306,0);
},
{
name = top;
pos = (306,730);
}
);
layerId = m004;
shapes = (
{
closed = 1;
nodes = (
(85,711,o),
(62,642,o),
(46,512,cs),
(32,397,o),
(25,256,o),
(25,163,cs),
(25,47,o),
(56,-7,o),
(138,-7,cs),
(214,-7,o),
(250,41,o),
(250,168,cs),
(250,271,o),
(235,409,o),
(217,508,c),
(221,508,l),
(333,70,o),
(375,10,o),
(480,10,cs),
(566,10,o),
(586,103,o),
(586,313,cs),
(586,471,o),
(575,597,o),
(543,668,cs),
(523,712,o),
(500,738,o),
(456,738,cs),
(396,738,o),
(363,693,o),
(363,590,cs),
(363,515,o),
(377,373,o),
(393,261,c),
(389,261,l),
(299,621,o),
(243,711,o),
(152,711,cs)
);
}
);
width = 611;
},
{
anchors = (
{
name = bottom;
pos = (336,0);
},
{
name = top;
pos = (336,730);
}
);
layerId = "4BA625B0-8927-4B2E-B2D8-0167ED5E0445";
shapes = (
{
closed = 1;
nodes = (
(96,711,o),
(62,642,o),
(46,512,cs),
(32,402,o),
(25,267,o),
(25,178,cs),
(25,52,o),
(61,-7,o),
(153,-7,cs),
(240,-7,o),
(280,46,o),
(280,183,cs),
(280,264,o),
(265,384,o),
(247,448,c),
(251,448,l),
(382,63,o),
(432,10,o),
(555,10,cs),
(653,10,o),
(676,103,o),
(676,313,cs),
(676,471,o),
(665,597,o),
(633,668,cs),
(613,714,o),
(583,738,o),
(531,738,cs),
(462,738,o),
(423,689,o),
(423,575,cs),
(423,517,o),
(437,396,o),
(453,321,c),
(449,321,l),
(348,633,o),
(285,711,o),
(182,711,cs)
);
}
);
width = 701;
},
{
anchors = (
{
name = bottom;
pos = (291,0);
},
{
name = top;
pos = (291,730);
}
);
layerId = "D96CDDDD-AAEE-4FD8-A377-74226937908C";
shapes = (
{
closed = 1;
nodes = (
(107,711,o),
(91,665,o),
(78,557,cs),
(61,425,o),
(55,262,o),
(55,156,cs),
(55,45,o),
(76,-7,o),
(131,-7,cs),
(177,-7,o),
(198,39,o),
(198,161,cs),
(198,289,o),
(188,470,o),
(176,583,c),
(180,583,l),
(269,198,o),
(351,10,o),
(428,10,cs),
(508,10,o),
(526,118,o),
(526,313,cs),
(526,481,o),
(514,616,o),
(483,691,cs),
(470,722,o),
(455,738,o),
(426,738,cs),
(389,738,o),
(371,697,o),
(371,590,cs),
(371,490,o),
(387,294,o),
(404,156,c),
(400,156,l),
(304,522,o),
(226,711,o),
(160,711,cs)
);
}
);
width = 581;
},
{
anchors = (
{
name = bottom;
pos = (344,0);
},
{
name = top;
pos = (344,730);
}
);
layerId = "1C59D977-65E2-41C6-912A-276E7E987498";
shapes = (
{
closed = 1;
nodes = (
(121,711,o),
(102,665,o),
(89,557,cs),
(73,426,o),
(66,265,o),
(66,159,cs),
(66,46,o),
(88,-7,o),
(146,-7,cs),
(198,-7,o),
(222,40,o),
(222,164,cs),
(222,287,o),
(213,464,o),
(199,568,c),
(203,568,l),
(330,197,o),
(423,10,o),
(518,10,cs),
(601,10,o),
(620,118,o),
(620,313,cs),
(620,481,o),
(607,616,o),
(577,691,cs),
(564,722,o),
(547,738,o),
(516,738,cs),
(472,738,o),
(452,696,o),
(452,586,cs),
(452,491,o),
(468,299,o),
(486,171,c),
(482,171,l),
(346,525,o),
(261,711,o),
(178,711,cs)
);
}
);
width = 686;
}
);
metricLeft = H;
metricRight = H;
},
{
color = 5;
glyphname = A.ss01;
kernLeft = LAT_UC_A;
kernRight = LAT_UC_A;
lastChange = "2021-09-08 15:55:32 +0000";
layers = (
{
anchors = (
{
name = bottom;
pos = (274,-20);
},
{
name = ogonek;
pos = (512,-10);
},
{
name = top;
pos = (304,690);
}
);
layerId = m004;
shapes = (
{
closed = 1;
nodes = (
(195,-47,o),
(218,-2,o),
(245,86,cs),
(254,129,o),
(264,182,o),
(270,237,c),
(172,171,l),
(232,149,o),
(315,148,o),
(359,164,c),
(286,249,l),
(281,202,o),
(281,150,o),
(286,103,cs),
(295,9,o),
(334,-27,o),
(400,-27,cs),
(480,-27,o),
(526,25,o),
(526,163,cs),
(526,281,o),
(509,413,o),
(485,505,cs),
(453,628,o),
(400,689,o),
(312,689,cs),
(229,689,o),
(178,636,o),
(120,520,cs),
(55,390,o),
(15,203,o),
(15,97,cs),
(15,-11,o),
(51,-47,o),
(117,-47,cs)
);
},
{
closed = 1;
nodes = (
(256,299,o),
(240,327,o),
(240,380,cs),
(240,455,o),
(269,527,o),
(303,527,cs),
(329,527,o),
(344,487,o),
(344,425,cs),
(344,342,o),
(320,299,o),
(281,299,cs)
);
}
);
width = 541;
},
{
anchors = (
{
name = bottom;
pos = (323,-20);
},
{
name = ogonek;
pos = (561,-10);
},
{
name = top;
pos = (353,690);
}
);
layerId = "4BA625B0-8927-4B2E-B2D8-0167ED5E0445";
shapes = (
{
closed = 1;
nodes = (
(219,-47,o),
(258,-1,o),
(275,86,cs),
(285,137,o),
(292,201,o),
(295,267,c),
(206,171,l),
(275,149,o),
(372,148,o),
(423,164,c),
(360,259,l),
(355,209,o),
(355,153,o),
(360,103,cs),
(369,9,o),
(414,-27,o),
(489,-27,cs),
(578,-27,o),
(630,25,o),
(630,163,cs),
(630,268,o),
(614,387,o),
(585,485,cs),
(545,618,o),
(475,689,o),
(387,689,cs),
(285,689,o),
(220,638,o),
(144,510,cs),
(59,367,o),
(15,210,o),
(15,107,cs),
(15,-9,o),
(56,-47,o),
(132,-47,cs)
);
},
{
closed = 1;
nodes = (
(286,309,o),
(256,341,o),
(256,384,cs),
(256,441,o),
(295,507,o),
(354,507,cs),
(405,507,o),
(430,464,o),
(430,412,cs),
(430,351,o),
(392,309,o),
(332,309,cs)
);
}
);
width = 645;
},
{
anchors = (
{
name = bottom;
pos = (246,-20);
},
{
name = ogonek;
pos = (484,-10);
},
{
name = top;
pos = (276,690);
}
);
layerId = "D96CDDDD-AAEE-4FD8-A377-74226937908C";
shapes = (
{
closed = 1;
nodes = (
(142,-47,o),
(159,-3,o),
(178,79,cs),
(187,127,o),
(197,185,o),
(197,247,c),
(144,169,l),
(208,139,o),
(298,138,o),
(346,162,c),
(317,229,l),
(313,186,o),
(314,139,o),
(318,96,cs),
(326,8,o),
(350,-27,o),
(394,-27,cs),
(440,-27,o),
(468,9,o),
(468,91,cs),
(468,236,o),
(448,393,o),
(420,515,cs),
(392,636,o),
(350,689,o),
(295,689,cs),
(243,689,o),
(195,634,o),
(140,510,cs),
(71,355,o),
(30,170,o),
(30,55,cs),
(30,-22,o),
(50,-47,o),
(87,-47,cs)
);
},
{
closed = 1;
nodes = (
(214,259,o),
(192,281,o),
(192,325,cs),
(192,399,o),
(238,557,o),
(281,557,cs),
(313,557,o),
(333,418,o),
(333,342,cs),
(333,286,o),
(311,259,o),
(262,259,cs)
);
}
);
width = 497.5;
},
{
anchors = (
{
name = bottom;
pos = (314,-20);
},
{
name = ogonek;
pos = (552,-10);
},
{
name = top;
pos = (344,690);
}
);
layerId = "1C59D977-65E2-41C6-912A-276E7E987498";
shapes = (
{
closed = 1;
nodes = (
(148,-47,o),
(169,1,o),
(185,90,cs),
(193,132,o),
(201,184,o),
(204,237,c),
(151,169,l),
(248,139,o),
(382,138,o),
(453,162,c),
(434,239,l),
(431,197,o),
(432,150,o),
(436,107,cs),
(446,11,o),
(470,-27,o),
(517,-27,cs),
(565,-27,o),
(594,9,o),
(594,91,cs),
(594,236,o),
(565,386,o),
(520,515,cs),
(478,636,o),
(426,689,o),
(362,689,cs),
(297,689,o),
(245,636,o),
(176,510,cs),
(86,347,o),
(30,170,o),
(30,55,cs),
(30,-22,o),
(52,-47,o),
(91,-47,cs)
);
},
{
closed = 1;
nodes = (
(251,264,o),
(219,293,o),
(219,346,cs),
(219,418,o),
(279,572,o),
(348,572,cs),
(397,572,o),
(437,469,o),
(437,379,cs),
(437,291,o),
(404,264,o),
(316,264,cs)
);
}
);
width = 624;
}
);
metricLeft = A;
metricRight = A;
},
{
color = 5;
glyphname = E.ss01;
kernLeft = LAT_UC_Stem;
kernRight = LAT_UC_E;
lastChange = "2021-09-08 15:58:13 +0000";
layers = (
{
anchors = (
{
name = bottom;
pos = (234,0);
},
{
name = ogonek;
pos = (445,10);
},
{
name = top;
pos = (234,706);
},
{
name = topleft;
pos = (-10,730);
}
);
layerId = m004;
shapes = (
{
closed = 1;
nodes = (
(203,716,o),
(135,684,o),
(92,625,cs),
(50,569,o),
(15,477,o),
(15,323,cs),
(15,214,o),
(33,144,o),
(64,90,cs),
(99,29,o),
(164,-6,o),
(269,-6,cs),
(350,-6,o),
(406,50,o),
(406,127,cs),
(406,185,o),
(375,209,o),
(310,209,cs),
(268,209,o),
(213,195,o),
(178,174,c),
(193,159,l),
(215,199,o),
(215,268,o),
(198,308,c),
(182,301,l),
(220,294,o),
(258,291,o),
(289,291,cs),
(365,291,o),
(393,326,o),
(393,369,cs),
(393,408,o),
(370,439,o),
(306,439,cs),
(268,439,o),
(214,424,o),
(185,408,c),
(201,411,l),
(212,449,o),
(212,495,o),
(199,531,c),
(179,518,l),
(209,513,o),
(239,511,o),
(261,511,cs),
(355,511,o),
(398,546,o),
(398,616,cs),
(398,681,o),
(369,716,o),
(288,716,cs)
);
}
);
width = 416;
},
{
anchors = (
{
name = bottom;
pos = (264,0);
},
{
name = ogonek;
pos = (475,10);
},
{
name = top;
pos = (324,706);
},
{
name = topleft;
pos = (20,730);
}
);
layerId = "4BA625B0-8927-4B2E-B2D8-0167ED5E0445";
shapes = (
{
closed = 1;
nodes = (
(251,716,o),
(144,680,o),
(82,595,cs),
(40,538,o),
(15,446,o),
(15,333,cs),
(15,224,o),
(35,157,o),
(64,110,cs),
(110,34,o),
(203,-6,o),
(359,-6,cs),
(464,-6,o),
(556,45,o),
(556,132,cs),
(556,190,o),
(510,214,o),
(415,214,cs),
(354,214,o),
(275,204,o),
(223,189,c),
(223,179,l),
(245,214,o),
(245,269,o),
(228,303,c),
(212,301,l),
(271,294,o),
(330,291,o),
(379,291,cs),
(499,291,o),
(543,326,o),
(543,369,cs),
(543,408,o),
(510,439,o),
(416,439,cs),
(353,439,o),
(264,425,o),
(215,408,c),
(231,411,l),
(242,443,o),
(242,481,o),
(229,511,c),
(224,503,l),
(281,498,o),
(335,496,o),
(376,496,cs),
(493,496,o),
(548,534,o),
(548,611,cs),
(548,679,o),
(506,716,o),
(388,716,cs)
);
}
);
width = 566;
},
{
anchors = (
{
name = bottom;
pos = (227,0);
},
{
name = ogonek;
pos = (438,10);
},
{
name = top;
pos = (227,686);
},
{
name = topleft;
pos = (-17,730);
}
);
layerId = "D96CDDDD-AAEE-4FD8-A377-74226937908C";
shapes = (
{
closed = 1;
nodes = (
(204,696,o),
(145,648,o),
(98,582,cs),
(60,530,o),
(38,428,o),
(38,323,cs),
(38,233,o),
(56,142,o),
(77,102,cs),
(113,35,o),
(170,-6,o),
(267,-6,cs),
(328,-6,o),
(377,38,o),
(377,90,cs),
(377,128,o),
(355,144,o),
(311,144,cs),
(257,144,o),
(187,124,o),
(141,94,c),
(156,84,l),
(171,147,o),
(165,253,o),
(142,316,c),
(130,309,l),
(173,303,o),
(220,299,o),
(267,299,cs),
(337,299,o),
(364,328,o),
(364,364,cs),
(364,396,o),
(342,422,o),
(284,422,cs),
(239,422,o),
(176,402,o),
(141,381,c),
(145,374,l),
(169,438,o),
(174,511,o),
(162,571,c),
(142,556,l),
(183,551,o),
(224,549,o),
(254,549,cs),
(332,549,o),
(369,575,o),
(369,626,cs),
(369,672,o),
(340,696,o),
(289,696,cs)
);
}
);
width = 398;
},
{
anchors = (
{
name = bottom;
pos = (246,0);
},
{
name = ogonek;
pos = (457,10);
},
{
name = top;
pos = (306,686);
},
{
name = topleft;
pos = (2,730);
}
);
layerId = "1C59D977-65E2-41C6-912A-276E7E987498";
shapes = (
{
closed = 1;
nodes = (
(271,696,o),
(174,657,o),
(114,576,cs),
(74,522,o),
(49,436,o),
(49,303,cs),
(49,213,o),
(63,148,o),
(88,102,cs),
(127,30,o),
(209,-6,o),
(336,-6,cs),
(435,-6,o),
(527,40,o),
(527,95,cs),
(527,133,o),
(490,148,o),
(416,148,cs),
(338,148,o),
(235,128,o),
(169,98,c),
(180,92,l),
(195,153,o),
(188,255,o),
(166,316,c),
(154,309,l),
(223,303,o),
(301,299,o),
(378,299,cs),
(477,299,o),
(514,328,o),
(514,364,cs),
(514,396,o),
(482,422,o),
(395,422,cs),
(323,422,o),
(221,402,o),
(164,381,c),
(169,374,l),
(193,435,o),
(198,506,o),
(186,564,c),
(170,552,l),
(243,547,o),
(314,545,o),
(369,545,cs),
(472,545,o),
(519,571,o),
(519,622,cs),
(519,670,o),
(484,696,o),
(377,696,cs)
);
}
);
width = 553;
}
);
metricLeft = O;
metricRight = E;
},
{
color = 5;
glyphname = F.ss01;
lastChange = "2021-09-08 15:55:32 +0000";
layers = (
{
layerId = m004;
shapes = (
{
closed = 1;
nodes = (
(190,706,o),
(122,680,o),
(82,625,cs),
(47,578,o),
(25,490,o),
(25,293,cs),
(25,142,o),
(37,66,o),
(64,12,cs),
(82,-24,o),
(112,-36,o),
(149,-36,cs),
(209,-36,o),
(246,-9,o),
(246,77,cs),
(246,134,o),
(228,196,o),
(211,223,c),
(172,221,l),
(206,211,o),
(241,206,o),
(269,206,cs),
(352,206,o),
(383,249,o),
(383,304,cs),
(383,355,o),
(357,394,o),
(286,394,cs),
(257,394,o),
(217,384,o),
(195,373,c),
(211,366,l),
(218,416,o),
(218,466,o),
(209,501,c),
(199,478,l),
(226,473,o),
(251,471,o),
(271,471,cs),
(365,471,o),
(408,509,o),
(408,594,cs),
(408,663,o),
(380,706,o),
(278,706,cs)
);
}
);
width = 413;
},
{
layerId = "4BA625B0-8927-4B2E-B2D8-0167ED5E0445";
shapes = (
{
closed = 1;
nodes = (
(233,706,o),
(131,682,o),
(82,615,cs),
(48,569,o),
(25,484,o),
(25,293,cs),
(25,147,o),
(38,72,o),
(64,20,cs),
(86,-23,o),
(118,-36,o),
(159,-36,cs),
(225,-36,o),
(266,-9,o),
(266,77,cs),
(266,134,o),
(248,196,o),
(231,223,c),
(192,221,l),
(248,211,o),
(303,206,o),
(349,206,cs),
(454,206,o),
(493,249,o),
(493,304,cs),
(493,355,o),
(459,394,o),
(366,394,cs),
(318,394,o),
(251,384,o),
(215,373,c),
(231,366,l),
(238,416,o),
(238,466,o),
(229,501,c),
(219,478,l),
(265,473,o),
(307,471,o),
(341,471,cs),
(462,471,o),
(518,509,o),
(518,594,cs),
(518,663,o),
(484,706,o),
(358,706,cs)
);
}
);
width = 523;
},
{
layerId = "D96CDDDD-AAEE-4FD8-A377-74226937908C";
shapes = (
{
closed = 1;
nodes = (
(209,706,o),
(151,688,o),
(112,635,cs),
(77,588,o),
(55,480,o),
(55,293,cs),
(55,147,o),
(68,59,o),
(94,2,cs),
(107,-26,o),
(125,-36,o),
(149,-36,cs),
(190,-36,o),
(216,-14,o),
(216,57,cs),
(216,134,o),
(198,217,o),
(181,253,c),
(142,246,l),
(180,236,o),
(218,231,o),
(249,231,cs),
(325,231,o),
(353,263,o),
(353,304,cs),
(353,341,o),
(330,369,o),
(266,369,cs),
(234,369,o),
(189,359,o),
(165,348,c),
(181,336,l),
(188,430,o),
(188,525,o),
(179,591,c),
(169,578,l),
(204,573,o),
(235,571,o),
(261,571,cs),
(341,571,o),
(378,594,o),
(378,644,cs),
(378,682,o),
(359,706,o),
(288,706,cs)
);
}
);
width = 394;
},
{
layerId = "1C59D977-65E2-41C6-912A-276E7E987498";
shapes = (
{
closed = 1;
nodes = (
(258,706,o),
(170,679,o),
(123,615,cs),
(89,569,o),
(66,484,o),
(66,293,cs),
(66,147,o),
(83,72,o),
(105,20,cs),
(122,-21,o),
(148,-36,o),
(180,-36,cs),
(221,-36,o),
(247,-14,o),
(247,57,cs),
(247,134,o),
(229,217,o),
(212,253,c),
(173,241,l),
(236,231,o),
(298,226,o),
(350,226,cs),
(433,226,o),
(464,260,o),
(464,304,cs),
(464,344,o),
(438,374,o),
(367,374,cs),
(312,374,o),
(237,364,o),
(196,353,c),
(212,336,l),
(219,427,o),
(219,517,o),
(210,581,c),
(200,568,l),
(257,556,o),
(310,551,o),
(352,551,cs),
(446,551,o),
(489,575,o),
(489,629,cs),
(489,676,o),
(463,706,o),
(369,706,cs)
);
}
);
width = 511;
}
);
metricLeft = H;
metricRight = T;
},
{
color = 5;
glyphname = L.ss01;
kernLeft = LAT_UC_Stem;
kernRight = LAT_UC_L;
lastChange = "2021-09-08 15:55:32 +0000";
layers = (
{
anchors = (
{
name = bottom;
pos = (231,20);
},
{
name = center;
pos = (231,385);
},
{
name = top;
pos = (231,750);
},
{
name = topright;
pos = (461,750);
}
);
background = {
shapes = (
{
closed = 1;
nodes = (
(214,736,o),
(111,712,o),
(62,645,cs),
(28,599,o),
(5,514,o),
(5,323,cs),
(5,188,o),
(16,118,o),
(44,70,cs),
(73,20,o),
(119,-6,o),
(219,-6,cs),
(290,-6,o),
(371,7,o),
(416,29,cs),
(459,50,o),
(476,84,o),
(476,132,cs),
(476,208,o),
(435,239,o),
(350,239,cs),
(295,239,o),
(224,229,o),
(178,214,c),
(183,199,l),
(205,233,o),
(205,289,o),
(188,323,c),
(172,293,l),
(224,285,o),
(276,283,o),
(329,286,cs),
(417,291,o),
(453,324,o),
(453,376,cs),
(453,424,o),
(422,461,o),
(336,461,cs),
(285,461,o),
(214,454,o),
(175,445,c),
(191,436,l),
(198,475,o),
(198,514,o),
(189,541,c),
(179,508,l),
(228,503,o),
(275,501,o),
(311,501,cs),
(425,501,o),
(478,541,o),
(478,629,cs),
(478,695,o),
(448,736,o),
(338,736,cs)
);
}
);
};
layerId = m004;
shapes = (
{
closed = 1;
nodes = (
(299,54,o),
(396,107,o),
(396,214,cs),
(396,272,o),
(366,305,o),
(312,305,cs),
(267,305,o),
(214,275,o),
(188,234,c),
(195,239,l),
(244,353,o),
(278,495,o),
(278,627,cs),
(278,697,o),
(256,755,o),
(188,755,cs),
(126,755,o),
(78,707,o),
(56,600,cs),
(39,519,o),
(25,380,o),
(25,293,cs),
(25,120,o),
(68,54,o),
(194,54,cs)
);
}
);
width = 401;
},
{
anchors = (
{
name = bottom;
pos = (261,20);
},
{
name = center;
pos = (261,385);
},
{
name = top;
pos = (261,750);
},
{
name = topright;
pos = (491,750);
}
);
layerId = "4BA625B0-8927-4B2E-B2D8-0167ED5E0445";
shapes = (
{
closed = 1;
nodes = (
(383,54,o),
(541,116,o),
(541,269,cs),
(541,336,o),
(497,375,o),
(417,375,cs),
(341,375,o),
(251,325,o),
(203,254,c),
(225,269,l),
(274,370,o),
(308,495,o),
(308,612,cs),
(308,691,o),
(283,755,o),
(203,755,cs),
(133,755,o),
(78,700,o),
(56,590,cs),
(39,507,o),
(25,378,o),
(25,283,cs),
(25,131,o),
(85,54,o),
(244,54,cs)
);
}
);
width = 546;
},
{
anchors = (
{
name = bottom;
pos = (239,0);
},
{
name = center;
pos = (239,365);
},
{
name = top;
pos = (239,730);
},
{
name = topright;
pos = (469,730);
}
);
layerId = "D96CDDDD-AAEE-4FD8-A377-74226937908C";
shapes = (
{
closed = 1;
nodes = (
(261,54,o),
(364,91,o),
(364,169,cs),
(364,207,o),
(344,229,o),
(305,229,cs),
(261,229,o),
(191,200,o),
(138,144,c),
(152,137,l),
(194,283,o),
(221,464,o),
(221,635,cs),
(221,701,o),
(208,755,o),
(168,755,cs),
(127,755,o),
(105,722,o),
(89,640,cs),
(70,539,o),
(55,383,o),
(55,271,cs),
(55,112,o),
(99,54,o),
(189,54,cs)
);
}
);
width = 380;
},
{
anchors = (
{
name = bottom;
pos = (257,0);
},
{
name = center;
pos = (257,365);
},
{
name = top;
pos = (257,730);
},
{
name = topright;
pos = (487,730);
}
);
layerId = "1C59D977-65E2-41C6-912A-276E7E987498";
shapes = (
{
closed = 1;
nodes = (
(335,54,o),
(510,106,o),
(510,203,cs),
(510,240,o),
(487,261,o),
(438,261,cs),
(366,261,o),
(251,219,o),
(164,152,c),
(177,144,l),
(216,284,o),
(239,458,o),
(239,621,cs),
(239,695,o),
(225,755,o),
(183,755,cs),
(140,755,o),
(115,719,o),
(100,630,cs),
(84,538,o),
(66,378,o),
(66,271,cs),
(66,106,o),
(114,54,o),
(230,54,cs)
);
}
);
width = 532;
}
);
metricLeft = H;
metricRight = L;
},
{
color = 5;
glyphname = O.ss01;
kernLeft = LAT_UC_Round;
kernRight = LAT_UC_Round;
lastChange = "2021-09-08 15:57:23 +0000";
layers = (
{
anchors = (
{
name = bottom;
pos = (291,0);
},
{
name = center;
pos = (291,365);
},
{
name = ogonek;
pos = (523,10);
},
{
name = top;
pos = (291,717);
},
{
name = topleft;
pos = (20,730);
},
{
name = topright;
pos = (561,730);
}
);
layerId = m004;
shapes = (
{
closed = 1;
nodes = (
(457,36,o),
(566,170,o),
(566,389,cs),
(566,590,o),
(458,727,o),
(291,727,cs),
(123,727,o),
(15,582,o),
(15,368,cs),
(15,163,o),
(121,36,o),
(287,36,cs)
);
},
{
closed = 1;
nodes = (
(245,290,o),
(223,331,o),
(223,405,cs),
(223,479,o),
(245,520,o),
(279,520,cs),
(313,520,o),
(335,479,o),
(335,405,cs),
(335,331,o),
(313,290,o),
(279,290,cs)
);
}
);
width = 581;
},
{
anchors = (
{
name = bottom;
pos = (371,0);
},
{
name = center;
pos = (371,365);
},
{
name = ogonek;
pos = (667,10);
},
{
name = top;
pos = (371,717);
},
{
name = topleft;
pos = (20,730);
},
{
name = topright;
pos = (721,730);
}
);
layerId = "4BA625B0-8927-4B2E-B2D8-0167ED5E0445";
shapes = (
{
closed = 1;
nodes = (
(585,36,o),
(726,160,o),
(726,379,cs),
(726,580,o),
(566,727,o),
(371,727,cs),
(175,727,o),
(15,572,o),
(15,358,cs),
(15,153,o),
(153,36,o),
(367,36,cs)
);
},
{
closed = 1;
nodes = (
(283,300,o),
(233,341,o),
(233,405,cs),
(233,469,o),
(283,510,o),
(359,510,cs),
(435,510,o),
(485,469,o),
(485,405,cs),
(485,341,o),
(435,300,o),
(359,300,cs)
);
}
);
width = 741;
},
{
anchors = (
{
name = bottom;
pos = (264,0);
},
{
name = center;
pos = (264,365);
},
{
name = ogonek;
pos = (474,10);
},
{
name = top;
pos = (264,717);
},
{
name = topleft;
pos = (20,730);
},
{
name = topright;
pos = (507,730);
}
);
layerId = "D96CDDDD-AAEE-4FD8-A377-74226937908C";
shapes = (
{
closed = 1;
nodes = (
(400,36,o),
(489,160,o),
(489,389,cs),
(489,600,o),
(401,727,o),
(264,727,cs),
(126,727,o),
(38,592,o),
(38,368,cs),
(38,153,o),
(125,36,o),
(261,36,cs)
);
},
{
closed = 1;
nodes = (
(210,170,o),
(176,251,o),
(176,396,cs),
(176,534,o),
(210,610,o),
(262,610,cs),
(314,610,o),
(348,534,o),
(348,396,cs),
(348,251,o),
(314,170,o),
(262,170,cs)
);
}
);
width = 527;
},
{
anchors = (
{
name = bottom;
pos = (370,0);
},
{
name = center;
pos = (370,365);
},
{
name = ogonek;
pos = (665,10);
},
{
name = top;
pos = (370,717);
},
{
name = topleft;
pos = (20,730);
},
{
name = topright;
pos = (719,730);
}
);
layerId = "1C59D977-65E2-41C6-912A-276E7E987498";
shapes = (
{
closed = 1;
nodes = (
(563,36,o),
(690,146,o),
(690,369,cs),
(690,586,o),
(544,727,o),
(370,727,cs),
(195,727,o),
(49,578,o),
(49,348,cs),
(49,139,o),
(174,36,o),
(367,36,cs)
);
},
{
closed = 1;
nodes = (
(262,180,o),
(192,247,o),
(192,376,cs),
(192,510,o),
(282,600,o),
(368,600,cs),
(454,600,o),
(544,510,o),
(544,376,cs),
(544,247,o),
(474,180,o),
(368,180,cs)
);
}
);
width = 739;
}
);
metricLeft = O;
metricRight = O;
},
{
color = 5;
glyphname = P.ss01;
kernLeft = LAT_UC_StemSlant;
kernRight = LAT_UC_P;
lastChange = "2021-09-08 15:55:32 +0000";
layers = (
{
anchors = (
{
name = bottom;
pos = (268,0);
},
{
name = top;
pos = (268,730);
}
);
layerId = m004;
shapes = (
{
closed = 1;
nodes = (
(176,699,o),
(119,655,o),
(85,594,cs),
(47,525,o),
(25,410,o),
(25,247,cs),
(25,60,o),
(50,-7,o),
(141,-7,cs),
(219,-7,o),
(260,44,o),
(260,137,cs),
(260,189,o),
(249,262,o),
(234,302,c),
(200,284,l),
(226,270,o),
(250,265,o),
(272,265,cs),
(369,265,o),
(445,352,o),
(445,488,cs),
(445,614,o),
(389,699,o),
(268,699,cs)
);
},
{
closed = 1;
nodes = (
(218,374,o),
(198,408,o),
(198,456,cs),
(198,521,o),
(232,582,o),
(283,582,cs),
(324,582,o),
(339,545,o),
(339,497,cs),
(339,422,o),
(304,374,o),
(257,374,cs)
);
}
);
width = 455;
},
{
anchors = (
{
name = bottom;
pos = (268,0);
},
{
name = top;
pos = (268,730);
}
);
layerId = "4BA625B0-8927-4B2E-B2D8-0167ED5E0445";
shapes = (
{
closed = 1;
nodes = (
(209,699,o),
(126,649,o),
(82,568,cs),
(48,507,o),
(25,401,o),
(25,247,cs),
(25,60,o),
(55,-7,o),
(166,-7,cs),
(255,-7,o),
(300,44,o),
(300,137,cs),
(300,189,o),
(289,262,o),
(274,302,c),
(255,284,l),
(290,271,o),
(337,265,o),
(372,265,cs),
(496,265,o),
(590,352,o),
(590,488,cs),
(590,614,o),
(509,699,o),
(333,699,cs)
);
},
{
closed = 1;
nodes = (
(263,379,o),
(228,418,o),
(228,469,cs),
(228,529,o),
(277,577,o),
(358,577,cs),
(433,577,o),
(461,536,o),
(461,487,cs),
(461,419,o),
(405,379,o),
(334,379,cs)
);
}
);
width = 600;
},
{
anchors = (
{
name = bottom;
pos = (238,0);
},
{
name = top;
pos = (238,730);
}
);
layerId = "D96CDDDD-AAEE-4FD8-A377-74226937908C";
shapes = (
{
closed = 1;
nodes = (
(186,699,o),
(143,660,o),
(115,609,cs),
(72,530,o),
(55,394,o),
(55,202,cs),
(55,48,o),
(72,-7,o),
(134,-7,cs),
(182,-7,o),
(208,36,o),
(208,115,cs),
(208,176,o),
(197,264,o),
(182,312,c),
(173,309,l),
(203,290,o),
(231,285,o),
(257,285,cs),
(348,285,o),
(420,372,o),
(420,508,cs),
(420,622,o),
(369,699,o),
(258,699,cs)
);
},
{
closed = 1;
nodes = (
(196,369,o),
(179,394,o),
(179,453,cs),
(179,541,o),
(212,605,o),
(263,605,cs),
(301,605,o),
(320,561,o),
(320,502,cs),
(320,416,o),
(285,369,o),
(234,369,cs)
);
}
);
width = 445;
},
{
anchors = (
{
name = bottom;
pos = (283,0);
},
{
name = top;
pos = (283,730);
}
);
layerId = "1C59D977-65E2-41C6-912A-276E7E987498";
shapes = (
{
closed = 1;
nodes = (
(229,699,o),
(162,654,o),
(126,589,cs),
(84,513,o),
(66,385,o),
(66,202,cs),
(66,48,o),
(84,-7,o),
(149,-7,cs),
(200,-7,o),
(226,36,o),
(226,115,cs),
(226,173,o),
(215,257,o),
(200,302,c),
(195,299,l),
(241,272,o),
(286,265,o),
(326,265,cs),
(462,265,o),
(565,352,o),
(565,488,cs),
(565,614,o),
(492,699,o),
(333,699,cs)
);
},
{
closed = 1;
nodes = (
(241,373,o),
(208,409,o),
(208,469,cs),
(208,541,o),
(257,591,o),
(340,591,cs),
(415,591,o),
(449,547,o),
(449,488,cs),
(449,413,o),
(394,373,o),
(314,373,cs)
);
}
);
width = 590;
}
);
metricLeft = H;
metricRight = P;
},
{
color = 5;
glyphname = R.ss01;
kernLeft = LAT_UC_StemSlant;
kernRight = LAT_UC_R;
lastChange = "2021-09-08 17:18:16 +0000";
layers = (
{
anchors = (
{
name = bottom;
pos = (290,0);
},
{
name = top;
pos = (290,730);
}
);
background = {
shapes = (
{
closed = 1;
nodes = (
(203,-7,o),
(230,43,o),
(230,137,cs),
(230,186,o),
(222,254,o),
(213,292,c),
(215,292,l),
(275,70,o),
(318,5,o),
(387,5,cs),
(443,5,o),
(475,45,o),
(475,108,cs),
(475,189,o),
(435,258,o),
(326,315,c),
(326,317,l),
(415,352,o),
(480,418,o),
(480,548,cs),
(480,662,o),
(418,739,o),
(283,739,cs),
(208,739,o),
(149,715,o),
(100,644,cs),
(49,571,o),
(25,445,o),
(25,257,cs),
(25,63,o),
(48,-7,o),
(131,-7,cs)
);
},
{
closed = 1;
nodes = (
(231,414,o),
(220,439,o),
(220,474,cs),
(220,541,o),
(245,602,o),
(283,602,cs),
(303,602,o),
(313,575,o),
(313,538,cs),
(313,461,o),
(287,414,o),
(250,414,cs)
);
}
);
};
layerId = m004;
shapes = (
{
closed = 1;
nodes = (
(216,-27,o),
(240,9,o),
(240,77,cs),
(240,151,o),
(213,254,o),
(203,312,c),
(205,312,l),
(276,107,o),
(336,35,o),
(407,35,cs),
(450,35,o),
(475,67,o),
(475,118,cs),
(475,187,o),
(416,266,o),
(296,335,c),
(296,337,l),
(405,360,o),
(470,429,o),
(470,548,cs),
(470,656,o),
(411,729,o),
(283,729,cs),
(208,729,o),
(149,705,o),
(104,641,cs),
(54,568,o),
(25,461,o),
(25,297,cs),
(25,59,o),
(52,-27,o),
(151,-27,cs)
);
},
{
closed = 1;
nodes = (
(234,434,o),
(210,463,o),
(210,504,cs),
(210,566,o),
(245,622,o),
(300,622,cs),
(341,622,o),
(362,591,o),
(362,548,cs),
(362,477,o),
(327,434,o),
(277,434,cs)
);
}
);
width = 488;
},
{
anchors = (
{
name = bottom;
pos = (320,0);
},
{
name = top;
pos = (320,730);
}
);
layerId = "4BA625B0-8927-4B2E-B2D8-0167ED5E0445";
shapes = (
{
closed = 1;
nodes = (
(269,-27,o),
(300,23,o),
(300,117,cs),
(300,175,o),
(287,257,o),
(273,302,c),
(277,302,l),
(372,88,o),
(440,25,o),
(551,25,cs),
(615,25,o),
(655,63,o),
(655,123,cs),
(655,198,o),
(591,263,o),
(421,313,c),
(421,317,l),
(548,321,o),
(640,391,o),
(640,518,cs),
(640,644,o),
(557,729,o),
(378,729,cs),
(265,729,o),
(162,694,o),
(100,604,cs),
(56,540,o),
(25,440,o),
(25,297,cs),
(25,59,o),
(58,-27,o),
(181,-27,cs)
);
},
{
closed = 1;
nodes = (
(296,419,o),
(253,454,o),
(253,503,cs),
(253,558,o),
(304,607,o),
(384,607,cs),
(456,607,o),
(488,567,o),
(488,517,cs),
(488,457,o),
(438,419,o),
(367,419,cs)
);
}
);
width = 668;
},
{
anchors = (
{
name = bottom;
pos = (271,0);
},
{
name = top;
pos = (271,730);
}
);
layerId = "D96CDDDD-AAEE-4FD8-A377-74226937908C";
shapes = (
{
closed = 1;
nodes = (
(188,-27,o),
(206,17,o),
(206,97,cs),
(206,166,o),
(191,248,o),
(169,312,c),
(171,312,l),
(275,105,o),
(346,35,o),
(398,35,cs),
(429,35,o),
(446,54,o),
(446,83,cs),
(446,145,o),
(393,235,o),
(242,334,c),
(242,336,l),
(360,334,o),
(441,401,o),
(441,541,cs),
(441,653,o),
(391,729,o),
(282,729,cs),
(219,729,o),
(172,703,o),
(130,642,cs),
(79,569,o),
(55,444,o),
(55,265,cs),
(55,50,o),
(73,-27,o),
(141,-27,cs)
);
},
{
closed = 1;
nodes = (
(210,424,o),
(188,458,o),
(188,506,cs),
(188,580,o),
(219,647,o),
(279,647,cs),
(328,647,o),
(354,609,o),
(354,552,cs),
(354,473,o),
(311,424,o),
(257,424,cs)
);
}
);
width = 474;
},
{
anchors = (
{
name = bottom;
pos = (319,0);
},
{
name = top;
pos = (319,730);
}
);
layerId = "1C59D977-65E2-41C6-912A-276E7E987498";
shapes = (
{
closed = 1;
nodes = (
(209,-27,o),
(228,20,o),
(228,107,cs),
(228,172,o),
(215,262,o),
(201,312,c),
(205,312,l),
(359,105,o),
(474,35,o),
(559,35,cs),
(590,35,o),
(609,55,o),
(609,87,cs),
(609,148,o),
(518,236,o),
(294,332,c),
(294,336,l),
(466,316,o),
(604,387,o),
(604,543,cs),
(604,654,o),
(532,729,o),
(376,729,cs),
(280,729,o),
(194,700,o),
(141,623,cs),
(92,552,o),
(66,433,o),
(66,265,cs),
(66,50,o),
(86,-27,o),
(160,-27,cs)
);
},
{
closed = 1;
nodes = (
(254,417,o),
(217,454,o),
(217,506,cs),
(217,576,o),
(270,638,o),
(366,638,cs),
(451,638,o),
(494,597,o),
(494,535,cs),
(494,462,o),
(423,417,o),
(334,417,cs)
);
}
);
width = 642;
}
);
metricLeft = H;
metricRight = R;
},
{
color = 5;
glyphname = S.ss01;
kernLeft = LAT_UC_S;
kernRight = LAT_UC_S;
lastChange = "2021-09-08 15:55:32 +0000";
layers = (
{
anchors = (
{
name = bottom;
pos = (224,0);
},
{
name = top;
pos = (224,730);
}
);
layerId = m004;
shapes = (
{
closed = 1;
nodes = (
(306,17,o),
(395,95,o),
(395,211,cs),
(395,305,o),
(367,357,o),
(257,418,cs),
(213,443,o),
(197,456,o),
(197,474,cs),
(197,488,o),
(204,495,o),
(219,495,cs),
(239,495,o),
(273,476,o),
(312,476,cs),
(390,476,o),
(427,520,o),
(427,583,cs),
(427,671,o),
(363,716,o),
(277,716,cs),
(180,716,o),
(49,674,o),
(49,519,cs),
(49,421,o),
(81,385,o),
(174,323,cs),
(209,299,o),
(227,284,o),
(227,267,cs),
(227,245,o),
(215,234,o),
(191,234,cs),
(167,234,o),
(134,247,o),
(104,247,cs),
(38,247,o),
(10,211,o),
(10,152,cs),
(10,65,o),
(96,17,o),
(178,17,cs)
);
}
);
width = 437;
},
{
anchors = (
{
name = bottom;
pos = (274,0);
},
{
name = top;
pos = (274,730);
}
);
layerId = "4BA625B0-8927-4B2E-B2D8-0167ED5E0445";
shapes = (
{
closed = 1;
nodes = (
(418,17,o),
(535,103,o),
(535,231,cs),
(535,326,o),
(480,389,o),
(317,428,cs),
(249,444,o),
(232,456,o),
(232,473,cs),
(232,488,o),
(244,495,o),
(269,495,cs),
(303,495,o),
(382,476,o),
(432,476,cs),
(524,476,o),
(567,520,o),
(567,583,cs),
(567,665,o),
(487,716,o),
(362,716,cs),
(235,716,o),
(49,660,o),
(49,489,cs),
(49,386,o),
(100,334,o),
(234,309,cs),
(290,298,o),
(312,291,o),
(312,270,cs),
(312,255,o),
(297,244,o),
(266,244,cs),
(232,244,o),
(171,266,o),
(124,266,cs),
(44,266,o),
(10,235,o),
(10,172,cs),
(10,52,o),
(136,17,o),
(248,17,cs)
);
}
);
width = 577;
},
{
anchors = (
{
name = bottom;
pos = (217,0);
},
{
name = top;
pos = (217,730);
}
);
layerId = "D96CDDDD-AAEE-4FD8-A377-74226937908C";
shapes = (
{
closed = 1;
nodes = (
(291,17,o),
(375,97,o),
(375,216,cs),
(375,296,o),
(342,336,o),
(250,393,cs),
(190,430,o),
(175,456,o),
(175,500,cs),
(175,551,o),
(199,575,o),
(242,575,cs),
(277,575,o),
(305,556,o),
(325,556,cs),
(374,556,o),
(397,581,o),
(397,618,cs),
(397,678,o),
(340,716,o),
(260,716,cs),
(177,716,o),
(64,663,o),
(64,504,cs),
(64,417,o),
(98,369,o),
(182,316,cs),
(237,281,o),
(257,258,o),
(257,221,cs),
(257,179,o),
(238,154,o),
(199,154,cs),
(153,154,o),
(132,182,o),
(94,182,cs),
(51,182,o),
(25,155,o),
(25,115,cs),
(25,46,o),
(107,17,o),
(171,17,cs)
);
}
);
width = 422;
},
{
anchors = (
{
name = bottom;
pos = (288,0);
},
{
name = top;
pos = (288,730);
}
);
layerId = "1C59D977-65E2-41C6-912A-276E7E987498";
shapes = (
{
closed = 1;
nodes = (
(414,17,o),
(518,97,o),
(518,216,cs),
(518,301,o),
(474,360,o),
(331,404,cs),
(218,441,o),
(206,468,o),
(206,505,cs),
(206,554,o),
(241,575,o),
(303,575,cs),
(378,575,o),
(438,545,o),
(477,545,cs),
(526,545,o),
(550,570,o),
(550,607,cs),
(550,673,o),
(473,716,o),
(365,716,cs),
(248,716,o),
(84,661,o),
(84,493,cs),
(84,402,o),
(134,350,o),
(263,316,cs),
(370,285,o),
(388,263,o),
(388,229,cs),
(388,187,o),
(362,162,o),
(305,162,cs),
(216,162,o),
(157,210,o),
(97,210,cs),
(46,210,o),
(25,187,o),
(25,142,cs),
(25,55,o),
(176,17,o),
(263,17,cs)
);
}
);
width = 575;
}
);
metricLeft = S;
metricRight = S;
},
{
color = 5;
glyphname = T.ss01;
kernLeft = LAT_UC_T;
kernRight = LAT_UC_T;
lastChange = "2021-09-08 15:55:32 +0000";
layers = (
{
anchors = (
{
name = bottom;
pos = (219,0);
},
{
name = center;
pos = (219,365);
},
{
name = top;
pos = (219,730);
}
);
layerId = m004;
shapes = (
{
closed = 1;
nodes = (
(207,715,o),
(136,700,o),
(82,674,cs),
(32,650,o),
(5,617,o),
(5,561,cs),
(5,503,o),
(36,470,o),
(121,470,cs),
(153,470,o),
(183,477,o),
(205,487,c),
(181,517,l),
(125,412,o),
(72,224,o),
(72,114,cs),
(72,20,o),
(112,-27,o),
(189,-27,cs),
(294,-27,o),
(351,44,o),
(351,146,cs),
(351,232,o),
(317,408,o),
(258,520,c),
(228,492,l),
(245,488,o),
(276,484,o),
(297,484,cs),
(388,484,o),
(433,530,o),
(433,597,cs),
(433,699,o),
(352,715,o),
(281,715,cs)
);
}
);
width = 438;
},
{
anchors = (
{
name = bottom;
pos = (304,0);
},
{
name = center;
pos = (304,365);
},
{
name = top;
pos = (304,730);
}
);
layerId = "4BA625B0-8927-4B2E-B2D8-0167ED5E0445";
shapes = (
{
closed = 1;
nodes = (
(253,715,o),
(154,693,o),
(87,658,cs),
(34,631,o),
(5,598,o),
(5,544,cs),
(5,484,o),
(39,448,o),
(131,448,cs),
(166,448,o),
(223,459,o),
(255,472,c),
(251,487,l),
(190,388,o),
(132,210,o),
(132,104,cs),
(132,10,o),
(177,-37,o),
(264,-37,cs),
(372,-37,o),
(441,36,o),
(441,156,cs),
(441,233,o),
(411,390,o),
(358,490,c),
(358,472,l),
(394,466,o),
(427,462,o),
(457,462,cs),
(554,462,o),
(603,504,o),
(603,565,cs),
(603,707,o),
(477,715,o),
(376,715,cs)
);
}
);
width = 608;
},
{
anchors = (
{
name = bottom;
pos = (208,0);
},
{
name = center;
pos = (208,365);
},
{
name = top;
pos = (208,730);
}
);
layerId = "D96CDDDD-AAEE-4FD8-A377-74226937908C";
shapes = (
{
closed = 1;
nodes = (
(207,715,o),
(131,705,o),
(82,687,cs),
(33,669,o),
(16,650,o),
(16,619,cs),
(16,592,o),
(36,574,o),
(90,574,cs),
(122,574,o),
(173,583,o),
(203,593,c),
(175,605,l),
(143,473,o),
(110,236,o),
(110,97,cs),
(110,13,o),
(131,-27,o),
(178,-27,cs),
(245,-27,o),
(270,35,o),
(270,159,cs),
(270,262,o),
(259,473,o),
(242,608,c),
(228,595,l),
(251,591,o),
(291,588,o),
(318,588,cs),
(372,588,o),
(399,609,o),
(399,640,cs),
(399,699,o),
(326,715,o),
(260,715,cs)
);
}
);
width = 415;
},
{
anchors = (
{
name = bottom;
pos = (289,0);
},
{
name = center;
pos = (289,365);
},
{
name = top;
pos = (289,730);
}
);
layerId = "1C59D977-65E2-41C6-912A-276E7E987498";
shapes = (
{
closed = 1;
nodes = (
(237,715,o),
(145,696,o),
(87,672,cs),
(44,653,o),
(22,635,o),
(22,605,cs),
(22,573,o),
(44,554,o),
(105,554,cs),
(151,554,o),
(226,569,o),
(270,586,c),
(252,597,l),
(220,471,o),
(188,241,o),
(188,107,cs),
(188,16,o),
(209,-27,o),
(259,-27,cs),
(329,-27,o),
(355,35,o),
(355,159,cs),
(355,260,o),
(344,468,o),
(326,600,c),
(313,586,l),
(353,579,o),
(413,573,o),
(456,573,cs),
(522,573,o),
(555,596,o),
(555,630,cs),
(555,707,o),
(408,715,o),
(341,715,cs)
);
}
);
width = 577;
}
);
metricLeft = "=|L";
metricRight = L;
},
{
color = 5;
glyphname = U.ss01;
kernLeft = LAT_UC_U;
kernRight = LAT_UC_U;
lastChange = "2021-09-08 15:59:24 +0000";
layers = (
{
anchors = (
{
name = bottom;
pos = (274,0);
},
{
name = ogonek;
pos = (516,10);
},
{
name = top;
pos = (294,705);
},
{
name = topright;
pos = (557,730);
}
);
background = {
shapes = (
{
closed = 0;
nodes = (
(-15,314,ls),
(-15,115,o),
(111,-8,o),
(307,-8,cs),
(519,-8,o),
(656,119,o),
(656,325,cs)
);
},
{
closed = 0;
nodes = (
(420,361,ls),
(420,291,o),
(382,246,o),
(324,246,cs),
(266,246,o),
(228,291,o),
(228,361,cs)
);
},
{
closed = 0;
nodes = (
(195,419,l),
(224,485,o),
(240,564,o),
(240,622,cs),
(240,697,o),
(203,735,o),
(138,735,cs),
(66,735,o),
(29,689,o),
(12,614,cs),
(-5,541,o),
(-15,435,o),
(-15,327,cs)
);
},
{
closed = 0;
nodes = (
(548,383,ls),
(548,471,o),
(540,565,o),
(527,625,cs),
(511,702,o),
(475,741,o),
(403,741,cs),
(330,741,o),
(293,701,o),
(293,624,cs),
(293,570,o),
(301,497,o),
(318,426,c)
);
}
);
};
layerId = m004;
shapes = (
{
closed = 1;
nodes = (
(416,-28,o),
(512,89,o),
(512,305,cs),
(512,400,o),
(506,475,o),
(492,545,cs),
(477,622,o),
(455,661,o),
(392,661,cs),
(332,661,o),
(302,621,o),
(302,544,cs),
(302,489,o),
(320,358,o),
(320,285,cs),
(320,217,o),
(302,186,o),
(266,186,cs),
(228,186,o),
(205,213,o),
(205,280,cs),
(205,359,o),
(230,552,o),
(230,612,cs),
(230,680,o),
(203,715,o),
(153,715,cs),
(90,715,o),
(67,669,o),
(50,594,cs),
(33,519,o),
(25,377,o),
(25,274,cs),
(25,79,o),
(111,-28,o),
(255,-28,cs)
);
}
);
width = 537;
},
{
anchors = (
{
name = bottom;
pos = (307,0);
},
{
name = ogonek;
pos = (549,10);
},
{
name = top;
pos = (347,705);
},
{
name = topright;
pos = (590,730);
}
);
layerId = "4BA625B0-8927-4B2E-B2D8-0167ED5E0445";
shapes = (
{
closed = 1;
nodes = (
(489,-28,o),
(598,89,o),
(598,305,cs),
(598,390,o),
(589,475,o),
(575,545,cs),
(560,622,o),
(535,661,o),
(463,661,cs),
(397,661,o),
(363,621,o),
(363,544,cs),
(363,492,o),
(369,370,o),
(369,300,cs),
(369,225,o),
(346,191,o),
(297,191,cs),
(252,191,o),
(225,222,o),
(225,300,cs),
(225,374,o),
(250,556,o),
(250,612,cs),
(250,680,o),
(220,715,o),
(168,715,cs),
(96,715,o),
(62,669,o),
(48,594,cs),
(34,519,o),
(25,377,o),
(25,274,cs),
(25,79,o),
(125,-28,o),
(298,-28,cs)
);
}
);
width = 623;
},
{
anchors = (
{
name = bottom;
pos = (262,0);
},
{
name = ogonek;
pos = (504,10);
},
{
name = top;
pos = (282,705);
},
{
name = topright;
pos = (545,730);
}
);
layerId = "D96CDDDD-AAEE-4FD8-A377-74226937908C";
shapes = (
{
closed = 1;
nodes = (
(376,-28,o),
(448,75,o),
(448,290,cs),
(448,400,o),
(443,493,o),
(432,575,cs),
(424,632,o),
(407,661,o),
(366,661,cs),
(327,661,o),
(308,632,o),
(308,574,cs),
(308,511,o),
(324,356,o),
(324,273,cs),
(324,158,o),
(300,106,o),
(254,106,cs),
(203,106,o),
(176,150,o),
(176,273,cs),
(176,385,o),
(211,575,o),
(211,642,cs),
(211,691,o),
(191,715,o),
(156,715,cs),
(112,715,o),
(91,680,o),
(81,624,cs),
(67,537,o),
(55,378,o),
(55,259,cs),
(55,65,o),
(118,-28,o),
(238,-28,cs)
);
}
);
width = 503;
},
{
anchors = (
{
name = bottom;
pos = (310,0);
},
{
name = ogonek;
pos = (552,10);
},
{
name = top;
pos = (350,705);
},
{
name = topright;
pos = (593,730);
}
);
layerId = "1C59D977-65E2-41C6-912A-276E7E987498";
shapes = (
{
closed = 1;
nodes = (
(469,-28,o),
(555,81,o),
(555,313,cs),
(555,405,o),
(547,499,o),
(533,575,cs),
(523,632,o),
(500,661,o),
(453,661,cs),
(419,661,o),
(402,632,o),
(402,574,cs),
(402,517,o),
(418,379,o),
(418,303,cs),
(418,172,o),
(383,114,o),
(313,114,cs),
(240,114,o),
(200,163,o),
(200,303,cs),
(200,406,o),
(235,581,o),
(235,642,cs),
(235,691,o),
(216,715,o),
(182,715,cs),
(135,715,o),
(111,680,o),
(99,624,cs),
(81,543,o),
(66,393,o),
(66,282,cs),
(66,71,o),
(143,-28,o),
(297,-28,cs)
);
}
);
width = 621;
}
);
metricLeft = H;
metricRight = H;
},
{
color = 6;
glyphname = A.ss02;
kernLeft = LAT_UC_A;
kernRight = LAT_UC_A;
lastChange = "2021-09-08 17:04:16 +0000";
layers = (
{
anchors = (
{
name = bottom;
pos = (268,0);
},
{
name = ogonek;
pos = (506,10);
},
{
name = top;
pos = (298,730);
}
);
layerId = m004;
shapes = (
{
closed = 1;
nodes = (
(191,-7,o),
(213,30,o),
(228,84,cs),
(244,142,o),
(250,196,o),
(249,249,c),
(166,241,l),
(226,219,o),
(309,218,o),
(353,234,c),
(290,239,l),
(272,186,o),
(265,127,o),
(270,73,cs),
(277,0,o),
(308,-27,o),
(374,-27,cs),
(460,-27,o),
(520,51,o),
(520,243,cs),
(520,382,o),
(506,491,o),
(474,575,cs),
(432,685,o),
(374,739,o),
(286,739,cs),
(200,739,o),
(137,702,o),
(84,580,cs),
(41,482,o),
(15,325,o),
(15,217,cs),
(15,41,o),
(61,-7,o),
(127,-7,cs)
);
},
{
closed = 1;
nodes = (
(219,342,o),
(184,379,o),
(184,432,cs),
(184,494,o),
(221,540,o),
(276,540,cs),
(333,540,o),
(368,497,o),
(368,439,cs),
(368,381,o),
(332,342,o),
(274,342,cs)
);
}
);
width = 535;
},
{
anchors = (
{
name = bottom;
pos = (323,0);
},
{
name = ogonek;
pos = (561,10);
},
{
name = top;
pos = (353,730);
}
);
layerId = "4BA625B0-8927-4B2E-B2D8-0167ED5E0445";
shapes = (
{
closed = 1;
nodes = (
(223,-7,o),
(258,39,o),
(275,126,cs),
(285,177,o),
(291,241,o),
(290,307,c),
(206,241,l),
(275,219,o),
(372,218,o),
(423,234,c),
(360,239,l),
(353,208,o),
(351,175,o),
(351,142,cs),
(351,44,o),
(386,-27,o),
(484,-27,cs),
(597,-27,o),
(630,93,o),
(630,263,cs),
(630,382,o),
(615,488,o),
(580,575,cs),
(534,688,o),
(457,739,o),
(341,739,cs),
(227,739,o),
(141,696,o),
(84,570,cs),
(38,469,o),
(15,345,o),
(15,227,cs),
(15,91,o),
(38,-7,o),
(142,-7,cs)
);
},
{
closed = 1;
nodes = (
(264,339,o),
(219,384,o),
(219,442,cs),
(219,508,o),
(265,559,o),
(334,559,cs),
(404,559,o),
(447,511,o),
(447,453,cs),
(447,386,o),
(402,339,o),
(332,339,cs)
);
}
);
width = 645;
},
{
anchors = (
{
name = bottom;
pos = (246,0);
},
{
name = ogonek;
pos = (484,10);
},
{
name = top;
pos = (276,730);
}
);
layerId = "D96CDDDD-AAEE-4FD8-A377-74226937908C";
shapes = (
{
closed = 1;
nodes = (
(143,-7,o),
(162,14,o),
(178,76,cs),
(188,119,o),
(193,193,o),
(192,250,c),
(144,239,l),
(208,209,o),
(298,208,o),
(346,232,c),
(318,254,l),
(312,207,o),
(308,160,o),
(308,111,cs),
(308,28,o),
(321,-27,o),
(379,-27,cs),
(438,-27,o),
(468,55,o),
(468,231,cs),
(468,356,o),
(453,486,o),
(425,575,cs),
(388,693,o),
(340,739,o),
(265,739,cs),
(193,739,o),
(137,697,o),
(90,570,cs),
(49,459,o),
(30,325,o),
(30,215,cs),
(30,48,o),
(60,-7,o),
(114,-7,cs)
);
},
{
closed = 1;
nodes = (
(210,329,o),
(188,389,o),
(188,463,cs),
(188,557,o),
(222,617,o),
(260,617,cs),
(298,617,o),
(329,559,o),
(329,470,cs),
(329,391,o),
(307,329,o),
(258,329,cs)
);
}
);
width = 497.5;
},
{
anchors = (
{
name = bottom;
pos = (314,0);
},
{
name = ogonek;
pos = (552,10);
},
{
name = top;
pos = (344,730);
}
);
layerId = "1C59D977-65E2-41C6-912A-276E7E987498";
shapes = (
{
closed = 1;
nodes = (
(148,-7,o),
(176,21,o),
(189,100,cs),
(197,149,o),
(198,213,o),
(194,277,c),
(151,239,l),
(248,209,o),
(382,208,o),
(453,232,c),
(446,259,l),
(441,201,o),
(438,136,o),
(438,77,cs),
(438,2,o),
(462,-27,o),
(497,-27,cs),
(549,-27,o),
(594,41,o),
(594,211,cs),
(594,346,o),
(569,477,o),
(528,575,cs),
(479,692,o),
(416,739,o),
(332,739,cs),
(237,739,o),
(165,691,o),
(109,570,cs),
(53,449,o),
(30,325,o),
(30,195,cs),
(30,58,o),
(62,-7,o),
(111,-7,cs)
);
},
{
closed = 1;
nodes = (
(242,334,o),
(204,388,o),
(204,458,cs),
(204,543,o),
(260,612,o),
(323,612,cs),
(389,612,o),
(442,546,o),
(442,465,cs),
(442,390,o),
(405,334,o),
(321,334,cs)
);
}
);
width = 624;
}
);
metricLeft = A;
metricRight = A;
},
{
color = 6;
glyphname = E.ss02;
kernLeft = LAT_UC_Stem;
kernRight = LAT_UC_E;
lastChange = "2021-09-08 15:57:40 +0000";
layers = (
{
anchors = (
{
name = bottom;
pos = (244,-30);
},
{
name = ogonek;
pos = (455,-20);
},
{
name = top;
pos = (244,696);
},
{
name = topleft;
pos = (0,700);
}
);
layerId = m004;
shapes = (
{
closed = 1;
nodes = (
(199,706,o),
(121,688,o),
(82,635,cs),
(48,589,o),
(25,484,o),
(25,293,cs),
(25,158,o),
(36,88,o),
(64,40,cs),
(92,-9,o),
(149,-36,o),
(239,-36,cs),
(281,-36,o),
(328,-25,o),
(356,-11,cs),
(396,9,o),
(416,38,o),
(416,77,cs),
(416,142,o),
(382,169,o),
(310,169,cs),
(268,169,o),
(213,159,o),
(178,144,c),
(183,119,l),
(205,158,o),
(205,224,o),
(188,263,c),
(182,261,l),
(216,231,o),
(251,223,o),
(279,223,cs),
(348,223,o),
(373,262,o),
(373,311,cs),
(373,356,o),
(345,391,o),
(266,391,cs),
(240,391,o),
(205,388,o),
(185,383,c),
(191,376,l),
(202,416,o),
(202,463,o),
(189,501,c),
(179,478,l),
(213,473,o),
(246,471,o),
(271,471,cs),
(372,471,o),
(418,512,o),
(418,596,cs),
(418,668,o),
(384,706,o),
(288,706,cs)
);
}
);
width = 428;
},
{
anchors = (
{
name = bottom;
pos = (274,-30);
},
{
name = ogonek;
pos = (485,-20);
},
{
name = top;
pos = (274,696);
},
{
name = topleft;
pos = (30,700);
}
);
layerId = "4BA625B0-8927-4B2E-B2D8-0167ED5E0445";
shapes = (
{
closed = 1;
nodes = (
(261,706,o),
(129,698,o),
(82,635,cs),
(48,589,o),
(25,484,o),
(25,293,cs),
(25,158,o),
(36,88,o),
(64,40,cs),
(94,-10,o),
(164,-36,o),
(269,-36,cs),
(355,-36,o),
(453,-22,o),
(506,4,cs),
(549,26,o),
(566,50,o),
(566,92,cs),
(566,157,o),
(520,184,o),
(425,184,cs),
(358,184,o),
(271,174,o),
(213,159,c),
(213,149,l),
(235,181,o),
(235,232,o),
(218,263,c),
(212,261,l),
(264,232,o),
(316,223,o),
(359,223,cs),
(450,223,o),
(483,262,o),
(483,311,cs),
(483,356,o),
(452,391,o),
(366,391,cs),
(318,391,o),
(252,387,o),
(215,383,c),
(221,376,l),
(232,407,o),
(232,442,o),
(219,471,c),
(214,463,l),
(279,458,o),
(339,456,o),
(386,456,cs),
(510,456,o),
(568,497,o),
(568,581,cs),
(568,661,o),
(523,706,o),
(378,706,cs)
);
}
);
width = 578;
},
{
anchors = (
{
name = bottom;
pos = (244,-30);
},
{
name = ogonek;
pos = (455,-20);
},
{
name = top;
pos = (244,696);
},
{
name = topleft;
pos = (0,700);
}
);
layerId = "D96CDDDD-AAEE-4FD8-A377-74226937908C";
shapes = (
{
closed = 1;
nodes = (
(227,706,o),
(154,696,o),
(110,636,cs),
(78,589,o),
(55,484,o),
(55,293,cs),
(55,154,o),
(68,81,o),
(94,32,cs),
(118,-13,o),
(172,-36,o),
(254,-36,cs),
(289,-36,o),
(325,-29,o),
(349,-18,cs),
(381,-4,o),
(394,21,o),
(394,50,cs),
(394,95,o),
(372,114,o),
(328,114,cs),
(272,114,o),
(200,98,o),
(153,74,c),
(168,64,l),
(183,125,o),
(177,225,o),
(154,286,c),
(142,284,l),
(184,257,o),
(228,249,o),
(274,249,cs),
(330,249,o),
(351,278,o),
(351,314,cs),
(351,346,o),
(330,372,o),
(271,372,cs),
(233,372,o),
(182,367,o),
(153,361,c),
(157,354,l),
(181,427,o),
(186,512,o),
(174,581,c),
(154,566,l),
(201,561,o),
(247,559,o),
(281,559,cs),
(359,559,o),
(396,585,o),
(396,636,cs),
(396,682,o),
(367,706,o),
(316,706,cs)
);
}
);
width = 416.75;
},
{
anchors = (
{
name = bottom;
pos = (263,-30);
},
{
name = ogonek;
pos = (474,-20);
},
{
name = top;
pos = (263,696);
},
{
name = topleft;
pos = (19,700);
}
);
layerId = "1C59D977-65E2-41C6-912A-276E7E987498";
shapes = (
{
closed = 1;
nodes = (
(278,706,o),
(171,693,o),
(121,626,cs),
(89,579,o),
(66,484,o),
(66,293,cs),
(66,154,o),
(80,81,o),
(105,32,cs),
(130,-14,o),
(187,-36,o),
(273,-36,cs),
(347,-36,o),
(428,-21,o),
(476,-4,cs),
(525,14,o),
(544,35,o),
(544,65,cs),
(544,103,o),
(507,118,o),
(433,118,cs),
(353,118,o),
(248,102,o),
(181,78,c),
(192,72,l),
(207,131,o),
(200,227,o),
(178,286,c),
(166,284,l),
(225,257,o),
(289,249,o),
(355,249,cs),
(432,249,o),
(461,278,o),
(461,314,cs),
(461,346,o),
(434,372,o),
(362,372,cs),
(303,372,o),
(222,367,o),
(176,361,c),
(181,354,l),
(205,424,o),
(210,507,o),
(198,574,c),
(182,562,l),
(257,557,o),
(330,555,o),
(386,555,cs),
(496,555,o),
(546,581,o),
(546,632,cs),
(546,680,o),
(509,706,o),
(394,706,cs)
);
}
);
width = 572.375;
}
);
metricLeft = H;
metricRight = E;
},
{
color = 6;
glyphname = F.ss02;
lastChange = "2021-09-08 15:55:36 +0000";
layers = (
{
background = {
shapes = (
{
closed = 1;
nodes = (
(190,736,o),
(122,710,o),
(82,655,cs),
(47,608,o),
(25,520,o),
(25,323,cs),
(25,172,o),
(46,99,o),
(74,42,cs),
(92,6,o),
(122,-6,o),
(159,-6,cs),
(219,-6,o),
(256,21,o),
(256,107,cs),
(256,172,o),
(233,242,o),
(211,273,c),
(192,271,l),
(219,261,o),
(246,256,o),
(269,256,cs),
(338,256,o),
(363,299,o),
(363,354,cs),
(363,405,o),
(343,444,o),
(286,444,cs),
(257,444,o),
(217,434,o),
(195,423,c),
(211,416,l),
(218,459,o),
(218,501,o),
(209,531,c),
(199,508,l),
(226,503,o),
(251,501,o),
(271,501,cs),
(365,501,o),
(408,539,o),
(408,624,cs),
(408,693,o),
(380,736,o),
(278,736,cs)
);
}
);
};
layerId = m004;
shapes = (
{
closed = 1;
nodes = (
(194,746,o),
(132,720,o),
(92,665,cs),
(55,615,o),
(25,520,o),
(25,333,cs),
(25,85,o),
(74,-6,o),
(169,-6,cs),
(219,-6,o),
(256,21,o),
(256,107,cs),
(256,176,o),
(233,250,o),
(211,283,c),
(192,281,l),
(219,271,o),
(246,266,o),
(269,266,cs),
(338,266,o),
(363,309,o),
(363,364,cs),
(363,415,o),
(343,454,o),
(286,454,cs),
(257,454,o),
(217,444,o),
(195,433,c),
(211,426,l),
(218,469,o),
(218,511,o),
(209,541,c),
(199,528,l),
(226,523,o),
(251,521,o),
(271,521,cs),
(365,521,o),
(408,557,o),
(408,639,cs),
(408,705,o),
(380,746,o),
(278,746,cs)
);
}
);
width = 413;
},
{
background = {
shapes = (
{
closed = 1;
nodes = (
(233,736,o),
(131,712,o),
(82,645,cs),
(48,599,o),
(25,514,o),
(25,323,cs),
(25,197,o),
(47,105,o),
(74,50,cs),
(96,7,o),
(128,-6,o),
(169,-6,cs),
(235,-6,o),
(276,21,o),
(276,107,cs),
(276,172,o),
(253,242,o),
(231,273,c),
(222,271,l),
(260,261,o),
(298,256,o),
(329,256,cs),
(420,256,o),
(453,299,o),
(453,354,cs),
(453,405,o),
(425,444,o),
(346,444,cs),
(307,444,o),
(254,434,o),
(225,423,c),
(231,416,l),
(238,459,o),
(238,501,o),
(229,531,c),
(219,508,l),
(265,503,o),
(307,501,o),
(341,501,cs),
(462,501,o),
(518,539,o),
(518,624,cs),
(518,693,o),
(484,736,o),
(358,736,cs)
);
}
);
};
layerId = "4BA625B0-8927-4B2E-B2D8-0167ED5E0445";
shapes = (
{
closed = 1;
nodes = (
(248,746,o),
(143,716,o),
(92,645,cs),
(57,597,o),
(25,499,o),
(25,333,cs),
(25,94,o),
(79,-6,o),
(179,-6,cs),
(235,-6,o),
(276,21,o),
(276,107,cs),
(276,176,o),
(253,250,o),
(231,283,c),
(222,281,l),
(260,271,o),
(298,266,o),
(329,266,cs),
(420,266,o),
(453,309,o),
(453,364,cs),
(453,415,o),
(425,454,o),
(346,454,cs),
(307,454,o),
(254,444,o),
(225,433,c),
(231,426,l),
(238,469,o),
(238,511,o),
(229,541,c),
(219,528,l),
(265,523,o),
(307,521,o),
(341,521,cs),
(462,521,o),
(518,557,o),
(518,639,cs),
(518,705,o),
(484,746,o),
(358,746,cs)
);
}
);
width = 523;
},
{
background = {
shapes = (
{
closed = 1;
nodes = (
(209,736,o),
(151,718,o),
(112,665,cs),
(77,618,o),
(55,510,o),
(55,323,cs),
(55,177,o),
(77,92,o),
(104,32,cs),
(117,4,o),
(135,-6,o),
(159,-6,cs),
(200,-6,o),
(226,16,o),
(226,87,cs),
(226,179,o),
(203,279,o),
(181,323,c),
(152,316,l),
(183,306,o),
(214,301,o),
(239,301,cs),
(300,301,o),
(323,333,o),
(323,374,cs),
(323,411,o),
(305,439,o),
(256,439,cs),
(227,439,o),
(187,429,o),
(165,418,c),
(181,406,l),
(188,486,o),
(188,565,o),
(179,621,c),
(169,608,l),
(204,603,o),
(235,601,o),
(261,601,cs),
(341,601,o),
(378,624,o),
(378,674,cs),
(378,712,o),
(359,736,o),
(288,736,cs)
);
}
);
};
layerId = "D96CDDDD-AAEE-4FD8-A377-74226937908C";
shapes = (
{
closed = 1;
nodes = (
(223,746,o),
(160,727,o),
(122,675,cs),
(85,625,o),
(55,510,o),
(55,333,cs),
(55,93,o),
(104,-6,o),
(169,-6,cs),
(200,-6,o),
(226,16,o),
(226,87,cs),
(226,172,o),
(198,288,o),
(171,333,c),
(152,326,l),
(183,316,o),
(214,311,o),
(239,311,cs),
(300,311,o),
(323,343,o),
(323,384,cs),
(323,421,o),
(305,449,o),
(256,449,cs),
(227,449,o),
(187,439,o),
(165,428,c),
(171,416,l),
(188,496,o),
(188,575,o),
(179,631,c),
(169,618,l),
(204,613,o),
(235,611,o),
(261,611,cs),
(341,611,o),
(378,634,o),
(378,684,cs),
(378,722,o),
(359,746,o),
(288,746,cs)
);
}
);
width = 394;
},
{
background = {
shapes = (
{
closed = 1;
nodes = (
(258,736,o),
(170,709,o),
(123,645,cs),
(89,599,o),
(66,514,o),
(66,323,cs),
(66,177,o),
(92,104,o),
(115,50,cs),
(132,9,o),
(158,-6,o),
(190,-6,cs),
(231,-6,o),
(257,16,o),
(257,87,cs),
(257,179,o),
(234,279,o),
(212,323,c),
(203,311,l),
(241,301,o),
(279,296,o),
(310,296,cs),
(393,296,o),
(424,330,o),
(424,374,cs),
(424,414,o),
(398,444,o),
(327,444,cs),
(285,444,o),
(228,434,o),
(196,423,c),
(212,406,l),
(219,482,o),
(219,558,o),
(210,611,c),
(200,598,l),
(257,586,o),
(310,581,o),
(352,581,cs),
(446,581,o),
(489,605,o),
(489,659,cs),
(489,706,o),
(463,736,o),
(369,736,cs)
);
}
);
};
layerId = "1C59D977-65E2-41C6-912A-276E7E987498";
shapes = (
{
closed = 1;
nodes = (
(273,746,o),
(179,718,o),
(133,655,cs),
(97,606,o),
(66,504,o),
(66,333,cs),
(66,106,o),
(121,-6,o),
(197,-6,cs),
(231,-6,o),
(257,16,o),
(257,87,cs),
(257,172,o),
(229,288,o),
(202,333,c),
(203,321,l),
(241,311,o),
(279,306,o),
(310,306,cs),
(393,306,o),
(424,340,o),
(424,384,cs),
(424,424,o),
(398,454,o),
(327,454,cs),
(285,454,o),
(228,444,o),
(196,433,c),
(202,416,l),
(219,492,o),
(219,568,o),
(210,621,c),
(200,608,l),
(257,596,o),
(310,591,o),
(352,591,cs),
(446,591,o),
(489,615,o),
(489,669,cs),
(489,716,o),
(463,746,o),
(369,746,cs)
);
}
);
width = 511;
}
);
metricLeft = H;
metricRight = T;
},
{
color = 6;
glyphname = L.ss02;
kernLeft = LAT_UC_Stem;
kernRight = LAT_UC_L;
lastChange = "2021-09-08 15:55:36 +0000";
layers = (
{
anchors = (
{
name = bottom;
pos = (231,0);
},
{
name = center;
pos = (231,365);
},
{
name = top;
pos = (231,730);
},
{
name = topright;
pos = (461,730);
}
);
background = {
shapes = (
{
closed = 1;
nodes = (
(214,736,o),
(111,712,o),
(62,645,cs),
(28,599,o),
(5,514,o),
(5,323,cs),
(5,188,o),
(16,118,o),
(44,70,cs),
(73,20,o),
(119,-6,o),
(219,-6,cs),
(290,-6,o),
(371,7,o),
(416,29,cs),
(459,50,o),
(476,84,o),
(476,132,cs),
(476,208,o),
(435,239,o),
(350,239,cs),
(295,239,o),
(224,229,o),
(178,214,c),
(183,199,l),
(205,233,o),
(205,289,o),
(188,323,c),
(172,293,l),
(224,285,o),
(276,283,o),
(329,286,cs),
(417,291,o),
(453,324,o),
(453,376,cs),
(453,424,o),
(422,461,o),
(336,461,cs),
(285,461,o),
(214,454,o),
(175,445,c),
(191,436,l),
(198,475,o),
(198,514,o),
(189,541,c),
(179,508,l),
(228,503,o),
(275,501,o),
(311,501,cs),
(425,501,o),
(478,541,o),
(478,629,cs),
(478,695,o),
(448,736,o),
(338,736,cs)
);
}
);
};
layerId = m004;
shapes = (
{
closed = 1;
nodes = (
(319,-36,o),
(416,20,o),
(416,134,cs),
(416,204,o),
(378,245,o),
(312,245,cs),
(270,245,o),
(226,221,o),
(198,174,c),
(205,179,l),
(230,278,o),
(248,402,o),
(248,517,cs),
(248,626,o),
(222,715,o),
(143,715,cs),
(87,715,o),
(51,679,o),
(38,590,cs),
(30,535,o),
(25,404,o),
(25,313,cs),
(25,39,o),
(89,-36,o),
(224,-36,cs)
);
}
);
width = 421;
},
{
anchors = (
{
name = bottom;
pos = (261,0);
},
{
name = center;
pos = (261,365);
},
{
name = top;
pos = (261,730);
},
{
name = topright;
pos = (491,730);
}
);
layerId = "4BA625B0-8927-4B2E-B2D8-0167ED5E0445";
shapes = (
{
closed = 1;
nodes = (
(438,-36,o),
(571,26,o),
(571,179,cs),
(571,264,o),
(523,315,o),
(437,315,cs),
(366,315,o),
(292,281,o),
(243,214,c),
(255,209,l),
(274,298,o),
(288,409,o),
(288,512,cs),
(288,624,o),
(259,715,o),
(168,715,cs),
(105,715,o),
(61,679,o),
(43,580,cs),
(31,515,o),
(25,394,o),
(25,313,cs),
(25,78,o),
(119,-36,o),
(304,-36,cs)
);
}
);
width = 576;
},
{
anchors = (
{
name = bottom;
pos = (239,0);
},
{
name = center;
pos = (239,365);
},
{
name = top;
pos = (239,730);
},
{
name = topright;
pos = (469,730);
}
);
layerId = "D96CDDDD-AAEE-4FD8-A377-74226937908C";
shapes = (
{
closed = 1;
nodes = (
(289,-36,o),
(384,1,o),
(384,79,cs),
(384,117,o),
(361,139,o),
(315,139,cs),
(271,139,o),
(201,110,o),
(148,54,c),
(162,47,l),
(186,190,o),
(201,378,o),
(201,545,cs),
(201,633,o),
(185,705,o),
(138,705,cs),
(102,705,o),
(79,678,o),
(69,610,cs),
(61,556,o),
(55,449,o),
(55,341,cs),
(55,79,o),
(95,-36,o),
(219,-36,cs)
);
}
);
width = 399.75;
},
{
anchors = (
{
name = bottom;
pos = (257,0);
},
{
name = center;
pos = (257,365);
},
{
name = top;
pos = (257,730);
},
{
name = topright;
pos = (487,730);
}
);
layerId = "1C59D977-65E2-41C6-912A-276E7E987498";
shapes = (
{
closed = 1;
nodes = (
(375,-36,o),
(530,16,o),
(530,113,cs),
(530,150,o),
(504,171,o),
(448,171,cs),
(376,171,o),
(261,133,o),
(174,62,c),
(187,54,l),
(207,194,o),
(219,378,o),
(219,541,cs),
(219,631,o),
(203,705,o),
(153,705,cs),
(115,705,o),
(91,678,o),
(80,610,cs),
(70,556,o),
(66,449,o),
(66,341,cs),
(66,75,o),
(121,-36,o),
(280,-36,cs)
);
}
);
width = 551.625;
}
);
metricLeft = H;
metricRight = L;
},
{
color = 6;
glyphname = O.ss02;
kernLeft = LAT_UC_Round;
kernRight = LAT_UC_Round;
lastChange = "2021-09-08 15:57:23 +0000";
layers = (
{
anchors = (
{
name = bottom;
pos = (296,0);
},
{
name = center;
pos = (296,365);
},
{
name = ogonek;
pos = (532,10);
},
{
name = top;
pos = (296,678);
},
{
name = topleft;
pos = (20,730);
},
{
name = topright;
pos = (571,730);
}
);
layerId = m004;
shapes = (
{
closed = 1;
nodes = (
(463,-3,o),
(576,171,o),
(576,380,cs),
(576,564,o),
(468,688,o),
(301,688,cs),
(127,688,o),
(15,554,o),
(15,349,cs),
(15,133,o),
(121,-3,o),
(287,-3,cs)
);
},
{
closed = 1;
nodes = (
(276,211,o),
(258,256,o),
(258,336,cs),
(258,422,o),
(280,471,o),
(311,471,cs),
(335,471,o),
(350,430,o),
(350,356,cs),
(350,264,o),
(331,211,o),
(302,211,cs)
);
}
);
width = 591;
},
{
anchors = (
{
name = bottom;
pos = (376,0);
},
{
name = center;
pos = (376,365);
},
{
name = ogonek;
pos = (676,10);
},
{
name = top;
pos = (376,678);
},
{
name = topleft;
pos = (20,730);
},
{
name = topright;
pos = (731,730);
}
);
layerId = "4BA625B0-8927-4B2E-B2D8-0167ED5E0445";
shapes = (
{
closed = 1;
nodes = (
(591,-3,o),
(736,171,o),
(736,380,cs),
(736,564,o),
(596,688,o),
(381,688,cs),
(159,688,o),
(15,554,o),
(15,349,cs),
(15,133,o),
(163,-3,o),
(367,-3,cs)
);
},
{
closed = 1;
nodes = (
(314,221,o),
(268,266,o),
(268,336,cs),
(268,412,o),
(318,461,o),
(391,461,cs),
(459,461,o),
(500,420,o),
(500,356,cs),
(500,274,o),
(454,221,o),
(382,221,cs)
);
}
);
width = 751;
},
{
anchors = (
{
name = bottom;
pos = (259,0);
},
{
name = center;
pos = (259,365);
},
{
name = ogonek;
pos = (465,10);
},
{
name = top;
pos = (259,678);
},
{
name = topleft;
pos = (20,730);
},
{
name = topright;
pos = (497,730);
}
);
layerId = "D96CDDDD-AAEE-4FD8-A377-74226937908C";
shapes = (
{
closed = 1;
nodes = (
(390,-3,o),
(479,171,o),
(479,380,cs),
(479,564,o),
(394,688,o),
(263,688,cs),
(126,688,o),
(38,554,o),
(38,349,cs),
(38,133,o),
(121,-3,o),
(252,-3,cs)
);
},
{
closed = 1;
nodes = (
(212,121,o),
(180,201,o),
(180,343,cs),
(180,482,o),
(219,561,o),
(273,561,cs),
(316,561,o),
(342,496,o),
(342,376,cs),
(342,215,o),
(309,121,o),
(257,121,cs)
);
}
);
width = 517;
},
{
anchors = (
{
name = bottom;
pos = (390,0);
},
{
name = center;
pos = (390,365);
},
{
name = ogonek;
pos = (701,10);
},
{
name = top;
pos = (390,678);
},
{
name = topleft;
pos = (20,730);
},
{
name = topright;
pos = (759,730);
}
);
layerId = "1C59D977-65E2-41C6-912A-276E7E987498";
shapes = (
{
closed = 1;
nodes = (
(593,-3,o),
(730,171,o),
(730,380,cs),
(730,564,o),
(597,688,o),
(394,688,cs),
(185,688,o),
(49,554,o),
(49,349,cs),
(49,133,o),
(180,-3,o),
(383,-3,cs)
);
},
{
closed = 1;
nodes = (
(277,131,o),
(201,211,o),
(201,343,cs),
(201,478,o),
(285,560,o),
(404,560,cs),
(515,560,o),
(583,492,o),
(583,376,cs),
(583,225,o),
(508,131,o),
(388,131,cs)
);
}
);
width = 779;
}
);
metricLeft = O;
metricRight = O;
},
{
color = 6;
glyphname = P.ss02;
kernLeft = LAT_UC_StemSlant;
kernRight = LAT_UC_P;
lastChange = "2021-09-08 15:55:36 +0000";
layers = (
{
anchors = (
{
name = bottom;
pos = (278,0);
},
{
name = top;
pos = (278,730);
}
);
layerId = m004;
shapes = (
{
closed = 1;
nodes = (
(166,729,o),
(107,681,o),
(75,614,cs),
(41,544,o),
(25,451,o),
(25,307,cs),
(25,61,o),
(64,-27,o),
(161,-27,cs),
(232,-27,o),
(270,24,o),
(270,117,cs),
(270,175,o),
(255,257,o),
(234,302,c),
(190,274,l),
(216,260,o),
(240,255,o),
(262,255,cs),
(365,255,o),
(445,354,o),
(445,508,cs),
(445,640,o),
(386,729,o),
(258,729,cs)
);
},
{
closed = 1;
nodes = (
(232,364,o),
(218,402,o),
(218,456,cs),
(218,536,o),
(245,592,o),
(282,592,cs),
(314,592,o),
(324,551,o),
(324,497,cs),
(324,406,o),
(296,364,o),
(261,364,cs)
);
}
);
width = 455;
},
{
anchors = (
{
name = bottom;
pos = (278,0);
},
{
name = top;
pos = (278,730);
}
);
layerId = "4BA625B0-8927-4B2E-B2D8-0167ED5E0445";
shapes = (
{
closed = 1;
nodes = (
(204,729,o),
(126,678,o),
(85,604,cs),
(51,542,o),
(25,447,o),
(25,307,cs),
(25,61,o),
(57,-27,o),
(176,-27,cs),
(258,-27,o),
(300,28,o),
(300,127,cs),
(300,179,o),
(285,252,o),
(264,292,c),
(235,264,l),
(274,250,o),
(310,245,o),
(342,245,cs),
(477,245,o),
(580,344,o),
(580,498,cs),
(580,636,o),
(499,729,o),
(323,729,cs)
);
},
{
closed = 1;
nodes = (
(264,364,o),
(238,404,o),
(238,458,cs),
(238,527,o),
(280,592,o),
(351,592,cs),
(408,592,o),
(429,550,o),
(429,494,cs),
(429,414,o),
(380,364,o),
(315,364,cs)
);
}
);
width = 590;
},
{
anchors = (
{
name = bottom;
pos = (248,0);
},
{
name = top;
pos = (248,730);
}
);
layerId = "D96CDDDD-AAEE-4FD8-A377-74226937908C";
shapes = (
{
closed = 1;
nodes = (
(191,729,o),
(146,685,o),
(115,629,cs),
(74,555,o),
(55,440,o),
(55,262,cs),
(55,76,o),
(74,-27,o),
(144,-27,cs),
(192,-27,o),
(218,23,o),
(218,115,cs),
(218,179,o),
(203,272,o),
(182,322,c),
(163,269,l),
(193,242,o),
(221,235,o),
(247,235,cs),
(344,235,o),
(420,342,o),
(420,508,cs),
(420,640,o),
(372,729,o),
(268,729,cs)
);
},
{
closed = 1;
nodes = (
(206,339,o),
(189,374,o),
(189,457,cs),
(189,548,o),
(215,615,o),
(256,615,cs),
(292,615,o),
(310,570,o),
(310,487,cs),
(310,392,o),
(282,339,o),
(241,339,cs)
);
}
);
width = 445;
},
{
anchors = (
{
name = bottom;
pos = (293,0);
},
{
name = top;
pos = (293,730);
}
);
layerId = "1C59D977-65E2-41C6-912A-276E7E987498";
shapes = (
{
closed = 1;
nodes = (
(239,729,o),
(172,684,o),
(130,607,cs),
(93,540,o),
(66,434,o),
(66,262,cs),
(66,73,o),
(86,-27,o),
(159,-27,cs),
(203,-27,o),
(226,20,o),
(226,105,cs),
(226,163,o),
(215,247,o),
(200,292,c),
(185,279,l),
(235,252,o),
(283,245,o),
(326,245,cs),
(462,245,o),
(565,348,o),
(565,508,cs),
(565,640,o),
(495,729,o),
(343,729,cs)
);
},
{
closed = 1;
nodes = (
(241,353,o),
(208,385,o),
(208,459,cs),
(208,547,o),
(257,611,o),
(340,611,cs),
(415,611,o),
(449,561,o),
(449,494,cs),
(449,402,o),
(394,353,o),
(314,353,cs)
);
}
);
width = 590;
}
);
metricLeft = H;
metricRight = P;
},
{
color = 6;
glyphname = R.ss02;
kernLeft = LAT_UC_StemSlant;
kernRight = LAT_UC_R;
lastChange = "2021-09-08 17:18:23 +0000";
layers = (
{
anchors = (
{
name = bottom;
pos = (290,0);
},
{
name = top;
pos = (290,730);
}
);
background = {
shapes = (
{
closed = 1;
nodes = (
(218,-7,o),
(250,43,o),
(250,137,cs),
(250,186,o),
(242,254,o),
(233,292,c),
(235,292,l),
(313,70,o),
(367,5,o),
(456,5,cs),
(530,5,o),
(575,49,o),
(575,118,cs),
(575,204,o),
(507,274,o),
(335,329,c),
(291,316,l),
(438,301,o),
(580,364,o),
(580,528,cs),
(580,654,o),
(502,739,o),
(333,739,cs),
(230,739,o),
(138,708,o),
(80,624,cs),
(30,552,o),
(5,430,o),
(5,257,cs),
(5,63,o),
(32,-7,o),
(131,-7,cs)
);
},
{
closed = 1;
nodes = (
(260,434,o),
(235,463,o),
(235,504,cs),
(235,550,o),
(267,592,o),
(316,592,cs),
(359,592,o),
(378,560,o),
(378,518,cs),
(378,466,o),
(347,434,o),
(302,434,cs)
);
}
);
};
layerId = m004;
shapes = (
{
closed = 1;
nodes = (
(186,13,o),
(210,49,o),
(210,117,cs),
(210,162,o),
(200,249,o),
(193,292,c),
(195,292,l),
(255,55,o),
(306,-15,o),
(384,-15,cs),
(443,-15,o),
(475,25,o),
(475,98,cs),
(475,176,o),
(445,252,o),
(356,315,c),
(356,317,l),
(445,349,o),
(480,417,o),
(480,508,cs),
(480,652,o),
(392,719,o),
(256,719,cs),
(175,719,o),
(111,694,o),
(73,624,cs),
(40,562,o),
(25,456,o),
(25,297,cs),
(25,88,o),
(46,13,o),
(121,13,cs)
);
},
{
closed = 1;
nodes = (
(224,387,o),
(200,441,o),
(200,507,cs),
(200,569,o),
(223,617,o),
(260,617,cs),
(301,617,o),
(323,560,o),
(323,493,cs),
(323,423,o),
(299,387,o),
(265,387,cs)
);
}
);
width = 493;
},
{
anchors = (
{
name = bottom;
pos = (320,0);
},
{
name = top;
pos = (320,730);
}
);
background = {
shapes = (
{
closed = 1;
nodes = (
(239,-7,o),
(270,40,o),
(270,127,cs),
(270,179,o),
(257,252,o),
(243,292,c),
(247,292,l),
(342,70,o),
(410,5,o),
(521,5,cs),
(604,5,o),
(655,51,o),
(655,123,cs),
(655,198,o),
(594,263,o),
(431,313,c),
(431,317,l),
(564,321,o),
(660,391,o),
(660,518,cs),
(660,650,o),
(561,739,o),
(348,739,cs),
(247,739,o),
(150,716,o),
(100,644,cs),
(54,577,o),
(25,469,o),
(25,317,cs),
(25,79,o),
(52,-7,o),
(151,-7,cs)
);
},
{
closed = 1;
nodes = (
(305,444,o),
(273,475,o),
(273,519,cs),
(273,555,o),
(308,587,o),
(363,587,cs),
(417,587,o),
(441,553,o),
(441,508,cs),
(441,469,o),
(407,444,o),
(358,444,cs)
);
}
);
};
layerId = "4BA625B0-8927-4B2E-B2D8-0167ED5E0445";
shapes = (
{
closed = 1;
nodes = (
(239,-7,o),
(270,40,o),
(270,127,cs),
(270,179,o),
(257,252,o),
(243,292,c),
(247,292,l),
(342,70,o),
(410,5,o),
(521,5,cs),
(604,5,o),
(655,51,o),
(655,123,cs),
(655,198,o),
(605,263,o),
(481,313,c),
(481,317,l),
(581,321,o),
(660,387,o),
(660,508,cs),
(660,634,o),
(561,719,o),
(348,719,cs),
(247,719,o),
(146,701,o),
(91,620,cs),
(55,568,o),
(25,464,o),
(25,317,cs),
(25,79,o),
(52,-7,o),
(151,-7,cs)
);
},
{
closed = 1;
nodes = (
(282,397,o),
(240,449,o),
(240,512,cs),
(240,571,o),
(281,617,o),
(346,617,cs),
(419,617,o),
(458,562,o),
(458,498,cs),
(458,431,o),
(415,397,o),
(355,397,cs)
);
}
);
width = 673;
},
{
anchors = (
{
name = bottom;
pos = (271,0);
},
{
name = top;
pos = (271,730);
}
);
layerId = "D96CDDDD-AAEE-4FD8-A377-74226937908C";
shapes = (
{
closed = 1;
nodes = (
(169,13,o),
(186,53,o),
(186,127,cs),
(186,180,o),
(178,252,o),
(169,292,c),
(171,292,l),
(265,63,o),
(336,-15,o),
(388,-15,cs),
(425,-15,o),
(446,8,o),
(446,43,cs),
(446,110,o),
(390,207,o),
(252,314,c),
(252,316,l),
(356,314,o),
(441,384,o),
(441,531,cs),
(441,643,o),
(387,719,o),
(257,719,cs),
(202,719,o),
(144,703,o),
(110,642,cs),
(74,578,o),
(55,449,o),
(55,275,cs),
(55,82,o),
(70,13,o),
(126,13,cs)
);
},
{
closed = 1;
nodes = (
(230,399,o),
(198,446,o),
(198,523,cs),
(198,588,o),
(219,632,o),
(259,632,cs),
(305,632,o),
(329,572,o),
(329,505,cs),
(329,443,o),
(310,399,o),
(269,399,cs)
);
}
);
width = 474;
},
{
anchors = (
{
name = bottom;
pos = (319,0);
},
{
name = top;
pos = (319,730);
}
);
layerId = "1C59D977-65E2-41C6-912A-276E7E987498";
shapes = (
{
closed = 1;
nodes = (
(190,13,o),
(208,53,o),
(208,127,cs),
(208,180,o),
(200,252,o),
(191,292,c),
(195,292,l),
(344,63,o),
(457,-15,o),
(539,-15,cs),
(583,-15,o),
(609,9,o),
(609,47,cs),
(609,113,o),
(518,208,o),
(294,312,c),
(294,316,l),
(472,295,o),
(614,366,o),
(614,523,cs),
(614,640,o),
(530,719,o),
(346,719,cs),
(258,719,o),
(176,698,o),
(131,633,cs),
(83,564,o),
(66,438,o),
(66,265,cs),
(66,80,o),
(83,13,o),
(145,13,cs)
);
},
{
closed = 1;
nodes = (
(257,407,o),
(217,452,o),
(217,516,cs),
(217,575,o),
(260,628,o),
(341,628,cs),
(433,628,o),
(479,583,o),
(479,515,cs),
(479,448,o),
(419,407,o),
(344,407,cs)
);
}
);
width = 647;
}
);
metricLeft = H;
metricRight = R;
},
{
color = 6;
glyphname = S.ss02;
kernLeft = LAT_UC_S;
kernRight = LAT_UC_S;
lastChange = "2021-09-08 15:55:36 +0000";
layers = (
{
anchors = (
{
name = bottom;
pos = (264,0);
},
{
name = top;
pos = (264,750);
}
);
layerId = "4BA625B0-8927-4B2E-B2D8-0167ED5E0445";
shapes = (
{
closed = 1;
nodes = (
(414,-13,o),
(535,85,o),
(535,231,cs),
(535,345,o),
(478,407,o),
(307,458,cs),
(241,478,o),
(222,490,o),
(222,501,cs),
(222,511,o),
(234,515,o),
(259,515,cs),
(293,515,o),
(372,506,o),
(422,506,cs),
(514,506,o),
(557,554,o),
(557,623,cs),
(557,711,o),
(481,756,o),
(362,756,cs),
(227,756,o),
(29,700,o),
(29,499,cs),
(29,387,o),
(86,318,o),
(234,284,cs),
(290,271,o),
(312,262,o),
(312,243,cs),
(312,230,o),
(300,224,o),
(276,224,cs),
(244,224,o),
(188,236,o),
(144,236,cs),
(59,236,o),
(10,184,o),
(10,122,cs),
(10,17,o),
(130,-13,o),
(238,-13,cs)
);
}
);
width = 567;
},
{
anchors = (
{
name = bottom;
pos = (207,0);
},
{
name = top;
pos = (207,750);
}
);
layerId = "D96CDDDD-AAEE-4FD8-A377-74226937908C";
shapes = (
{
closed = 1;
nodes = (
(291,-13,o),
(375,71,o),
(375,196,cs),
(375,300,o),
(344,360,o),
(233,428,cs),
(166,468,o),
(145,495,o),
(145,540,cs),
(145,586,o),
(176,605,o),
(232,605,cs),
(267,605,o),
(296,601,o),
(315,601,cs),
(371,601,o),
(397,628,o),
(397,668,cs),
(397,722,o),
(344,756,o),
(270,756,cs),
(171,756,o),
(34,708,o),
(34,534,cs),
(34,435,o),
(71,379,o),
(162,323,cs),
(232,280,o),
(257,246,o),
(257,201,cs),
(257,159,o),
(235,134,o),
(189,134,cs),
(156,134,o),
(121,147,o),
(94,147,cs),
(46,147,o),
(25,123,o),
(25,80,cs),
(25,11,o),
(107,-13,o),
(171,-13,cs)
);
}
);
width = 422;
},
{
anchors = (
{
name = bottom;
pos = (268,0);
},
{
name = top;
pos = (268,750);
}
);
layerId = "1C59D977-65E2-41C6-912A-276E7E987498";
shapes = (
{
closed = 1;
nodes = (
(400,-13,o),
(508,71,o),
(508,206,cs),
(508,295,o),
(467,354,o),
(319,414,cs),
(197,463,o),
(176,484,o),
(176,525,cs),
(176,581,o),
(218,605,o),
(293,605,cs),
(360,605,o),
(412,590,o),
(447,590,cs),
(503,590,o),
(530,617,o),
(530,657,cs),
(530,717,o),
(449,756,o),
(335,756,cs),
(214,756,o),
(44,696,o),
(44,513,cs),
(44,417,o),
(98,372,o),
(233,326,cs),
(348,287,o),
(368,261,o),
(368,219,cs),
(368,171,o),
(335,142,o),
(265,142,cs),
(213,142,o),
(152,155,o),
(107,155,cs),
(49,155,o),
(25,132,o),
(25,87,cs),
(25,3,o),
(163,-13,o),
(243,-13,cs)
);
}
);
width = 555;
},
{
anchors = (
{
name = bottom;
pos = (284,0);
},
{
name = top;
pos = (284,730);
}
);
associatedMasterId = "4BA625B0-8927-4B2E-B2D8-0167ED5E0445";
layerId = "AECD645F-4906-468F-813E-A87E6A7C6C25";
name = "8 Sep 21, 14:39";
shapes = (
{
closed = 1;
nodes = (
(434,-3,o),
(555,87,o),
(555,221,cs),
(555,331,o),
(498,407,o),
(327,448,cs),
(260,464,o),
(242,470,o),
(242,483,cs),
(242,491,o),
(257,495,o),
(289,495,cs),
(321,495,o),
(395,486,o),
(442,486,cs),
(534,486,o),
(577,534,o),
(577,603,cs),
(577,691,o),
(497,736,o),
(372,736,cs),
(233,736,o),
(29,675,o),
(29,489,cs),
(29,375,o),
(82,315,o),
(224,289,cs),
(286,277,o),
(312,270,o),
(312,260,cs),
(312,251,o),
(297,244,o),
(266,244,cs),
(232,244,o),
(171,256,o),
(124,256,cs),
(44,256,o),
(10,222,o),
(10,152,cs),
(10,32,o),
(141,-3,o),
(258,-3,cs)
);
}
);
width = 587;
},
{
anchors = (
{
name = bottom;
pos = (224,0);
},
{
name = top;
pos = (224,730);
}
);
associatedMasterId = m004;
layerId = "B0FC6753-5A81-4FAF-8EBF-566FAD9C4801";
name = "8 Sep 21, 14:41";
shapes = (
{
closed = 1;
nodes = (
(322,-13,o),
(415,77,o),
(415,211,cs),
(415,305,o),
(380,366,o),
(257,423,cs),
(203,448,o),
(187,462,o),
(187,484,cs),
(187,505,o),
(198,515,o),
(219,515,cs),
(237,515,o),
(277,506,o),
(302,506,cs),
(394,506,o),
(437,554,o),
(437,623,cs),
(437,711,o),
(379,756,o),
(287,756,cs),
(182,756,o),
(29,693,o),
(29,499,cs),
(29,396,o),
(64,354,o),
(164,298,cs),
(209,273,o),
(227,257,o),
(227,235,cs),
(227,215,o),
(215,204,o),
(191,204,cs),
(180,204,o),
(147,207,o),
(124,207,cs),
(44,207,o),
(10,171,o),
(10,112,cs),
(10,25,o),
(101,-13,o),
(188,-13,cs)
);
}
);
width = 447;
},
{
anchors = (
{
name = bottom;
pos = (214,0);
},
{
name = top;
pos = (214,750);
}
);
layerId = m004;
name = "Cond Regular";
shapes = (
{
closed = 1;
nodes = (
(312,-13,o),
(405,81,o),
(405,221,cs),
(405,309,o),
(373,379,o),
(257,443,cs),
(197,476,o),
(177,492,o),
(177,504,cs),
(177,511,o),
(183,515,o),
(194,515,cs),
(215,515,o),
(262,506,o),
(292,506,cs),
(384,506,o),
(427,554,o),
(427,623,cs),
(427,711,o),
(369,756,o),
(277,756,cs),
(176,756,o),
(29,693,o),
(29,499,cs),
(29,407,o),
(64,335,o),
(164,283,cs),
(213,257,o),
(227,243,o),
(227,227,cs),
(227,219,o),
(219,214,o),
(203,214,cs),
(190,214,o),
(157,217,o),
(134,217,cs),
(47,217,o),
(10,175,o),
(10,114,cs),
(10,23,o),
(96,-13,o),
(178,-13,cs)
);
}
);
width = 437;
}
);
metricLeft = S;
metricRight = S;
},
{
color = 6;
glyphname = T.ss02;
kernLeft = LAT_UC_T;
kernRight = LAT_UC_T;
lastChange = "2021-09-08 15:55:36 +0000";
layers = (
{
anchors = (
{
name = bottom;
pos = (229,0);
},
{
name = center;
pos = (229,365);
},
{
name = top;
pos = (229,730);
}
);
background = {
shapes = (
{
closed = 1;
nodes = (
(179,735,o),
(118,722,o),
(80,703,cs),
(26,676,o),
(5,633,o),
(5,576,cs),
(5,512,o),
(49,475,o),
(141,475,cs),
(167,475,o),
(200,478,o),
(225,482,c),
(191,517,l),
(140,423,o),
(92,253,o),
(92,154,cs),
(92,60,o),
(135,13,o),
(219,13,cs),
(313,13,o),
(351,68,o),
(351,166,cs),
(351,248,o),
(321,414,o),
(268,520,c),
(238,483,l),
(263,480,o),
(286,479,o),
(307,479,cs),
(404,479,o),
(453,527,o),
(453,597,cs),
(453,650,o),
(439,690,o),
(383,713,cs),
(351,726,o),
(301,735,o),
(241,735,cs)
);
}
);
};
layerId = m004;
shapes = (
{
closed = 1;
nodes = (
(122,775,o),
(5,734,o),
(5,616,cs),
(5,546,o),
(55,505,o),
(161,505,cs),
(181,505,o),
(206,508,o),
(225,512,c),
(191,547,l),
(140,458,o),
(92,298,o),
(92,194,cs),
(92,77,o),
(138,13,o),
(229,13,cs),
(316,13,o),
(351,72,o),
(351,179,cs),
(351,262,o),
(321,438,o),
(268,550,c),
(238,513,l),
(256,510,o),
(272,509,o),
(287,509,cs),
(391,509,o),
(443,561,o),
(443,637,cs),
(443,741,o),
(344,775,o),
(241,775,cs)
);
}
);
width = 448;
},
{
anchors = (
{
name = bottom;
pos = (304,0);
},
{
name = center;
pos = (304,365);
},
{
name = top;
pos = (304,730);
}
);
background = {
shapes = (
{
closed = 1;
nodes = (
(212,735,o),
(144,724,o),
(95,699,cs),
(32,667,o),
(5,617,o),
(5,554,cs),
(5,481,o),
(39,438,o),
(131,438,cs),
(166,438,o),
(223,449,o),
(255,462,c),
(251,487,l),
(200,398,o),
(152,239,o),
(152,144,cs),
(152,43,o),
(200,-7,o),
(294,-7,cs),
(399,-7,o),
(441,52,o),
(441,156,cs),
(441,233,o),
(411,390,o),
(358,490,c),
(358,462,l),
(401,449,o),
(441,442,o),
(477,442,cs),
(561,442,o),
(603,496,o),
(603,575,cs),
(603,634,o),
(585,681,o),
(518,709,cs),
(474,726,o),
(412,735,o),
(316,735,cs)
);
}
);
};
layerId = "4BA625B0-8927-4B2E-B2D8-0167ED5E0445";
shapes = (
{
closed = 1;
nodes = (
(162,775,o),
(5,738,o),
(5,584,cs),
(5,511,o),
(55,468,o),
(191,468,cs),
(215,468,o),
(253,474,o),
(275,482,c),
(251,517,l),
(200,433,o),
(152,283,o),
(152,194,cs),
(152,73,o),
(207,13,o),
(314,13,cs),
(405,13,o),
(441,72,o),
(441,176,cs),
(441,255,o),
(411,417,o),
(358,520,c),
(328,482,l),
(357,476,o),
(383,472,o),
(407,472,cs),
(524,472,o),
(583,526,o),
(583,605,cs),
(583,746,o),
(447,775,o),
(316,775,cs)
);
}
);
width = 588;
},
{
anchors = (
{
name = bottom;
pos = (218,0);
},
{
name = center;
pos = (218,365);
},
{
name = top;
pos = (218,730);
}
);
background = {
shapes = (
{
closed = 1;
nodes = (
(160,735,o),
(104,725,o),
(66,708,cs),
(32,693,o),
(16,674,o),
(16,646,cs),
(16,604,o),
(47,579,o),
(130,579,cs),
(151,579,o),
(184,581,o),
(203,583,c),
(185,615,l),
(158,496,o),
(130,283,o),
(130,157,cs),
(130,59,o),
(154,13,o),
(208,13,cs),
(268,13,o),
(290,65,o),
(290,169,cs),
(290,272,o),
(275,483,o),
(252,618,c),
(238,585,l),
(260,584,o),
(280,583,o),
(298,583,cs),
(379,583,o),
(419,614,o),
(419,660,cs),
(419,685,o),
(409,702,o),
(376,715,cs),
(347,727,o),
(298,735,o),
(230,735,cs)
);
}
);
};
layerId = "D96CDDDD-AAEE-4FD8-A377-74226937908C";
shapes = (
{
closed = 1;
nodes = (
(114,775,o),
(16,739,o),
(16,676,cs),
(16,634,o),
(55,609,o),
(160,609,cs),
(175,609,o),
(199,611,o),
(213,613,c),
(185,645,l),
(158,529,o),
(130,320,o),
(130,197,cs),
(130,72,o),
(157,13,o),
(218,13,cs),
(271,13,o),
(290,72,o),
(290,189,cs),
(290,295,o),
(275,510,o),
(252,648,c),
(228,615,l),
(243,614,o),
(256,613,o),
(268,613,cs),
(362,613,o),
(409,644,o),
(409,690,cs),
(409,748,o),
(332,775,o),
(230,775,cs)
);
}
);
width = 425;
},
{
anchors = (
{
name = bottom;
pos = (299,0);
},
{
name = center;
pos = (299,365);
},
{
name = top;
pos = (299,730);
}
);
background = {
shapes = (
{
closed = 1;
nodes = (
(211,735,o),
(137,723,o),
(87,702,cs),
(43,683,o),
(22,660,o),
(22,625,cs),
(22,587,o),
(47,564,o),
(115,564,cs),
(161,564,o),
(236,579,o),
(280,596,c),
(262,607,l),
(235,486,o),
(208,266,o),
(208,137,cs),
(208,39,o),
(232,-7,o),
(289,-7,cs),
(352,-7,o),
(375,45,o),
(375,149,cs),
(375,255,o),
(360,472,o),
(336,610,c),
(323,596,l),
(377,577,o),
(430,568,o),
(476,568,cs),
(542,568,o),
(575,597,o),
(575,640,cs),
(575,669,o),
(561,692,o),
(517,709,cs),
(476,724,o),
(409,735,o),
(311,735,cs)
);
}
);
};
layerId = "1C59D977-65E2-41C6-912A-276E7E987498";
shapes = (
{
closed = 1;
nodes = (
(188,775,o),
(22,750,o),
(22,655,cs),
(22,610,o),
(64,599,o),
(165,599,cs),
(205,599,o),
(259,605,o),
(290,611,c),
(262,637,l),
(235,524,o),
(208,318,o),
(208,197,cs),
(208,72,o),
(233,13,o),
(294,13,cs),
(353,13,o),
(375,72,o),
(375,189,cs),
(375,293,o),
(360,505,o),
(336,640,c),
(313,611,l),
(349,606,o),
(385,603,o),
(416,603,cs),
(509,603,o),
(555,620,o),
(555,670,cs),
(555,762,o),
(405,775,o),
(311,775,cs)
);
}
);
width = 577;
}
);
metricLeft = "=|L";
metricRight = L;
},
{
color = 6;
glyphname = U.ss02;
kernLeft = LAT_UC_U;
kernRight = LAT_UC_U;
lastChange = "2021-09-08 15:58:53 +0000";
layers = (
{
anchors = (
{
name = bottom;
pos = (281,0);
},
{
name = ogonek;
pos = (523,10);
},
{
name = top;
pos = (281,735);
},
{
name = topright;
pos = (564,730);
}
);
background = {
shapes = (
{
closed = 1;
nodes = (
(441,-8,o),
(519,89,o),
(519,325,cs),
(519,420,o),
(511,544,o),
(497,615,cs),
(482,692,o),
(452,731,o),
(389,731,cs),
(329,731,o),
(299,691,o),
(299,614,cs),
(299,558,o),
(320,374,o),
(320,300,cs),
(320,249,o),
(304,226,o),
(273,226,cs),
(241,226,o),
(222,247,o),
(222,300,cs),
(222,379,o),
(247,552,o),
(247,612,cs),
(247,680,o),
(216,715,o),
(160,715,cs),
(97,715,o),
(66,669,o),
(49,594,cs),
(32,518,o),
(22,397,o),
(22,294,cs),
(22,79,o),
(90,-8,o),
(257,-8,cs)
);
}
);
};
layerId = m004;
shapes = (
{
closed = 1;
nodes = (
(437,22,o),
(493,121,o),
(510,355,cs),
(517,450,o),
(521,564,o),
(521,615,cs),
(521,692,o),
(476,731,o),
(413,731,cs),
(353,731,o),
(323,691,o),
(323,614,cs),
(323,564,o),
(319,426,o),
(314,360,cs),
(309,288,o),
(299,256,o),
(268,256,cs),
(236,256,o),
(218,286,o),
(218,360,cs),
(218,431,o),
(220,588,o),
(220,642,cs),
(220,710,o),
(189,745,o),
(133,745,cs),
(70,745,o),
(25,699,o),
(25,624,cs),
(25,548,o),
(29,407,o),
(39,284,cs),
(53,109,o),
(104,22,o),
(257,22,cs)
);
}
);
width = 546;
},
{
anchors = (
{
name = bottom;
pos = (324,0);
},
{
name = ogonek;
pos = (566,10);
},
{
name = top;
pos = (324,735);
},
{
name = topright;
pos = (607,730);
}
);
background = {
shapes = (
{
closed = 1;
nodes = (
(538,-8,o),
(632,89,o),
(632,325,cs),
(632,420,o),
(624,544,o),
(610,615,cs),
(595,692,o),
(559,731,o),
(487,731,cs),
(414,731,o),
(377,691,o),
(377,614,cs),
(377,564,o),
(403,397,o),
(403,330,cs),
(403,279,o),
(380,256,o),
(331,256,cs),
(284,256,o),
(255,277,o),
(255,330,cs),
(255,402,o),
(300,558,o),
(300,612,cs),
(300,680,o),
(259,715,o),
(188,715,cs),
(110,715,o),
(69,669,o),
(52,594,cs),
(35,518,o),
(25,397,o),
(25,294,cs),
(25,79,o),
(110,-8,o),
(315,-8,cs)
);
}
);
};
layerId = "4BA625B0-8927-4B2E-B2D8-0167ED5E0445";
shapes = (
{
closed = 1;
nodes = (
(508,22,o),
(601,113,o),
(617,305,cs),
(628,426,o),
(632,536,o),
(632,605,cs),
(632,682,o),
(589,731,o),
(517,731,cs),
(444,731,o),
(407,691,o),
(407,614,cs),
(407,568,o),
(405,412,o),
(400,350,cs),
(395,285,o),
(374,256,o),
(331,256,cs),
(284,256,o),
(255,286,o),
(255,360,cs),
(255,424,o),
(260,564,o),
(260,612,cs),
(260,700,o),
(219,745,o),
(148,745,cs),
(70,745,o),
(25,680,o),
(25,594,cs),
(25,523,o),
(30,419,o),
(41,304,cs),
(59,109,o),
(140,22,o),
(315,22,cs)
);
}
);
width = 657;
},
{
anchors = (
{
name = bottom;
pos = (258,0);
},
{
name = ogonek;
pos = (500,10);
},
{
name = top;
pos = (258,736);
},
{
name = topright;
pos = (541,730);
}
);
background = {
shapes = (
{
closed = 1;
nodes = (
(394,-8,o),
(458,85,o),
(458,310,cs),
(458,420,o),
(451,563,o),
(436,645,cs),
(427,702,o),
(407,731,o),
(366,731,cs),
(327,731,o),
(308,702,o),
(308,644,cs),
(308,581,o),
(334,376,o),
(334,293,cs),
(334,185,o),
(308,136,o),
(257,136,cs),
(201,136,o),
(172,177,o),
(172,293,cs),
(172,405,o),
(217,575,o),
(217,642,cs),
(217,691,o),
(195,715,o),
(157,715,cs),
(111,715,o),
(90,680,o),
(78,624,cs),
(60,537,o),
(51,398,o),
(51,279,cs),
(51,75,o),
(106,-8,o),
(241,-8,cs)
);
}
);
};
layerId = "D96CDDDD-AAEE-4FD8-A377-74226937908C";
shapes = (
{
closed = 1;
nodes = (
(377,32,o),
(429,125,o),
(442,290,cs),
(453,430,o),
(459,563,o),
(459,635,cs),
(459,712,o),
(427,741,o),
(386,741,cs),
(347,741,o),
(328,712,o),
(328,654,cs),
(328,591,o),
(329,416,o),
(324,333,cs),
(317,225,o),
(297,176,o),
(257,176,cs),
(212,176,o),
(187,217,o),
(187,333,cs),
(187,445,o),
(190,606,o),
(190,673,cs),
(190,722,o),
(170,746,o),
(132,746,cs),
(89,746,o),
(55,711,o),
(55,615,cs),
(55,528,o),
(60,398,o),
(72,259,cs),
(84,116,o),
(123,32,o),
(241,32,cs)
);
}
);
width = 514;
},
{
anchors = (
{
name = bottom;
pos = (336,0);
},
{
name = ogonek;
pos = (578,10);
},
{
name = top;
pos = (336,736);
},
{
name = topright;
pos = (619,730);
}
);
background = {
shapes = (
{
closed = 1;
nodes = (
(512,2,o),
(591,101,o),
(591,343,cs),
(591,445,o),
(583,579,o),
(569,655,cs),
(559,712,o),
(536,741,o),
(489,741,cs),
(448,741,o),
(428,712,o),
(428,654,cs),
(428,597,o),
(454,409,o),
(454,333,cs),
(454,209,o),
(416,154,o),
(339,154,cs),
(259,154,o),
(216,200,o),
(216,333,cs),
(216,436,o),
(261,591,o),
(261,652,cs),
(261,701,o),
(238,725,o),
(198,725,cs),
(146,725,o),
(123,690,o),
(111,634,cs),
(93,553,o),
(82,423,o),
(82,312,cs),
(82,91,o),
(152,2,o),
(323,2,cs)
);
}
);
};
layerId = "1C59D977-65E2-41C6-912A-276E7E987498";
shapes = (
{
closed = 1;
nodes = (
(463,32,o),
(540,125,o),
(558,310,cs),
(569,430,o),
(577,563,o),
(577,635,cs),
(577,712,o),
(543,741,o),
(498,741,cs),
(456,741,o),
(435,712,o),
(435,654,cs),
(435,591,o),
(436,416,o),
(428,333,cs),
(417,225,o),
(383,176,o),
(322,176,cs),
(254,176,o),
(215,217,o),
(215,343,cs),
(215,455,o),
(216,606,o),
(216,673,cs),
(216,722,o),
(195,746,o),
(153,746,cs),
(103,746,o),
(66,711,o),
(66,615,cs),
(66,538,o),
(72,398,o),
(85,279,cs),
(103,116,o),
(165,32,o),
(304,32,cs)
);
}
);
width = 643;
}
);
metricLeft = H;
metricRight = H;
},
{
color = 4;
glyphname = a;
kernLeft = LAT_lc_a;
kernRight = LAT_lc_a;
lastChange = "2021-09-01 16:51:43 +0000";
layers = (
{
associatedMasterId = m004;
background = {
shapes = (
{
closed = 1;
nodes = (
(518,-10,o),
(549,35,o),
(549,206,cs),
(549,310,o),
(537,403,o),
(508,477,cs),
(469,576,o),
(402,626,o),
(287,626,cs),
(157,626,o),
(45,565,o),
(45,477,cs),
(45,434,o),
(71,409,o),
(127,409,cs),
(168,409,o),
(211,422,o),
(247,422,cs),
(306,422,o),
(331,388,o),
(340,265,c),
(373,273,l),
(334,318,o),
(279,345,o),
(205,345,cs),
(87,345,o),
(10,275,o),
(10,165,cs),
(10,68,o),
(69,-13,o),
(196,-13,cs),
(282,-13,o),
(342,26,o),
(373,96,c),
(356,101,l),
(363,24,o),
(381,-10,o),
(445,-10,cs)
);
},
{
closed = 1;
nodes = (
(240,131,o),
(219,152,o),
(219,181,cs),
(219,213,o),
(244,237,o),
(283,237,cs),
(314,237,o),
(343,221,o),
(343,187,cs),
(343,149,o),
(305,131,o),
(274,131,cs)
);
}
);
};
layerId = "3830F71B-724E-4D53-9527-35E519E6FF5E";
name = "27 Jul 21, 23:17";
shapes = (
{
closed = 1;
nodes = (
(518,-10,o),
(549,35,o),
(549,206,cs),
(549,310,o),
(537,403,o),
(508,477,cs),
(469,576,o),
(402,626,o),
(287,626,cs),
(157,626,o),
(45,565,o),
(45,477,cs),
(45,434,o),
(71,409,o),
(127,409,cs),
(175,409,o),
(225,422,o),
(267,422,cs),
(306,422,o),
(329,409,o),
(329,380,cs),
(329,352,o),
(301,339,o),
(215,335,cs),
(87,330,o),
(10,275,o),
(10,165,cs),
(10,68,o),
(69,-13,o),
(196,-13,cs),
(282,-13,o),
(342,26,o),
(373,96,c),
(356,101,l),
(363,24,o),
(381,-10,o),
(445,-10,cs)
);
},
{
closed = 1;
nodes = (
(240,131,o),
(219,152,o),
(219,181,cs),
(219,213,o),
(244,237,o),
(283,237,cs),
(314,237,o),
(343,221,o),
(343,187,cs),
(343,149,o),
(305,131,o),
(274,131,cs)
);
}
);
width = 559;
},
{
anchors = (
{
name = bottom;
pos = (225,0);
},
{
name = ogonek;
pos = (452,10);
},
{
name = top;
pos = (205,626);
}
);
background = {
shapes = (
{
closed = 1;
nodes = (
(458,-10,o),
(489,35,o),
(489,206,cs),
(489,310,o),
(477,403,o),
(448,477,cs),
(409,576,o),
(322,626,o),
(207,626,cs),
(77,626,o),
(-35,565,o),
(-35,476,cs),
(-35,430,o),
(-6,399,o),
(45,399,cs),
(91,399,o),
(138,424,o),
(177,424,cs),
(244,424,o),
(281,382,o),
(281,275,c),
(313,273,l),
(274,318,o),
(219,345,o),
(145,345,cs),
(27,345,o),
(-50,275,o),
(-50,165,cs),
(-50,68,o),
(9,-13,o),
(136,-13,cs),
(222,-13,o),
(282,24,o),
(313,96,c),
(296,101,l),
(303,24,o),
(321,-10,o),
(385,-10,cs)
);
},
{
closed = 1;
nodes = (
(180,131,o),
(159,152,o),
(159,181,cs),
(159,213,o),
(184,237,o),
(223,237,cs),
(254,237,o),
(283,221,o),
(283,187,cs),
(283,149,o),
(245,131,o),
(214,131,cs)
);
}
);
};
layerId = m004;
name = Regular;
shapes = (
{
closed = 1;
nodes = (
(421,-10,o),
(449,35,o),
(449,206,cs),
(449,310,o),
(437,403,o),
(408,477,cs),
(370,574,o),
(303,626,o),
(207,626,cs),
(109,626,o),
(25,579,o),
(25,496,cs),
(25,450,o),
(50,419,o),
(95,419,cs),
(124,419,o),
(153,434,o),
(177,434,cs),
(231,434,o),
(261,389,o),
(261,275,c),
(293,273,l),
(263,318,o),
(221,345,o),
(165,345,cs),
(71,345,o),
(10,275,o),
(10,165,cs),
(10,68,o),
(56,-13,o),
(156,-13,cs),
(223,-13,o),
(269,24,o),
(293,96,c),
(276,101,l),
(302,24,o),
(318,-10,o),
(355,-10,cs)
);
},
{
closed = 1;
nodes = (
(209,121,o),
(199,146,o),
(199,181,cs),
(199,219,o),
(212,247,o),
(233,247,cs),
(249,247,o),
(263,228,o),
(263,187,cs),
(263,142,o),
(242,121,o),
(224,121,cs)
);
}
);
width = 469;
},
{
anchors = (
{
name = bottom;
pos = (325,0);
},
{
name = ogonek;
pos = (552,10);
},
{
name = top;
pos = (305,626);
}
);
layerId = "4BA625B0-8927-4B2E-B2D8-0167ED5E0445";
name = Regular;
shapes = (
{
closed = 1;
nodes = (
(584,-10,o),
(619,35,o),
(619,206,cs),
(619,310,o),
(607,403,o),
(578,477,cs),
(539,578,o),
(437,626,o),
(307,626,cs),
(156,626,o),
(25,558,o),
(25,466,cs),
(25,420,o),
(56,389,o),
(110,389,cs),
(169,389,o),
(228,419,o),
(277,419,cs),
(351,419,o),
(391,379,o),
(391,275,c),
(423,273,l),
(380,318,o),
(318,345,o),
(235,345,cs),
(99,345,o),
(10,275,o),
(10,165,cs),
(10,68,o),
(76,-13,o),
(216,-13,cs),
(317,-13,o),
(387,24,o),
(423,96,c),
(406,101,l),
(404,24,o),
(423,-10,o),
(500,-10,cs)
);
},
{
closed = 1;
nodes = (
(258,136,o),
(229,157,o),
(229,186,cs),
(229,218,o),
(262,242,o),
(313,242,cs),
(355,242,o),
(393,227,o),
(393,192,cs),
(393,155,o),
(344,136,o),
(304,136,cs)
);
}
);
width = 639;
},
{
anchors = (
{
name = bottom;
pos = (188,0);
},
{
name = ogonek;
pos = (415,10);
},
{
name = top;
pos = (198,626);
}
);
layerId = "D96CDDDD-AAEE-4FD8-A377-74226937908C";
name = Regular;
shapes = (
{
closed = 1;
nodes = (
(385,-10,o),
(404,25,o),
(404,161,cs),
(404,294,o),
(393,414,o),
(356,507,cs),
(325,584,o),
(274,626,o),
(200,626,cs),
(114,626,o),
(40,574,o),
(40,516,cs),
(40,482,o),
(58,459,o),
(88,459,cs),
(113,459,o),
(143,482,o),
(185,482,cs),
(236,482,o),
(263,428,o),
(269,290,c),
(286,288,l),
(259,333,o),
(223,360,o),
(173,360,cs),
(83,360,o),
(25,287,o),
(25,173,cs),
(25,72,o),
(69,-13,o),
(164,-13,cs),
(227,-13,o),
(271,24,o),
(293,96,c),
(284,101,l),
(293,24,o),
(305,-10,o),
(340,-10,cs)
);
},
{
closed = 1;
nodes = (
(171,99,o),
(154,128,o),
(154,181,cs),
(154,230,o),
(174,262,o),
(211,262,cs),
(242,262,o),
(271,238,o),
(271,187,cs),
(271,127,o),
(232,99,o),
(202,99,cs)
);
}
);
width = 454;
},
{
anchors = (
{
name = bottom;
pos = (334,0);
},
{
name = ogonek;
pos = (561,10);
},
{
name = top;
pos = (276,626);
}
);
layerId = "1C59D977-65E2-41C6-912A-276E7E987498";
name = Regular;
shapes = (
{
closed = 1;
nodes = (
(545,-10,o),
(565,25,o),
(565,161,cs),
(565,281,o),
(551,388,o),
(517,473,cs),
(477,573,o),
(398,626,o),
(290,626,cs),
(156,626,o),
(40,558,o),
(40,486,cs),
(40,452,o),
(59,429,o),
(91,429,cs),
(139,429,o),
(196,478,o),
(275,478,cs),
(364,478,o),
(412,425,o),
(422,290,c),
(439,288,l),
(394,333,o),
(330,360,o),
(244,360,cs),
(112,360,o),
(25,287,o),
(25,173,cs),
(25,72,o),
(92,-13,o),
(235,-13,cs),
(338,-13,o),
(410,24,o),
(447,96,c),
(437,101,l),
(440,24,o),
(452,-10,o),
(498,-10,cs)
);
},
{
closed = 1;
nodes = (
(202,102,o),
(162,130,o),
(162,181,cs),
(162,227,o),
(205,258,o),
(286,258,cs),
(358,258,o),
(424,235,o),
(424,187,cs),
(424,130,o),
(343,102,o),
(277,102,cs)
);
}
);
width = 626;
}
);
metricRight = n;
unicode = 97;
},
{
color = 4;
glyphname = b;
kernLeft = LAT_lc_LongStem;
lastChange = "2021-09-01 14:40:19 +0000";
layers = (
{
anchors = (
{
name = bottom;
pos = (270,0);
},
{
name = center;
pos = (270,310);
},
{
name = top;
pos = (270,620);
}
);
layerId = m004;
shapes = (
{
closed = 1;
nodes = (
(160,-10,o),
(190,33,o),
(203,129,c),
(182,140,l),
(194,47,o),
(239,-4,o),
(300,-4,cs),
(406,-4,o),
(484,99,o),
(484,306,cs),
(484,502,o),
(426,592,o),
(333,592,cs),
(257,592,o),
(215,525,o),
(199,439,c),
(211,433,l),
(228,515,o),
(237,600,o),
(237,659,cs),
(237,727,o),
(208,781,o),
(144,781,cs),
(83,781,o),
(55,733,o),
(42,656,cs),
(30,581,o),
(20,403,o),
(20,298,cs),
(20,203,o),
(28,115,o),
(39,63,cs),
(51,14,o),
(76,-10,o),
(114,-10,cs)
);
},
{
closed = 1;
nodes = (
(223,164,o),
(205,219,o),
(205,297,cs),
(205,378,o),
(223,418,o),
(250,418,cs),
(283,418,o),
(296,368,o),
(296,296,cs),
(296,205,o),
(275,164,o),
(252,164,cs)
);
}
);
width = 499;
},
{
anchors = (
{
name = bottom;
pos = (300,0);
},
{
name = center;
pos = (300,310);
},
{
name = top;
pos = (300,620);
}
);
layerId = "4BA625B0-8927-4B2E-B2D8-0167ED5E0445";
shapes = (
{
closed = 1;
nodes = (
(183,-10,o),
(217,33,o),
(233,129,c),
(212,140,l),
(229,47,o),
(290,-4,o),
(375,-4,cs),
(513,-4,o),
(614,99,o),
(614,306,cs),
(614,502,o),
(534,592,o),
(408,592,cs),
(307,592,o),
(251,525,o),
(229,439,c),
(241,433,l),
(258,515,o),
(267,600,o),
(267,659,cs),
(267,727,o),
(234,781,o),
(159,781,cs),
(89,781,o),
(55,733,o),
(42,656,cs),
(30,581,o),
(20,403,o),
(20,298,cs),
(20,203,o),
(28,115,o),
(39,63,cs),
(51,14,o),
(84,-10,o),
(129,-10,cs)
);
},
{
closed = 1;
nodes = (
(267,164,o),
(235,219,o),
(235,297,cs),
(235,378,o),
(267,418,o),
(315,418,cs),
(373,418,o),
(396,368,o),
(396,296,cs),
(396,205,o),
(360,164,o),
(317,164,cs)
);
}
);
width = 629;
},
{
anchors = (
{
name = bottom;
pos = (278,0);
},
{
name = center;
pos = (278,310);
},
{
name = top;
pos = (278,620);
}
);
layerId = "D96CDDDD-AAEE-4FD8-A377-74226937908C";
shapes = (
{
closed = 1;
nodes = (
(152,-10,o),
(172,33,o),
(177,129,c),
(163,140,l),
(175,47,o),
(223,-4,o),
(285,-4,cs),
(387,-4,o),
(462,99,o),
(462,306,cs),
(462,502,o),
(401,592,o),
(303,592,cs),
(228,592,o),
(178,523,o),
(162,439,c),
(181,463,l),
(198,545,o),
(207,630,o),
(207,689,cs),
(207,741,o),
(188,781,o),
(144,781,cs),
(101,781,o),
(84,744,o),
(75,686,cs),
(62,605,o),
(50,412,o),
(50,298,cs),
(50,197,o),
(57,103,o),
(69,48,cs),
(79,10,o),
(95,-10,o),
(122,-10,cs)
);
},
{
closed = 1;
nodes = (
(207,112,o),
(175,189,o),
(175,299,cs),
(175,419,o),
(208,478,o),
(258,478,cs),
(312,478,o),
(334,404,o),
(334,298,cs),
(334,170,o),
(299,112,o),
(260,112,cs)
);
}
);
width = 496;
},
{
anchors = (
{
name = bottom;
pos = (296,0);
},
{
name = center;
pos = (296,310);
},
{
name = top;
pos = (296,620);
}
);
layerId = "1C59D977-65E2-41C6-912A-276E7E987498";
shapes = (
{
closed = 1;
nodes = (
(169,-10,o),
(190,33,o),
(196,129,c),
(182,140,l),
(199,47,o),
(265,-4,o),
(349,-4,cs),
(483,-4,o),
(582,99,o),
(582,306,cs),
(582,502,o),
(498,592,o),
(367,592,cs),
(267,592,o),
(202,523,o),
(180,439,c),
(200,463,l),
(217,545,o),
(226,630,o),
(226,689,cs),
(226,741,o),
(206,781,o),
(159,781,cs),
(114,781,o),
(96,744,o),
(86,686,cs),
(73,605,o),
(61,412,o),
(61,298,cs),
(61,197,o),
(69,103,o),
(80,48,cs),
(90,10,o),
(108,-10,o),
(137,-10,cs)
);
},
{
closed = 1;
nodes = (
(243,112,o),
(194,189,o),
(194,299,cs),
(194,419,o),
(243,478,o),
(318,478,cs),
(410,478,o),
(446,404,o),
(446,298,cs),
(446,170,o),
(387,112,o),
(320,112,cs)
);
}
);
width = 622;
}
);
metricLeft = n;
metricRight = o;
unicode = 98;
},
{
color = 4;
glyphname = c;
kernLeft = LAT_lc_Round;
lastChange = "2021-09-01 16:51:00 +0000";
layers = (
{
anchors = (
{
name = bottom;
pos = (209,0);
},
{
name = top;
pos = (209,620);
}
);
layerId = m004;
shapes = (
{
closed = 1;
nodes = (
(352,-11,o),
(407,43,o),
(407,128,cs),
(407,196,o),
(362,231,o),
(301,231,cs),
(285,231,o),
(268,227,o),
(257,227,cs),
(230,227,o),
(213,246,o),
(213,294,cs),
(213,342,o),
(228,368,o),
(259,368,cs),
(270,368,o),
(284,363,o),
(301,363,cs),
(380,363,o),
(423,406,o),
(423,476,cs),
(423,554,o),
(375,600,o),
(286,600,cs),
(115,600,o),
(15,459,o),
(15,261,cs),
(15,90,o),
(86,-11,o),
(241,-11,cs)
);
}
);
width = 428;
},
{
anchors = (
{
name = bottom;
pos = (269,0);
},
{
name = top;
pos = (269,620);
}
);
layerId = "4BA625B0-8927-4B2E-B2D8-0167ED5E0445";
shapes = (
{
closed = 1;
nodes = (
(461,-11,o),
(542,51,o),
(542,150,cs),
(542,215,o),
(497,250,o),
(436,250,cs),
(393,250,o),
(346,237,o),
(317,237,cs),
(272,237,o),
(243,255,o),
(243,294,cs),
(243,336,o),
(269,358,o),
(319,358,cs),
(350,358,o),
(389,353,o),
(436,353,cs),
(515,353,o),
(558,392,o),
(558,456,cs),
(558,546,o),
(487,600,o),
(356,600,cs),
(142,600,o),
(15,459,o),
(15,261,cs),
(15,90,o),
(103,-11,o),
(296,-11,cs)
);
}
);
width = 563;
},
{
anchors = (
{
name = bottom;
pos = (205,0);
},
{
name = top;
pos = (205,620);
}
);
layerId = "D96CDDDD-AAEE-4FD8-A377-74226937908C";
shapes = (
{
closed = 1;
nodes = (
(318,-11,o),
(366,40,o),
(366,91,cs),
(366,127,o),
(343,146,o),
(312,146,cs),
(290,146,o),
(271,130,o),
(238,130,cs),
(193,130,o),
(164,176,o),
(164,287,cs),
(164,403,o),
(194,466,o),
(255,466,cs),
(281,466,o),
(297,453,o),
(321,453,cs),
(358,453,o),
(382,476,o),
(382,514,cs),
(382,564,o),
(344,600,o),
(275,600,cs),
(123,600,o),
(34,459,o),
(34,261,cs),
(34,90,o),
(93,-11,o),
(222,-11,cs)
);
}
);
width = 386.75;
},
{
anchors = (
{
name = bottom;
pos = (271,0);
},
{
name = top;
pos = (271,620);
}
);
layerId = "1C59D977-65E2-41C6-912A-276E7E987498";
shapes = (
{
closed = 1;
nodes = (
(458,-11,o),
(533,49,o),
(533,111,cs),
(533,147,o),
(510,167,o),
(480,167,cs),
(434,167,o),
(394,137,o),
(327,137,cs),
(235,137,o),
(178,182,o),
(178,287,cs),
(178,398,o),
(233,458,o),
(344,458,cs),
(407,458,o),
(442,434,o),
(480,434,cs),
(525,434,o),
(549,457,o),
(549,495,cs),
(549,556,o),
(484,600,o),
(363,600,cs),
(160,600,o),
(40,459,o),
(40,261,cs),
(40,90,o),
(123,-11,o),
(307,-11,cs)
);
}
);
width = 553.625;
}
);
metricLeft = o;
unicode = 99;
},
{
color = 4;
glyphname = d;
kernLeft = LAT_lc_Round;
lastChange = "2021-09-01 14:39:56 +0000";
layers = (
{
anchors = (
{
name = bottom;
pos = (236,0);
},
{
name = center;
pos = (236,310);
},
{
name = top;
pos = (236,800);
},
{
name = topright;
pos = (512,800);
}
);
layerId = m004;
shapes = (
{
closed = 1;
nodes = (
(244,-14,o),
(299,39,o),
(328,122,c),
(308,122,l),
(311,28,o),
(325,-10,o),
(376,-10,cs),
(444,-10,o),
(492,52,o),
(492,275,cs),
(492,398,o),
(477,565,o),
(458,649,cs),
(436,742,o),
(400,788,o),
(340,788,cs),
(288,788,o),
(265,751,o),
(265,687,cs),
(265,644,o),
(275,548,o),
(288,477,c),
(304,481,l),
(268,539,o),
(225,573,o),
(166,573,cs),
(69,573,o),
(15,484,o),
(15,284,cs),
(15,82,o),
(73,-14,o),
(171,-14,cs)
);
},
{
closed = 1;
nodes = (
(228,164,o),
(210,215,o),
(210,287,cs),
(210,368,o),
(228,408,o),
(255,408,cs),
(288,408,o),
(301,358,o),
(301,286,cs),
(301,202,o),
(280,164,o),
(257,164,cs)
);
}
);
width = 512;
},
{
anchors = (
{
name = bottom;
pos = (326,0);
},
{
name = center;
pos = (326,310);
},
{
name = top;
pos = (326,800);
},
{
name = topright;
pos = (602,800);
}
);
layerId = "4BA625B0-8927-4B2E-B2D8-0167ED5E0445";
shapes = (
{
closed = 1;
nodes = (
(310,-14,o),
(382,39,o),
(418,122,c),
(398,122,l),
(401,28,o),
(420,-10,o),
(481,-10,cs),
(558,-10,o),
(612,52,o),
(612,275,cs),
(612,398,o),
(597,565,o),
(578,649,cs),
(556,742,o),
(513,788,o),
(445,788,cs),
(383,788,o),
(355,751,o),
(355,687,cs),
(355,644,o),
(365,548,o),
(378,477,c),
(394,481,l),
(346,539,o),
(290,573,o),
(211,573,cs),
(86,573,o),
(15,484,o),
(15,284,cs),
(15,82,o),
(90,-14,o),
(216,-14,cs)
);
},
{
closed = 1;
nodes = (
(270,164,o),
(240,215,o),
(240,287,cs),
(240,368,o),
(270,408,o),
(315,408,cs),
(369,408,o),
(391,358,o),
(391,286,cs),
(391,202,o),
(357,164,o),
(317,164,cs)
);
}
);
width = 632;
},
{
anchors = (
{
name = bottom;
pos = (225,0);
},
{
name = center;
pos = (225,310);
},
{
name = top;
pos = (225,800);
},
{
name = topright;
pos = (501,800);
}
);
layerId = "D96CDDDD-AAEE-4FD8-A377-74226937908C";
shapes = (
{
closed = 1;
nodes = (
(263,-14,o),
(313,39,o),
(339,122,c),
(325,122,l),
(322,28,o),
(333,-10,o),
(372,-10,cs),
(419,-10,o),
(451,45,o),
(451,245,cs),
(451,388,o),
(430,566,o),
(405,672,cs),
(387,751,o),
(362,788,o),
(319,788,cs),
(290,788,o),
(276,762,o),
(276,717,cs),
(276,668,o),
(296,558,o),
(314,477,c),
(323,481,l),
(291,539,o),
(253,573,o),
(200,573,cs),
(93,573,o),
(34,484,o),
(34,284,cs),
(34,82,o),
(95,-14,o),
(197,-14,cs)
);
},
{
closed = 1;
nodes = (
(199,110,o),
(169,183,o),
(169,286,cs),
(169,402,o),
(199,459,o),
(244,459,cs),
(298,459,o),
(327,387,o),
(327,285,cs),
(327,165,o),
(290,110,o),
(247,110,cs)
);
}
);
width = 500.75;
},
{
anchors = (
{
name = bottom;
pos = (332,0);
},
{
name = center;
pos = (332,310);
},
{
name = top;
pos = (332,800);
},
{
name = topright;
pos = (608,800);
}
);
layerId = "1C59D977-65E2-41C6-912A-276E7E987498";
shapes = (
{
closed = 1;
nodes = (
(340,-14,o),
(411,39,o),
(447,122,c),
(432,122,l),
(429,28,o),
(441,-10,o),
(483,-10,cs),
(532,-10,o),
(566,45,o),
(566,245,cs),
(566,388,o),
(545,566,o),
(520,672,cs),
(501,751,o),
(475,788,o),
(430,788,cs),
(398,788,o),
(384,762,o),
(384,717,cs),
(384,668,o),
(403,558,o),
(422,477,c),
(430,481,l),
(384,539,o),
(328,573,o),
(251,573,cs),
(115,573,o),
(40,484,o),
(40,284,cs),
(40,82,o),
(117,-14,o),
(248,-14,cs)
);
},
{
closed = 1;
nodes = (
(229,110,o),
(182,183,o),
(182,286,cs),
(182,402,o),
(229,459,o),
(299,459,cs),
(387,459,o),
(435,387,o),
(435,285,cs),
(435,165,o),
(372,110,o),
(301,110,cs)
);
}
);
width = 627;
}
);
metricLeft = o;
metricRight = "=|n";
unicode = 100;
},
{
color = 4;
glyphname = e;
kernLeft = LAT_lc_Round;
kernRight = LAT_lc_e;
lastChange = "2021-09-01 14:48:28 +0000";
layers = (
{
anchors = (
{
name = bottom;
pos = (275,0);
},
{
name = ogonek;
pos = (510,10);
},
{
name = top;
pos = (295,612);
}
);
layerId = m004;
shapes = (
{
closed = 1;
nodes = (
(399,-8,o),
(474,52,o),
(474,131,cs),
(474,194,o),
(428,219,o),
(392,219,cs),
(344,219,o),
(323,173,o),
(253,173,cs),
(215,173,o),
(194,195,o),
(194,252,cs),
(194,268,o),
(195,284,o),
(197,300,c),
(173,259,l),
(192,248,o),
(218,241,o),
(244,241,cs),
(364,241,o),
(448,317,o),
(448,440,cs),
(448,542,o),
(394,612,o),
(276,612,cs),
(125,612,o),
(15,485,o),
(15,268,cs),
(15,96,o),
(80,-8,o),
(259,-8,cs)
);
},
{
closed = 1;
nodes = (
(211,341,o),
(199,359,o),
(199,391,cs),
(199,446,o),
(227,497,o),
(259,497,cs),
(278,497,o),
(289,474,o),
(289,443,cs),
(289,385,o),
(262,341,o),
(231,341,cs)
);
}
);
width = 479;
},
{
anchors = (
{
name = bottom;
pos = (305,0);
},
{
name = ogonek;
pos = (540,10);
},
{
name = top;
pos = (325,612);
}
);
layerId = "4BA625B0-8927-4B2E-B2D8-0167ED5E0445";
shapes = (
{
closed = 1;
nodes = (
(539,-8,o),
(639,58,o),
(639,146,cs),
(639,209,o),
(593,234,o),
(557,234,cs),
(505,234,o),
(451,188,o),
(343,188,cs),
(268,188,o),
(224,210,o),
(224,267,cs),
(224,283,o),
(225,299,o),
(227,315,c),
(203,259,l),
(239,248,o),
(286,241,o),
(334,241,cs),
(490,241,o),
(598,317,o),
(598,440,cs),
(598,542,o),
(526,612,o),
(366,612,cs),
(163,612,o),
(15,485,o),
(15,268,cs),
(15,96,o),
(104,-8,o),
(349,-8,cs)
);
},
{
closed = 1;
nodes = (
(252,341,o),
(229,358,o),
(229,387,cs),
(229,432,o),
(286,472,o),
(349,472,cs),
(386,472,o),
(409,451,o),
(409,422,cs),
(409,376,o),
(355,341,o),
(291,341,cs)
);
}
);
width = 644;
},
{
anchors = (
{
name = bottom;
pos = (249,0);
},
{
name = ogonek;
pos = (484,10);
},
{
name = top;
pos = (269,612);
}
);
layerId = "D96CDDDD-AAEE-4FD8-A377-74226937908C";
shapes = (
{
closed = 1;
nodes = (
(376,-8,o),
(440,50,o),
(440,109,cs),
(440,144,o),
(415,167,o),
(388,167,cs),
(353,167,o),
(330,132,o),
(249,132,cs),
(187,132,o),
(153,168,o),
(153,260,cs),
(153,276,o),
(154,292,o),
(156,308,c),
(132,267,l),
(157,241,o),
(191,226,o),
(225,226,cs),
(337,226,o),
(414,305,o),
(414,433,cs),
(414,539,o),
(363,612,o),
(257,612,cs),
(128,612,o),
(34,485,o),
(34,268,cs),
(34,96,o),
(93,-8,o),
(255,-8,cs)
);
},
{
closed = 1;
nodes = (
(184,319,o),
(165,340,o),
(165,379,cs),
(165,448,o),
(199,512,o),
(246,512,cs),
(283,512,o),
(300,479,o),
(300,432,cs),
(300,368,o),
(267,319,o),
(216,319,cs)
);
}
);
width = 467.75;
},
{
anchors = (
{
name = bottom;
pos = (319,0);
},
{
name = ogonek;
pos = (554,10);
},
{
name = top;
pos = (339,612);
}
);
layerId = "1C59D977-65E2-41C6-912A-276E7E987498";
shapes = (
{
closed = 1;
nodes = (
(511,-8,o),
(603,51,o),
(603,112,cs),
(603,151,o),
(578,175,o),
(551,175,cs),
(501,175,o),
(460,132,o),
(335,132,cs),
(227,132,o),
(166,169,o),
(166,263,cs),
(166,279,o),
(167,295,o),
(169,311,c),
(145,267,l),
(187,241,o),
(243,226,o),
(300,226,cs),
(454,226,o),
(562,305,o),
(562,433,cs),
(562,539,o),
(498,612,o),
(355,612,cs),
(172,612,o),
(40,485,o),
(40,268,cs),
(40,96,o),
(120,-8,o),
(341,-8,cs)
);
},
{
closed = 1;
nodes = (
(217,319,o),
(179,340,o),
(179,379,cs),
(179,444,o),
(248,503,o),
(343,503,cs),
(409,503,o),
(440,470,o),
(440,423,cs),
(440,364,o),
(377,319,o),
(283,319,cs)
);
}
);
width = 630;
}
);
metricLeft = o;
unicode = 101;
},
{
color = 4;
glyphname = f;
kernLeft = LAT_lc_t;
kernRight = LAT_lc_f;
lastChange = "2021-09-01 16:55:42 +0000";
layers = (
{
anchors = (
{
name = bottom;
pos = (212,0);
},
{
name = top;
pos = (212,800);
}
);
layerId = m004;
shapes = (
{
closed = 1;
nodes = (
(139,579,o),
(122,584,o),
(104,584,cs),
(43,584,o),
(5,545,o),
(5,476,cs),
(5,410,o),
(38,379,o),
(97,379,cs),
(123,379,o),
(145,387,o),
(163,405,c),
(143,410,l),
(112,318,o),
(95,210,o),
(95,137,cs),
(95,53,o),
(127,-10,o),
(210,-10,cs),
(286,-10,o),
(323,62,o),
(323,148,cs),
(323,223,o),
(304,327,o),
(276,401,c),
(271,390,l),
(287,382,o),
(303,379,o),
(318,379,cs),
(375,379,o),
(419,415,o),
(419,486,cs),
(419,560,o),
(379,589,o),
(319,589,cs),
(301,589,o),
(281,582,o),
(267,570,c),
(278,568,l),
(278,614,o),
(287,627,o),
(331,631,cs),
(382,636,o),
(409,666,o),
(409,714,cs),
(409,772,o),
(379,804,o),
(308,804,cs),
(179,804,o),
(131,742,o),
(131,642,cs),
(131,620,o),
(134,597,o),
(140,572,c),
(151,572,l)
);
}
);
width = 424;
},
{
anchors = (
{
name = bottom;
pos = (267,0);
},
{
name = top;
pos = (267,800);
}
);
layerId = "4BA625B0-8927-4B2E-B2D8-0167ED5E0445";
shapes = (
{
closed = 1;
nodes = (
(169,579,o),
(145,584,o),
(119,584,cs),
(49,584,o),
(5,545,o),
(5,476,cs),
(5,410,o),
(44,379,o),
(112,379,cs),
(146,379,o),
(175,387,o),
(198,405,c),
(178,410,l),
(147,318,o),
(130,210,o),
(130,137,cs),
(130,53,o),
(168,-10,o),
(265,-10,cs),
(355,-10,o),
(398,62,o),
(398,148,cs),
(398,223,o),
(379,327,o),
(351,401,c),
(346,390,l),
(369,382,o),
(392,379,o),
(413,379,cs),
(479,379,o),
(529,415,o),
(529,486,cs),
(529,560,o),
(483,589,o),
(414,589,cs),
(388,589,o),
(362,582,o),
(342,570,c),
(353,568,l),
(353,614,o),
(365,626,o),
(421,631,cs),
(472,636,o),
(499,666,o),
(499,714,cs),
(499,772,o),
(459,804,o),
(363,804,cs),
(220,804,o),
(166,742,o),
(166,642,cs),
(166,620,o),
(169,597,o),
(175,572,c),
(186,572,l)
);
}
);
width = 534;
},
{
anchors = (
{
name = bottom;
pos = (190,0);
},
{
name = top;
pos = (190,800);
}
);
layerId = "D96CDDDD-AAEE-4FD8-A377-74226937908C";
shapes = (
{
closed = 1;
nodes = (
(142,569,o),
(121,574,o),
(97,574,cs),
(49,574,o),
(20,547,o),
(20,499,cs),
(20,455,o),
(43,434,o),
(82,434,cs),
(114,434,o),
(141,441,o),
(163,456,c),
(151,465,l),
(124,345,o),
(110,203,o),
(110,107,cs),
(110,40,o),
(131,-10,o),
(184,-10,cs),
(237,-10,o),
(263,49,o),
(263,118,cs),
(263,223,o),
(250,362,o),
(231,464,c),
(226,449,l),
(250,439,o),
(274,434,o),
(296,434,cs),
(336,434,o),
(367,459,o),
(367,509,cs),
(367,559,o),
(339,579,o),
(297,579,cs),
(268,579,o),
(237,572,o),
(215,560,c),
(232,558,l),
(236,635,o),
(247,659,o),
(295,664,cs),
(336,668,o),
(357,693,o),
(357,734,cs),
(357,780,o),
(331,804,o),
(271,804,cs),
(175,804,o),
(139,744,o),
(139,647,cs),
(139,621,o),
(142,591,o),
(148,562,c),
(159,562,l)
);
}
);
width = 386.5;
},
{
anchors = (
{
name = bottom;
pos = (268,0);
},
{
name = top;
pos = (268,800);
}
);
layerId = "1C59D977-65E2-41C6-912A-276E7E987498";
shapes = (
{
closed = 1;
nodes = (
(205,569,o),
(166,574,o),
(123,574,cs),
(60,574,o),
(20,547,o),
(20,499,cs),
(20,455,o),
(52,434,o),
(108,434,cs),
(160,434,o),
(203,441,o),
(238,456,c),
(226,465,l),
(199,345,o),
(185,203,o),
(185,107,cs),
(185,40,o),
(207,-10,o),
(263,-10,cs),
(319,-10,o),
(346,49,o),
(346,118,cs),
(346,223,o),
(333,362,o),
(314,464,c),
(309,449,l),
(345,439,o),
(382,434,o),
(416,434,cs),
(471,434,o),
(513,459,o),
(513,509,cs),
(513,559,o),
(474,579,o),
(417,579,cs),
(375,579,o),
(330,572,o),
(297,560,c),
(315,558,l),
(321,635,o),
(341,656,o),
(415,664,cs),
(463,668,o),
(488,693,o),
(488,734,cs),
(488,780,o),
(457,804,o),
(383,804,cs),
(260,804,o),
(214,744,o),
(214,647,cs),
(214,621,o),
(217,591,o),
(223,562,c),
(234,562,l)
);
}
);
width = 532.75;
}
);
unicode = 102;
},
